<?xml version="1.0" encoding="UTF-8"?>
<svg width="250px" height="250px" viewBox="0 0 250 250" version="1.1" xmlns="http://www.w3.org/2000/svg" xmlns:xlink="http://www.w3.org/1999/xlink">
    <title>feature-4</title>
    <g id="scores-1-dark-copy" stroke="none" stroke-width="1" fill="none" fill-rule="evenodd">
        <g id="feature-4">
            <circle id="Oval" fill="#B9EBFF" cx="125" cy="125" r="125"></circle>
            <g id="Group" transform="translate(37.000000, 43.000000)">
                <path d="M176.5,157.4 L0.3,157.4 C0.1,157.4 0,157.2 0,157.1 C0,156.9 0.2,156.8 0.3,156.8 L176.6,156.8 C176.8,156.8 176.9,157 176.9,157.1 C176.9,157.3 176.7,157.4 176.5,157.4 Z" id="Path" fill="#1A2E35" fill-rule="nonzero"></path>
                <g transform="translate(33.000000, 2.000000)" fill="#1A2E35" fill-rule="nonzero">
                    <path d="M52.2,37.3 L45.6,37.3 C45.4,37.3 45.3,37.1 45.3,37 L44.9,32.3 C44,32.1 43.1,31.6 42.3,31.2 L38.7,34.2 C38.5,34.3 38.4,34.3 38.3,34.2 L33.6,29.5 C33.5,29.4 33.4,29.2 33.6,29.1 L36.6,25.5 C36.2,24.7 35.8,23.8 35.5,22.9 L30.8,22.5 C30.6,22.5 30.5,22.3 30.5,22.2 L30.5,15.7 C30.5,15.5 30.7,15.4 30.8,15.4 L35.5,15 C35.7,14.1 36.2,13.2 36.6,12.4 L33.6,8.8 C33.5,8.6 33.5,8.5 33.6,8.4 L38.3,3.7 C38.4,3.6 38.6,3.5 38.7,3.7 L42.3,6.7 C43.1,6.3 44,5.9 44.9,5.6 L45.3,0.9 C45.3,0.7 45.5,0.6 45.6,0.6 L52.2,0.6 C52.4,0.6 52.5,0.8 52.5,0.9 L52.9,5.6 C53.8,5.8 54.7,6.3 55.5,6.7 L59.1,3.7 C59.3,3.6 59.4,3.6 59.5,3.7 L64.2,8.4 C64.3,8.5 64.4,8.7 64.2,8.8 L61.2,12.4 C61.6,13.2 62,14.1 62.3,15 L67,15.4 C67.2,15.4 67.3,15.6 67.3,15.7 L67.3,22.2 C67.3,22.4 67.1,22.5 67,22.5 L62.3,22.9 C62.1,23.8 61.6,24.7 61.2,25.5 L64.2,29.1 C64.3,29.3 64.3,29.4 64.2,29.5 L59.5,34.2 C59.4,34.3 59.2,34.4 59.1,34.2 L55.5,31.2 C54.7,31.6 53.8,32 52.9,32.3 L52.5,37 C52.6,37.1 52.4,37.3 52.2,37.3 Z M45.9,36.6 L51.9,36.6 L52.3,32 C52.3,31.8 52.4,31.8 52.5,31.7 C53.5,31.5 54.5,31 55.4,30.6 C55.5,30.5 55.6,30.5 55.8,30.6 L59.4,33.5 L63.7,29.3 L60.7,25.8 C60.6,25.7 60.6,25.6 60.7,25.4 C61.2,24.5 61.6,23.5 61.9,22.5 C61.9,22.3 62.1,22.3 62.2,22.3 L66.9,21.9 L66.9,15.9 L62.2,15.5 C62,15.5 62,15.4 61.9,15.3 C61.6,14.3 61.2,13.3 60.7,12.4 C60.6,12.3 60.6,12.2 60.7,12 L63.7,8.5 L59.4,4.3 L55.8,7.2 C55.7,7.3 55.6,7.3 55.4,7.2 C54.5,6.7 53.5,6.3 52.5,6.1 C52.3,6.1 52.3,5.9 52.3,5.8 L51.9,1.2 L45.9,1.2 L45.5,5.8 C45.5,6 45.4,6 45.3,6.1 C44.2,6.3 43.3,6.8 42.4,7.2 C42.3,7.3 42.2,7.3 42,7.2 L38.4,4.3 L34.1,8.5 L37.1,12 C37.2,12.1 37.2,12.2 37.1,12.4 C36.6,13.3 36.2,14.3 35.9,15.3 C35.9,15.5 35.7,15.5 35.6,15.5 L30.9,15.9 L30.9,21.9 L35.6,22.3 C35.8,22.3 35.8,22.4 35.9,22.5 C36.2,23.5 36.6,24.5 37.1,25.4 C37.2,25.5 37.2,25.6 37.1,25.8 L34.1,29.3 L38.4,33.5 L42,30.6 C42.1,30.5 42.2,30.5 42.4,30.6 C43.3,31.1 44.3,31.5 45.3,31.7 C45.5,31.7 45.5,31.9 45.5,32 L45.9,36.6 Z M49,26.9 C44.6,26.9 41,23.3 41,19 C41,14.6 44.6,11.1 49,11.1 C53.4,11.1 57,14.7 57,19 C57,23.4 53.4,26.9 49,26.9 Z M49,11.7 C44.9,11.7 41.6,15 41.6,19 C41.6,23 44.9,26.3 49,26.3 C53.1,26.3 56.4,23 56.4,19 C56.3,14.9 53,11.7 49,11.7 Z" id="Shape"></path>
                    <path d="M131.1,93.7 L127.9,93.7 C127.7,93.7 127.6,93.5 127.6,93.4 L127.4,91.3 C127,91.2 126.7,91.1 126.3,90.9 L124.7,92.3 C124.5,92.4 124.4,92.4 124.3,92.3 L122.1,90.1 C122,90 121.9,89.8 122.1,89.7 L123.5,88.1 C123.3,87.8 123.2,87.4 123.1,87 L121,86.8 C120.8,86.8 120.7,86.6 120.7,86.5 L120.7,83.4 C120.7,83.2 120.9,83.1 121,83.1 L123.1,82.9 C123.2,82.6 123.3,82.2 123.5,81.8 L122.1,80.2 C122,80 122,79.9 122.1,79.8 L124.3,77.6 C124.4,77.5 124.6,77.4 124.7,77.6 L126.3,79 C126.6,78.8 127,78.7 127.4,78.6 L127.6,76.5 C127.6,76.3 127.8,76.2 127.9,76.2 L131.1,76.2 C131.3,76.2 131.4,76.4 131.4,76.5 L131.6,78.6 C132,78.7 132.3,78.8 132.7,79 L134.3,77.6 C134.5,77.5 134.6,77.5 134.7,77.6 L136.9,79.8 C137,79.9 137.1,80.1 136.9,80.2 L135.5,81.8 C135.7,82.1 135.8,82.5 135.9,82.9 L138,83.1 C138.2,83.1 138.3,83.3 138.3,83.4 L138.3,86.5 C138.3,86.7 138.1,86.8 138,86.8 L135.9,87 C135.8,87.3 135.7,87.7 135.5,88.1 L136.9,89.7 C137,89.9 137,90 136.9,90.1 L134.7,92.3 C134.6,92.4 134.4,92.5 134.3,92.3 L132.7,90.9 C132.4,91.1 132,91.2 131.6,91.3 L131.4,93.4 C131.4,93.5 131.2,93.7 131.1,93.7 Z M128.2,93 L130.7,93 L130.9,91 C130.9,90.8 131,90.8 131.1,90.7 C131.6,90.5 132,90.4 132.5,90.1 C132.6,90 132.7,90 132.9,90.1 L134.5,91.4 L136.3,89.6 L135,88 C134.9,87.9 134.9,87.8 135,87.6 C135.2,87.2 135.4,86.7 135.6,86.3 C135.6,86.1 135.8,86.1 135.9,86.1 L137.9,85.9 L137.9,83.4 L135.9,83.2 C135.7,83.2 135.7,83.1 135.6,83 C135.4,82.5 135.3,82.1 135,81.7 C134.9,81.6 134.9,81.5 135,81.3 L136.3,79.7 L134.5,77.9 L132.9,79.2 C132.8,79.3 132.7,79.3 132.5,79.2 C132.1,79 131.6,78.8 131.1,78.6 C130.9,78.6 130.9,78.4 130.9,78.3 L130.7,76.3 L128.2,76.3 L128,78.3 C128,78.5 127.9,78.5 127.8,78.6 C127.3,78.8 126.9,78.9 126.4,79.2 C126.3,79.3 126.2,79.3 126,79.2 L124.4,77.9 L122.6,79.7 L123.9,81.3 C124,81.4 124,81.5 123.9,81.7 C123.7,82.1 123.5,82.6 123.3,83 C123.3,83.2 123.1,83.2 123,83.2 L121,83.4 L121,85.9 L123,86.1 C123.2,86.1 123.2,86.2 123.3,86.3 C123.5,86.8 123.6,87.2 123.9,87.6 C124,87.7 124,87.8 123.9,88 L122.6,89.6 L124.4,91.4 L126,90.1 C126.1,90 126.2,90 126.4,90.1 C126.8,90.3 127.3,90.5 127.8,90.7 C128,90.7 128,90.9 128,91 L128.2,93 Z M129.5,88.7 C127.3,88.7 125.5,86.9 125.5,84.7 C125.5,82.5 127.3,80.7 129.5,80.7 C131.7,80.7 133.5,82.5 133.5,84.7 C133.5,86.9 131.7,88.7 129.5,88.7 Z M129.5,81.4 C127.6,81.4 126.1,82.9 126.1,84.8 C126.1,86.7 127.6,88.2 129.5,88.2 C131.4,88.2 132.9,86.7 132.9,84.8 C132.9,82.9 131.3,81.4 129.5,81.4 Z" id="Shape"></path>
                    <g transform="translate(97.000000, 14.000000)">
                        <path d="M36.5,22.1 L4.7,22.1 C2.4,22.1 0.6,20.3 0.6,18 C0.6,15.9 2.2,14.2 4.4,13.9 C4.9,10.5 7.9,7.9 11.4,7.9 C11.7,7.9 12.1,7.9 12.4,8 C12.9,3.7 16.6,0.3 21,0.3 C24,0.3 26.8,1.9 28.4,4.5 C29.1,4.3 29.8,4.3 30.5,4.3 C35.4,4.3 39.5,8.3 39.5,13.2 C39.5,13.8 39.4,14.4 39.3,15 C40.2,15.7 40.7,16.9 40.7,18 C40.6,20.3 38.7,22.1 36.5,22.1 Z M11.3,8.6 C8,8.6 5.2,11.1 4.9,14.2 C4.9,14.4 4.7,14.5 4.6,14.5 C2.7,14.5 1.2,16.1 1.2,17.9 C1.2,19.7 2.8,21.3 4.6,21.3 L36.4,21.3 C38.3,21.3 39.8,19.7 39.8,17.9 C39.8,16.8 39.3,15.9 38.6,15.3 C38.5,15.2 38.4,15.1 38.5,15 C38.7,14.4 38.7,13.8 38.7,13.1 C38.7,8.5 34.9,4.8 30.3,4.8 C29.6,4.8 28.8,4.9 28.1,5 C27.9,5 27.8,5 27.7,4.8 C26.3,2.3 23.6,0.8 20.7,0.8 C16.5,0.8 13,4.1 12.8,8.2 C12.8,8.3 12.7,8.4 12.6,8.4 C12.5,8.5 12.4,8.5 12.4,8.5 C12.1,8.6 11.7,8.6 11.3,8.6 Z" id="Shape"></path>
                        <g transform="translate(19.000000, 10.000000)" id="Path">
                            <path d="M2.4,17.9 C2.2,17.9 2.1,17.7 2.1,17.6 L2.1,8.9 C2.1,8.7 2.3,8.6 2.4,8.6 C2.5,8.6 2.7,8.8 2.7,8.9 L2.7,17.6 C2.7,17.7 2.6,17.9 2.4,17.9 Z"></path>
                            <path d="M2.4,7.5 C2.2,7.5 2.1,7.3 2.1,7.2 L2.1,3.7 C2.1,3.5 2.3,3.4 2.4,3.4 C2.5,3.4 2.7,3.6 2.7,3.7 L2.7,7.1 C2.7,7.3 2.6,7.5 2.4,7.5 Z"></path>
                            <path d="M2.4,2.6 C2.2,2.6 2.1,2.4 2.1,2.3 L2.1,0.4 C2.1,0.2 2.3,0.1 2.4,0.1 C2.5,0.1 2.7,0.3 2.7,0.4 L2.7,2.3 C2.7,2.5 2.6,2.6 2.4,2.6 Z"></path>
                            <path d="M2.4,18.8 L2.4,18.8 C2.3,18.8 2.2,18.7 2.2,18.7 L0.6,16.7 C0.5,16.5 0.5,16.4 0.7,16.2 C0.9,16.1 1,16.1 1.2,16.3 L2.6,18 L4,16.3 C4.1,16.1 4.3,16.1 4.5,16.2 C4.7,16.3 4.7,16.5 4.6,16.7 L3,18.7 C2.6,18.8 2.5,18.8 2.4,18.8 Z"></path>
                        </g>
                    </g>
                    <g transform="translate(0.000000, 115.000000)">
                        <path d="M36.8,22.7 L5,22.7 C2.7,22.7 0.9,20.9 0.9,18.6 C0.9,16.5 2.5,14.8 4.7,14.5 C5.2,11.1 8.2,8.5 11.7,8.5 C12,8.5 12.4,8.5 12.7,8.6 C13.2,4.3 16.9,0.9 21.3,0.9 C24.3,0.9 27.1,2.5 28.7,5.1 C29.4,4.9 30.1,4.9 30.8,4.9 C35.7,4.9 39.8,8.9 39.8,13.8 C39.8,14.4 39.7,15 39.6,15.6 C40.5,16.3 41,17.5 41,18.6 C40.9,20.9 39.1,22.7 36.8,22.7 Z M11.7,9.2 C8.4,9.2 5.6,11.7 5.3,14.8 C5.3,15 5.1,15.1 5,15.1 C3.1,15.1 1.6,16.7 1.6,18.5 C1.6,20.3 3.2,21.9 5,21.9 L36.8,21.9 C38.7,21.9 40.2,20.3 40.2,18.5 C40.2,17.4 39.7,16.5 39,15.9 C38.9,15.8 38.8,15.7 38.9,15.6 C39.1,15 39.1,14.4 39.1,13.7 C39.1,9.1 35.3,5.4 30.7,5.4 C30,5.4 29.2,5.5 28.5,5.6 C28.3,5.6 28.2,5.6 28.1,5.4 C26.7,2.9 24,1.4 21.1,1.4 C16.9,1.4 13.4,4.7 13.2,8.8 C13.2,8.9 13.1,9 13,9 C12.9,9.1 12.8,9.1 12.8,9.1 C12.5,9.2 12,9.2 11.7,9.2 Z" id="Shape"></path>
                        <g transform="translate(19.000000, 10.000000)" id="Path">
                            <path d="M2.7,11 C2.5,11 2.4,10.8 2.4,10.7 L2.4,2 C2.4,1.8 2.6,1.7 2.7,1.7 C2.8,1.7 3,1.9 3,2 L3,10.7 C3,10.9 2.9,11 2.7,11 Z"></path>
                            <path d="M2.7,16.3 C2.5,16.3 2.4,16.1 2.4,16 L2.4,12.6 C2.4,12.4 2.6,12.3 2.7,12.3 C2.8,12.3 3,12.5 3,12.6 L3,16 C3,16.1 2.9,16.3 2.7,16.3 Z"></path>
                            <path d="M2.7,19.5 C2.5,19.5 2.4,19.3 2.4,19.2 L2.4,17.3 C2.4,17.1 2.6,17 2.7,17 C2.8,17 3,17.2 3,17.3 L3,19.2 C3,19.3 2.9,19.5 2.7,19.5 Z"></path>
                            <path d="M1.1,3.4 C1,3.4 0.9,3.4 0.9,3.3 C0.7,3.2 0.7,3 0.8,2.8 L2.4,0.8 C2.5,0.7 2.6,0.7 2.6,0.7 L2.6,0.7 C2.7,0.7 2.8,0.8 2.8,0.8 L4.4,2.8 C4.5,3 4.5,3.1 4.3,3.3 C4.1,3.4 4,3.4 3.8,3.2 L2.4,1.5 L1,3.2 C1.2,3.3 1.1,3.4 1.1,3.4 Z"></path>
                        </g>
                    </g>
                </g>
                <g transform="translate(3.000000, 0.000000)">
                    <g transform="translate(0.000000, 22.000000)" fill-rule="nonzero">
                        <path d="M109.8,7.5 L0.3,7.5 L0.3,4.2 C0.3,2.3 1.9,0.8 3.7,0.8 L106.3,0.8 C108.2,0.8 109.7,2.4 109.7,4.2 L109.8,7.5 L109.8,7.5 Z" id="Path" fill="#FFA981"></path>
                        <path d="M109.8,7.8 L0.3,7.8 C0.1,7.8 0,7.6 0,7.5 L0,3.6 C0,1.9 1.4,0.5 3.1,0.5 L107.1,0.5 C108.8,0.5 110.2,1.9 110.2,3.6 L110.2,7.5 C110.2,7.7 110,7.8 109.8,7.8 Z M0.6,7.1 L109.5,7.1 L109.5,3.5 C109.5,2.1 108.4,1 107,1 L3,1 C1.6,1 0.5,2.1 0.5,3.5 L0.5,7.1 L0.6,7.1 Z" id="Shape" fill="#1A2E35"></path>
                    </g>
                    <g transform="translate(4.000000, 30.000000)" fill-rule="nonzero">
                        <rect id="Rectangle" fill="#FFFFFF" x="1.1" y="0.8" width="110.7" height="77.2"></rect>
                        <path d="M111.8,78.2 L1.1,78.2 C0.9,78.2 0.8,78 0.8,77.9 L0.8,0.7 C0.8,0.5 1,0.4 1.1,0.4 L111.8,0.4 C112,0.4 112.1,0.6 112.1,0.7 L112.1,77.9 C112.1,78.1 112,78.2 111.8,78.2 Z M1.4,77.6 L111.4,77.6 L111.4,1 L1.4,1 L1.4,77.6 L1.4,77.6 Z" id="Shape" fill="#1A2E35"></path>
                    </g>
                    <g transform="translate(113.000000, 24.000000)" fill-rule="nonzero">
                        <path d="M4.5,2.1 C4.5,3 3.8,3.8 2.8,3.8 C1.8,3.8 1.1,3.1 1.1,2.1 C1.1,1.2 1.8,0.4 2.8,0.4 C3.8,0.4 4.5,1.2 4.5,2.1 Z" id="Path" fill="#FFFFFF"></path>
                        <path d="M2.8,4.1 C1.7,4.1 0.8,3.2 0.8,2.1 C0.8,1 1.7,0.1 2.8,0.1 C3.9,0.1 4.8,1 4.8,2.1 C4.9,3.2 3.9,4.1 2.8,4.1 Z M2.8,0.8 C2.1,0.8 1.4,1.4 1.4,2.1 C1.4,2.8 2,3.4 2.8,3.4 C3.6,3.4 4.2,2.8 4.2,2.1 C4.2,1.4 3.5,0.8 2.8,0.8 Z" id="Shape" fill="#1A2E35"></path>
                    </g>
                    <g transform="translate(107.000000, 24.000000)" fill-rule="nonzero">
                        <path d="M4.6,2.1 C4.6,3 3.9,3.8 2.9,3.8 C2,3.8 1.2,3.1 1.2,2.1 C1.2,1.2 1.9,0.4 2.9,0.4 C3.7,0.5 4.6,1.2 4.6,2.1 Z" id="Path" fill="#FFFFFF"></path>
                        <path d="M2.8,4.1 C1.7,4.1 0.8,3.2 0.8,2.1 C0.8,1 1.7,0.1 2.8,0.1 C3.9,0.1 4.8,1 4.8,2.1 C4.9,3.2 4,4.1 2.8,4.1 Z M2.8,0.8 C2.1,0.8 1.4,1.4 1.4,2.1 C1.4,2.8 2,3.4 2.8,3.4 C3.6,3.4 4.2,2.8 4.2,2.1 C4.2,1.4 3.6,0.8 2.8,0.8 Z" id="Shape" fill="#1A2E35"></path>
                    </g>
                    <g transform="translate(101.000000, 24.000000)" fill-rule="nonzero">
                        <path d="M4.6,2.1 C4.6,3 3.9,3.8 2.9,3.8 C2,3.8 1.2,3.1 1.2,2.1 C1.2,1.2 1.9,0.4 2.9,0.4 C3.8,0.5 4.6,1.2 4.6,2.1 Z" id="Path" fill="#FFFFFF"></path>
                        <path d="M2.9,4.1 C1.8,4.1 0.9,3.2 0.9,2.1 C0.9,1 1.8,0.1 2.9,0.1 C4,0.1 4.9,1 4.9,2.1 C4.9,3.2 4,4.1 2.9,4.1 Z M2.9,0.8 C2.2,0.8 1.5,1.4 1.5,2.1 C1.5,2.8 2.1,3.4 2.9,3.4 C3.7,3.4 4.3,2.8 4.3,2.1 C4.2,1.4 3.6,0.8 2.9,0.8 Z" id="Shape" fill="#1A2E35"></path>
                    </g>
                    <g transform="translate(107.000000, 33.000000)" fill="#1A2E35" fill-rule="nonzero" id="Path">
                        <path d="M5.5,1.7 L1,1.7 C0.7,1.7 0.3,1.4 0.3,1 C0.3,0.6 0.6,0.3 1,0.3 L5.4,0.3 C5.7,0.3 6.1,0.6 6.1,1 C6.1,1.5 5.8,1.7 5.5,1.7 Z"></path>
                        <path d="M5.5,3.5 L1,3.5 C0.7,3.5 0.3,3.2 0.3,2.8 C0.3,2.5 0.6,2.1 1,2.1 L5.4,2.1 C5.7,2.1 6.1,2.4 6.1,2.8 C6.1,3.2 5.8,3.5 5.5,3.5 Z"></path>
                        <path d="M5.5,5.2 L1,5.2 C0.7,5.2 0.3,4.9 0.3,4.5 C0.3,4.2 0.6,3.8 1,3.8 L5.4,3.8 C5.7,3.8 6.1,4.1 6.1,4.5 C6.1,5 5.8,5.2 5.5,5.2 Z"></path>
                    </g>
                    <g transform="translate(12.000000, 78.000000)" fill="#1A2E35" fill-rule="nonzero" id="Path">
                        <path d="M33.9,2.2 L0.7,2.2 C0.4,2.2 0,1.9 0,1.5 C0,1.1 0.3,0.8 0.7,0.8 L33.9,0.8 C34.2,0.8 34.6,1.1 34.6,1.5 C34.6,2 34.3,2.2 33.9,2.2 Z"></path>
                        <path d="M33.9,4.8 L0.7,4.8 C0.4,4.8 0,4.5 0,4.1 C0,3.7 0.3,3.4 0.7,3.4 L33.9,3.4 C34.2,3.4 34.6,3.7 34.6,4.1 C34.6,4.5 34.3,4.8 33.9,4.8 Z"></path>
                        <path d="M26.9,7.5 L0.8,7.5 C0.5,7.5 0.1,7.2 0.1,6.8 C0.1,6.4 0.4,6.1 0.8,6.1 L26.9,6.1 C27.2,6.1 27.6,6.4 27.6,6.8 C27.6,7.2 27.3,7.5 26.9,7.5 Z"></path>
                    </g>
                    <g transform="translate(6.000000, 31.000000)" fill-rule="nonzero">
                        <g transform="translate(76.000000, 0.000000)" fill="#1A2E35">
                            <path d="M1.1,1.2 C0.9,1.2 0.8,1 0.8,0.9 L0.8,0.6 C0.8,0.4 1,0.3 1.1,0.3 C1.2,0.3 1.4,0.5 1.4,0.6 L1.4,0.9 C1.5,1.2 1.3,1.2 1.1,1.2 Z" id="Path"></path>
                            <path d="M1.1,73.6 C0.9,73.6 0.8,73.4 0.8,73.3 L0.8,72.6 C0.8,72.4 1,72.3 1.1,72.3 C1.2,72.3 1.4,72.5 1.4,72.6 L1.4,73.3 C1.5,73.5 1.3,73.6 1.1,73.6 Z M1.1,71 C0.9,71 0.8,70.8 0.8,70.7 L0.8,70 C0.8,69.8 1,69.7 1.1,69.7 C1.2,69.7 1.4,69.9 1.4,70 L1.4,70.7 C1.5,70.8 1.3,71 1.1,71 Z M1.1,68.3 C0.9,68.3 0.8,68.1 0.8,68 L0.8,67.3 C0.8,67.1 1,67 1.1,67 C1.2,67 1.4,67.2 1.4,67.3 L1.4,68 C1.5,68.1 1.3,68.3 1.1,68.3 Z M1.1,65.6 C0.9,65.6 0.8,65.4 0.8,65.3 L0.8,64.6 C0.8,64.4 1,64.3 1.1,64.3 C1.2,64.3 1.4,64.5 1.4,64.6 L1.4,65.3 C1.5,65.4 1.3,65.6 1.1,65.6 Z M1.1,62.9 C0.9,62.9 0.8,62.7 0.8,62.6 L0.8,61.9 C0.8,61.7 1,61.6 1.1,61.6 C1.2,61.6 1.4,61.8 1.4,61.9 L1.4,62.6 C1.5,62.8 1.3,62.9 1.1,62.9 Z M1.1,60.3 C0.9,60.3 0.8,60.1 0.8,60 L0.8,59.3 C0.8,59.1 1,59 1.1,59 C1.2,59 1.4,59.2 1.4,59.3 L1.4,60 C1.5,60.1 1.3,60.3 1.1,60.3 Z M1.1,57.6 C0.9,57.6 0.8,57.4 0.8,57.3 L0.8,56.6 C0.8,56.4 1,56.3 1.1,56.3 C1.2,56.3 1.4,56.5 1.4,56.6 L1.4,57.3 C1.5,57.4 1.3,57.6 1.1,57.6 Z M1.1,54.9 C0.9,54.9 0.8,54.7 0.8,54.6 L0.8,53.9 C0.8,53.7 1,53.6 1.1,53.6 C1.2,53.6 1.4,53.8 1.4,53.9 L1.4,54.6 C1.5,54.7 1.3,54.9 1.1,54.9 Z M1.1,52.2 C0.9,52.2 0.8,52 0.8,51.9 L0.8,51.2 C0.8,51 1,50.9 1.1,50.9 C1.2,50.9 1.4,51.1 1.4,51.2 L1.4,51.9 C1.5,52.1 1.3,52.2 1.1,52.2 Z M1.1,49.5 C0.9,49.5 0.8,49.3 0.8,49.2 L0.8,48.5 C0.8,48.3 1,48.2 1.1,48.2 C1.2,48.2 1.4,48.4 1.4,48.5 L1.4,49.2 C1.5,49.4 1.3,49.5 1.1,49.5 Z M1.1,46.8 C0.9,46.8 0.8,46.6 0.8,46.5 L0.8,45.8 C0.8,45.6 1,45.5 1.1,45.5 C1.2,45.5 1.4,45.7 1.4,45.8 L1.4,46.5 C1.5,46.7 1.3,46.8 1.1,46.8 Z M1.1,44.1 C0.9,44.1 0.8,43.9 0.8,43.8 L0.8,43.1 C0.8,42.9 1,42.8 1.1,42.8 C1.2,42.8 1.4,43 1.4,43.1 L1.4,43.8 C1.5,44 1.3,44.1 1.1,44.1 Z M1.1,41.4 C0.9,41.4 0.8,41.2 0.8,41.1 L0.8,40.4 C0.8,40.2 1,40.1 1.1,40.1 C1.2,40.1 1.4,40.3 1.4,40.4 L1.4,41.1 C1.5,41.4 1.3,41.4 1.1,41.4 Z M1.1,38.8 C0.9,38.8 0.8,38.6 0.8,38.5 L0.8,37.8 C0.8,37.6 1,37.5 1.1,37.5 C1.2,37.5 1.4,37.7 1.4,37.8 L1.4,38.5 C1.5,38.7 1.3,38.8 1.1,38.8 Z M1.1,36.1 C0.9,36.1 0.8,35.9 0.8,35.8 L0.8,35.1 C0.8,34.9 1,34.8 1.1,34.8 C1.2,34.8 1.4,35 1.4,35.1 L1.4,35.8 C1.5,36 1.3,36.1 1.1,36.1 Z M1.1,33.4 C0.9,33.4 0.8,33.2 0.8,33.1 L0.8,32.4 C0.8,32.2 1,32.1 1.1,32.1 C1.2,32.1 1.4,32.3 1.4,32.4 L1.4,33.1 C1.5,33.3 1.3,33.4 1.1,33.4 Z M1.1,30.7 C0.9,30.7 0.8,30.5 0.8,30.4 L0.8,29.7 C0.8,29.5 1,29.4 1.1,29.4 C1.2,29.4 1.4,29.6 1.4,29.7 L1.4,30.4 C1.5,30.6 1.3,30.7 1.1,30.7 Z M1.1,28.1 C0.9,28.1 0.8,27.9 0.8,27.8 L0.8,27.1 C0.8,26.9 1,26.8 1.1,26.8 C1.2,26.8 1.4,27 1.4,27.1 L1.4,27.8 C1.5,27.9 1.3,28.1 1.1,28.1 Z M1.1,25.4 C0.9,25.4 0.8,25.2 0.8,25.1 L0.8,24.4 C0.8,24.2 1,24.1 1.1,24.1 C1.2,24.1 1.4,24.3 1.4,24.4 L1.4,25.1 C1.5,25.2 1.3,25.4 1.1,25.4 Z M1.1,22.7 C0.9,22.7 0.8,22.5 0.8,22.4 L0.8,21.7 C0.8,21.5 1,21.4 1.1,21.4 C1.2,21.4 1.4,21.6 1.4,21.7 L1.4,22.4 C1.5,22.5 1.3,22.7 1.1,22.7 Z M1.1,20.1 C0.9,20.1 0.8,19.9 0.8,19.8 L0.8,19.1 C0.8,18.9 1,18.8 1.1,18.8 C1.2,18.8 1.4,19 1.4,19.1 L1.4,19.8 C1.5,19.9 1.3,20.1 1.1,20.1 Z M1.1,17.4 C0.9,17.4 0.8,17.2 0.8,17.1 L0.8,16.4 C0.8,16.2 1,16.1 1.1,16.1 C1.2,16.1 1.4,16.3 1.4,16.4 L1.4,17.1 C1.5,17.2 1.3,17.4 1.1,17.4 Z M1.1,14.7 C0.9,14.7 0.8,14.5 0.8,14.4 L0.8,13.7 C0.8,13.5 1,13.4 1.1,13.4 C1.2,13.4 1.4,13.6 1.4,13.7 L1.4,14.4 C1.5,14.5 1.3,14.7 1.1,14.7 Z M1.1,12 C0.9,12 0.8,11.8 0.8,11.7 L0.8,11 C0.8,10.8 1,10.7 1.1,10.7 C1.2,10.7 1.4,10.9 1.4,11 L1.4,11.7 C1.5,11.8 1.3,12 1.1,12 Z M1.1,9.3 C0.9,9.3 0.8,9.1 0.8,9 L0.8,8.3 C0.8,8.1 1,8 1.1,8 C1.2,8 1.4,8.2 1.4,8.3 L1.4,9 C1.5,9.2 1.3,9.3 1.1,9.3 Z M1.1,6.6 C0.9,6.6 0.8,6.4 0.8,6.3 L0.8,5.6 C0.8,5.4 1,5.3 1.1,5.3 C1.2,5.3 1.4,5.5 1.4,5.6 L1.4,6.3 C1.5,6.5 1.3,6.6 1.1,6.6 Z M1.1,3.9 C0.9,3.9 0.8,3.7 0.8,3.6 L0.8,3 C0.8,2.8 1,2.7 1.1,2.7 C1.2,2.7 1.4,2.9 1.4,3 L1.4,3.7 C1.5,3.8 1.3,3.9 1.1,3.9 Z" id="Shape"></path>
                            <path d="M1.1,76 C0.9,76 0.8,75.8 0.8,75.7 L0.8,75.4 C0.8,75.2 1,75.1 1.1,75.1 C1.2,75.1 1.4,75.3 1.4,75.4 L1.4,75.7 C1.5,75.8 1.3,76 1.1,76 Z" id="Path"></path>
                        </g>
                        <g transform="translate(0.000000, 59.000000)" fill="#1A2E35">
                            <path d="M0.8,0.9 L0.5,0.9 C0.3,0.9 0.2,0.7 0.2,0.6 C0.2,0.5 0.4,0.3 0.5,0.3 L0.8,0.3 C1,0.3 1.1,0.5 1.1,0.6 C1.1,0.7 0.9,0.9 0.8,0.9 Z" id="Path"></path>
                            <path d="M105.8,0.9 L105.1,0.9 C104.9,0.9 104.8,0.7 104.8,0.6 C104.8,0.5 105,0.3 105.1,0.3 L105.8,0.3 C106,0.3 106.1,0.5 106.1,0.6 C106.1,0.7 106,0.9 105.8,0.9 Z M103.2,0.9 L102.5,0.9 C102.3,0.9 102.2,0.7 102.2,0.6 C102.2,0.5 102.4,0.3 102.5,0.3 L103.2,0.3 C103.4,0.3 103.5,0.5 103.5,0.6 C103.5,0.7 103.3,0.9 103.2,0.9 Z M100.6,0.9 L99.9,0.9 C99.7,0.9 99.6,0.7 99.6,0.6 C99.6,0.5 99.8,0.3 99.9,0.3 L100.6,0.3 C100.8,0.3 100.9,0.5 100.9,0.6 C100.9,0.7 100.7,0.9 100.6,0.9 Z M97.9,0.9 L97.2,0.9 C97,0.9 96.9,0.7 96.9,0.6 C96.9,0.5 97.1,0.3 97.2,0.3 L97.9,0.3 C98.1,0.3 98.2,0.5 98.2,0.6 C98.3,0.8 98.1,0.9 97.9,0.9 Z M95.3,0.9 L94.6,0.9 C94.4,0.9 94.3,0.7 94.3,0.6 C94.3,0.5 94.5,0.3 94.6,0.3 L95.3,0.3 C95.5,0.3 95.6,0.5 95.6,0.6 C95.6,0.7 95.5,0.9 95.3,0.9 Z M92.7,0.9 L92,0.9 C91.8,0.9 91.7,0.7 91.7,0.6 C91.7,0.5 91.9,0.3 92,0.3 L92.7,0.3 C92.9,0.3 93,0.5 93,0.6 C93,0.7 92.9,0.9 92.7,0.9 Z M90.1,0.9 L89.4,0.9 C89.2,0.9 89.1,0.7 89.1,0.6 C89.1,0.5 89.3,0.3 89.4,0.3 L90.1,0.3 C90.3,0.3 90.4,0.5 90.4,0.6 C90.4,0.7 90.2,0.9 90.1,0.9 Z M87.4,0.9 L86.7,0.9 C86.5,0.9 86.4,0.7 86.4,0.6 C86.4,0.5 86.6,0.3 86.7,0.3 L87.4,0.3 C87.6,0.3 87.7,0.5 87.7,0.6 C87.8,0.8 87.6,0.9 87.4,0.9 Z M84.8,0.9 L84.1,0.9 C83.9,0.9 83.8,0.7 83.8,0.6 C83.8,0.5 84,0.3 84.1,0.3 L84.8,0.3 C85,0.3 85.1,0.5 85.1,0.6 C85.1,0.7 85,0.9 84.8,0.9 Z M82.1,0.9 L81.4,0.9 C81.2,0.9 81.1,0.7 81.1,0.6 C81.1,0.5 81.3,0.3 81.4,0.3 L82.1,0.3 C82.3,0.3 82.4,0.5 82.4,0.6 C82.4,0.7 82.4,0.9 82.1,0.9 Z M79.5,0.9 L78.8,0.9 C78.6,0.9 78.5,0.7 78.5,0.6 C78.5,0.5 78.7,0.3 78.8,0.3 L79.5,0.3 C79.7,0.3 79.8,0.5 79.8,0.6 C79.8,0.7 79.7,0.9 79.5,0.9 Z M76.9,0.9 L76.2,0.9 C76,0.9 75.9,0.7 75.9,0.6 C75.9,0.5 76.1,0.3 76.2,0.3 L76.9,0.3 C77.1,0.3 77.2,0.5 77.2,0.6 C77.2,0.7 77.1,0.9 76.9,0.9 Z M74.3,0.9 L73.6,0.9 C73.4,0.9 73.3,0.7 73.3,0.6 C73.3,0.5 73.5,0.3 73.6,0.3 L74.3,0.3 C74.5,0.3 74.6,0.5 74.6,0.6 C74.6,0.8 74.4,0.9 74.3,0.9 Z M71.7,0.9 L71,0.9 C70.8,0.9 70.7,0.7 70.7,0.6 C70.7,0.5 70.9,0.3 71,0.3 L71.7,0.3 C71.9,0.3 72,0.5 72,0.6 C72,0.8 71.8,0.9 71.7,0.9 Z M69,0.9 L68.3,0.9 C68.1,0.9 68,0.7 68,0.6 C68,0.5 68.2,0.3 68.3,0.3 L69,0.3 C69.2,0.3 69.3,0.5 69.3,0.6 C69.3,0.7 69.2,0.9 69,0.9 Z M66.4,0.9 L65.7,0.9 C65.5,0.9 65.4,0.7 65.4,0.6 C65.4,0.5 65.6,0.3 65.7,0.3 L66.4,0.3 C66.6,0.3 66.7,0.5 66.7,0.6 C66.7,0.7 66.6,0.9 66.4,0.9 Z M63.8,0.9 L63.1,0.9 C62.9,0.9 62.8,0.7 62.8,0.6 C62.8,0.5 63,0.3 63.1,0.3 L63.8,0.3 C64,0.3 64.1,0.5 64.1,0.6 C64.1,0.7 64,0.9 63.8,0.9 Z M61.2,0.9 L60.5,0.9 C60.3,0.9 60.2,0.7 60.2,0.6 C60.2,0.5 60.4,0.3 60.5,0.3 L61.2,0.3 C61.4,0.3 61.5,0.5 61.5,0.6 C61.5,0.7 61.3,0.9 61.2,0.9 Z M58.6,0.9 L57.9,0.9 C57.7,0.9 57.6,0.7 57.6,0.6 C57.6,0.5 57.8,0.3 57.9,0.3 L58.6,0.3 C58.8,0.3 58.9,0.5 58.9,0.6 C58.9,0.8 58.7,0.9 58.6,0.9 Z M55.9,0.9 L55.2,0.9 C55,0.9 54.9,0.7 54.9,0.6 C54.9,0.5 55.1,0.3 55.2,0.3 L55.9,0.3 C56.1,0.3 56.2,0.5 56.2,0.6 C56.2,0.7 56.1,0.9 55.9,0.9 Z M53.2,0.9 L52.5,0.9 C52.3,0.9 52.2,0.7 52.2,0.6 C52.2,0.5 52.4,0.3 52.5,0.3 L53.2,0.3 C53.4,0.3 53.5,0.5 53.5,0.6 C53.6,0.8 53.5,0.9 53.2,0.9 Z M50.6,0.9 L50,0.9 C49.8,0.9 49.7,0.7 49.7,0.6 C49.7,0.5 49.9,0.3 50,0.3 L50.7,0.3 C50.9,0.3 51,0.5 51,0.6 C51,0.7 50.9,0.9 50.6,0.9 Z M48,0.9 L47.3,0.9 C47.1,0.9 47,0.7 47,0.6 C47,0.5 47.2,0.3 47.3,0.3 L48,0.3 C48.2,0.3 48.3,0.5 48.3,0.6 C48.3,0.7 48.2,0.9 48,0.9 Z M45.4,0.9 L44.7,0.9 C44.5,0.9 44.4,0.7 44.4,0.6 C44.4,0.5 44.6,0.3 44.7,0.3 L45.4,0.3 C45.6,0.3 45.7,0.5 45.7,0.6 C45.7,0.7 45.5,0.9 45.4,0.9 Z M42.8,0.9 L42.1,0.9 C41.9,0.9 41.8,0.7 41.8,0.6 C41.8,0.5 42,0.3 42.1,0.3 L42.8,0.3 C43,0.3 43.1,0.5 43.1,0.6 C43.1,0.8 42.9,0.9 42.8,0.9 Z M40.1,0.9 L39.4,0.9 C39.2,0.9 39.1,0.7 39.1,0.6 C39.1,0.5 39.3,0.3 39.4,0.3 L40.1,0.3 C40.3,0.3 40.4,0.5 40.4,0.6 C40.5,0.8 40.3,0.9 40.1,0.9 Z M37.5,0.9 L36.8,0.9 C36.6,0.9 36.5,0.7 36.5,0.6 C36.5,0.5 36.7,0.3 36.8,0.3 L37.5,0.3 C37.7,0.3 37.8,0.5 37.8,0.6 C37.8,0.7 37.7,0.9 37.5,0.9 Z M34.9,0.9 L34.2,0.9 C34,0.9 33.9,0.7 33.9,0.6 C33.9,0.5 34.1,0.3 34.2,0.3 L34.9,0.3 C35.1,0.3 35.2,0.5 35.2,0.6 C35.2,0.7 35.1,0.9 34.9,0.9 Z M32.3,0.9 L31.6,0.9 C31.4,0.9 31.3,0.7 31.3,0.6 C31.3,0.5 31.5,0.3 31.6,0.3 L32.3,0.3 C32.5,0.3 32.6,0.5 32.6,0.6 C32.6,0.7 32.4,0.9 32.3,0.9 Z M29.7,0.9 L29,0.9 C28.8,0.9 28.7,0.7 28.7,0.6 C28.7,0.5 28.9,0.3 29,0.3 L29.7,0.3 C29.9,0.3 30,0.5 30,0.6 C30,0.8 29.8,0.9 29.7,0.9 Z M27,0.9 L26.3,0.9 C26.1,0.9 26,0.7 26,0.6 C26,0.5 26.2,0.3 26.3,0.3 L27,0.3 C27.2,0.3 27.3,0.5 27.3,0.6 C27.4,0.8 27.2,0.9 27,0.9 Z M24.4,0.9 L23.7,0.9 C23.5,0.9 23.4,0.7 23.4,0.6 C23.4,0.5 23.6,0.3 23.7,0.3 L24.4,0.3 C24.6,0.3 24.7,0.5 24.7,0.6 C24.7,0.7 24.6,0.9 24.4,0.9 Z M21.8,0.9 L21.1,0.9 C20.9,0.9 20.8,0.7 20.8,0.6 C20.8,0.5 21,0.3 21.1,0.3 L21.8,0.3 C22,0.3 22.1,0.5 22.1,0.6 C22.1,0.7 22,0.9 21.8,0.9 Z M19.1,0.9 L18.4,0.9 C18.2,0.9 18.1,0.7 18.1,0.6 C18.1,0.5 18.3,0.3 18.4,0.3 L19.1,0.3 C19.3,0.3 19.4,0.5 19.4,0.6 C19.5,0.8 19.3,0.9 19.1,0.9 Z M16.5,0.9 L15.8,0.9 C15.6,0.9 15.5,0.7 15.5,0.6 C15.5,0.5 15.7,0.3 15.8,0.3 L16.5,0.3 C16.7,0.3 16.8,0.5 16.8,0.6 C16.8,0.7 16.7,0.9 16.5,0.9 Z M13.9,0.9 L13.2,0.9 C13,0.9 12.9,0.7 12.9,0.6 C12.9,0.5 13.1,0.3 13.2,0.3 L13.9,0.3 C14.1,0.3 14.2,0.5 14.2,0.6 C14.2,0.7 14.1,0.9 13.9,0.9 Z M11.2,0.9 L10.5,0.9 C10.3,0.9 10.2,0.7 10.2,0.6 C10.2,0.5 10.4,0.3 10.5,0.3 L11.2,0.3 C11.4,0.3 11.5,0.5 11.5,0.6 C11.6,0.8 11.4,0.9 11.2,0.9 Z M8.6,0.9 L8,0.9 C7.8,0.9 7.7,0.7 7.7,0.6 C7.7,0.5 7.9,0.3 8,0.3 L8.7,0.3 C8.9,0.3 9,0.5 9,0.6 C9,0.7 8.8,0.9 8.6,0.9 Z M6,0.9 L5.3,0.9 C5.1,0.9 5,0.7 5,0.6 C5,0.5 5.2,0.3 5.3,0.3 L6,0.3 C6.2,0.3 6.3,0.5 6.3,0.6 C6.3,0.7 6.2,0.9 6,0.9 Z M3.4,0.9 L2.7,0.9 C2.5,0.9 2.4,0.7 2.4,0.6 C2.4,0.5 2.6,0.3 2.7,0.3 L3.4,0.3 C3.6,0.3 3.7,0.5 3.7,0.6 C3.7,0.7 3.5,0.9 3.4,0.9 Z" id="Shape"></path>
                            <path d="M108.1,0.9 L107.8,0.9 C107.6,0.9 107.5,0.7 107.5,0.6 C107.5,0.5 107.7,0.3 107.8,0.3 L108.1,0.3 C108.3,0.3 108.4,0.5 108.4,0.6 C108.4,0.7 108.3,0.9 108.1,0.9 Z" id="Path"></path>
                        </g>
                        <g transform="translate(76.000000, 58.000000)">
                            <rect id="Rectangle" fill="#FFFFFF" x="0.4" y="0.9" width="1.5" height="1.5"></rect>
                            <path d="M1.8,2.7 L0.3,2.7 C0.1,2.7 0,2.5 0,2.4 L0,0.9 C0,0.7 0.2,0.6 0.3,0.6 L1.8,0.6 C2,0.6 2.1,0.8 2.1,0.9 L2.1,2.4 C2.1,2.5 2,2.7 1.8,2.7 Z M0.7,2 L1.5,2 L1.5,1.2 L0.7,1.2 L0.7,2 Z" id="Shape" fill="#1A2E35"></path>
                        </g>
                    </g>
                    <g transform="translate(27.000000, 0.000000)" fill-rule="nonzero">
                        <g>
                            <path d="M22.9,1.1 L2.1,1.1 C1.6,1.1 1.2,1.5 1.2,2 L1.2,11.6 C1.2,12.1 1.6,12.5 2.1,12.5 L11.4,12.5 L12.5,16.3 L13.6,12.5 L22.9,12.5 C23.4,12.5 23.8,12.1 23.8,11.6 L23.8,2 C23.8,1.5 23.4,1.1 22.9,1.1 Z" id="Path" fill="#FFA981"></path>
                            <path d="M12.5,16.6 C12.3,16.6 12.3,16.5 12.2,16.4 L11.2,12.9 L2.1,12.9 C1.4,12.9 0.9,12.3 0.9,11.7 L0.9,2 C0.9,1.3 1.5,0.8 2.1,0.8 L22.9,0.8 C23.6,0.8 24.1,1.4 24.1,2 L24.1,11.6 C24.1,12.3 23.5,12.8 22.9,12.8 L13.8,12.8 L12.8,16.3 C12.8,16.5 12.7,16.6 12.5,16.6 Z M2.1,1.5 C1.8,1.5 1.5,1.7 1.5,2.1 L1.5,11.7 C1.5,12 1.7,12.3 2.1,12.3 L11.4,12.3 C11.6,12.3 11.6,12.4 11.7,12.5 L12.4,15.1 L13.1,12.5 C13.1,12.3 13.3,12.3 13.4,12.3 L22.7,12.3 C23,12.3 23.3,12.1 23.3,11.7 L23.3,2 C23.3,1.7 23.1,1.4 22.7,1.4 C22.9,1.5 2.1,1.5 2.1,1.5 Z" id="Shape" fill="#1A2E35"></path>
                        </g>
                        <g transform="translate(4.000000, 3.000000)" fill="#1A2E35" id="Path">
                            <path d="M16.4,1.5 L0.7,1.5 C0.4,1.5 2.84217094e-14,1.2 2.84217094e-14,0.8 C2.84217094e-14,0.5 0.3,0.1 0.7,0.1 L16.4,0.1 C16.7,0.1 17.1,0.4 17.1,0.8 C17,1.2 16.7,1.5 16.4,1.5 Z"></path>
                            <path d="M16.4,3.5 L0.7,3.5 C0.4,3.5 2.84217094e-14,3.2 2.84217094e-14,2.8 C2.84217094e-14,2.5 0.3,2.1 0.7,2.1 L16.4,2.1 C16.7,2.1 17.1,2.4 17.1,2.8 C17,3.1 16.7,3.5 16.4,3.5 Z"></path>
                            <path d="M16.4,5.4 L0.7,5.4 C0.4,5.4 2.84217094e-14,5.1 2.84217094e-14,4.7 C2.84217094e-14,4.4 0.3,4 0.7,4 L16.4,4 C16.7,4 17.1,4.3 17.1,4.7 C17,5.2 16.7,5.4 16.4,5.4 Z"></path>
                            <path d="M12.5,7.5 L0.7,7.5 C0.4,7.5 0,7.2 0,6.8 C0,6.5 0.3,6.1 0.7,6.1 L12.5,6.1 C12.8,6.1 13.2,6.4 13.2,6.8 C13.2,7.1 12.8,7.5 12.5,7.5 Z"></path>
                        </g>
                    </g>
                    <g transform="translate(18.000000, 102.000000)" fill-rule="nonzero">
                        <g fill="#1A2E35">
                            <rect id="Rectangle" x="0.8" y="0.8" width="22.6" height="14.1"></rect>
                            <path d="M23.5,15.2 L0.9,15.2 C0.7,15.2 0.6,15 0.6,14.9 L0.6,0.8 C0.6,0.6 0.8,0.5 0.9,0.5 L23.5,0.5 C23.7,0.5 23.8,0.7 23.8,0.8 L23.8,14.9 C23.8,15.1 23.6,15.2 23.5,15.2 Z M1.1,14.5 L23,14.5 L23,1.2 L1.1,1.2 L1.1,14.5 Z" id="Shape"></path>
                        </g>
                        <g>
                            <rect id="Rectangle" fill="#FFA981" x="0.8" y="0.8" width="22.6" height="2.1"></rect>
                            <path d="M23.5,3.3 L0.9,3.3 C0.7,3.3 0.6,3.1 0.6,3 L0.6,0.9 C0.6,0.7 0.8,0.6 0.9,0.6 L23.5,0.6 C23.7,0.6 23.8,0.8 23.8,0.9 L23.8,3 C23.8,3.1 23.6,3.3 23.5,3.3 Z M1.1,2.6 L23,2.6 L23,1.1 L1.1,1.1 L1.1,2.6 Z" id="Shape" fill="#1A2E35"></path>
                        </g>
                        <g transform="translate(2.000000, 4.000000)" fill="#FFFFFF" id="Path">
                            <path d="M6.9,1.1 L1.1,1.1 C0.9,1.1 0.8,0.9 0.8,0.8 C0.8,0.7 1,0.5 1.1,0.5 L6.9,0.5 C7.1,0.5 7.2,0.7 7.2,0.8 C7.2,0.9 7.1,1.1 6.9,1.1 Z"></path>
                            <path d="M14,2.7 L4,2.7 C3.8,2.7 3.7,2.5 3.7,2.4 C3.7,2.2 3.9,2.1 4,2.1 L14,2.1 C14.2,2.1 14.3,2.3 14.3,2.4 C14.3,2.5 14.2,2.7 14,2.7 Z"></path>
                            <path d="M5.7,4.2 L2.8,4.2 C2.6,4.2 2.5,4 2.5,3.9 C2.5,3.8 2.7,3.6 2.8,3.6 L5.7,3.6 C5.9,3.6 6,3.8 6,3.9 C6,4 5.8,4.2 5.7,4.2 Z"></path>
                            <path d="M10.7,5.9 L4,5.9 C3.8,5.9 3.7,5.7 3.7,5.6 C3.7,5.5 3.9,5.3 4,5.3 L10.7,5.3 C10.9,5.3 11,5.5 11,5.6 C11,5.7 10.9,5.9 10.7,5.9 Z"></path>
                            <path d="M6.9,7.5 L1.1,7.5 C0.9,7.5 0.8,7.3 0.8,7.2 C0.8,7.1 1,6.9 1.1,6.9 L6.9,6.9 C7.1,6.9 7.2,7.1 7.2,7.2 C7.2,7.4 7.1,7.5 6.9,7.5 Z"></path>
                        </g>
                    </g>
                    <g transform="translate(56.000000, 75.000000)" fill-rule="nonzero">
                        <path d="M21.3,2.1 L1.9,2.1 C1.7,2.1 1.6,1.9 1.6,1.8 C1.6,1.7 1.8,1.5 1.9,1.5 L21.3,1.5 C21.5,1.5 21.6,1.7 21.6,1.8 C21.6,1.9 21.5,2.1 21.3,2.1 Z" id="Path" fill="#1A2E35"></path>
                        <path d="M21.7,11 C21.5,11 21.4,10.8 21.4,10.7 C21.4,10.4 21.2,2.1 11.7,2.1 C2,2.1 2,10.4 2,10.7 C2,10.9 1.8,11 1.7,11 L1.7,11 C1.5,11 1.4,10.8 1.4,10.7 C1.4,10.6 1.5,1.4 11.8,1.4 C22.1,1.4 22.2,10.6 22.2,10.7 C22,10.9 21.9,11 21.7,11 L21.7,11 Z" id="Path" fill="#1A2E35"></path>
                        <g transform="translate(20.000000, 9.000000)">
                            <circle id="Oval" fill="#FFA981" cx="1.7" cy="1.7" r="1"></circle>
                            <path d="M1.7,2.8 C1,2.8 0.6,2.3 0.6,1.7 C0.6,1 1.1,0.6 1.7,0.6 C2.3,0.6 2.8,1.1 2.8,1.7 C2.8,2.4 2.3,2.8 1.7,2.8 Z M1.7,1.1 C1.5,1.1 1.2,1.3 1.2,1.6 C1.2,1.8 1.4,2.1 1.7,2.1 C1.9,2.1 2.2,1.9 2.2,1.6 C2.1,1.4 2,1.1 1.7,1.1 Z" id="Shape" fill="#1A2E35"></path>
                        </g>
                        <g transform="translate(0.000000, 9.000000)">
                            <path d="M0.7,1.7 C0.7,1.2 1.1,0.9 1.5,0.9 C2,0.9 2.3,1.3 2.3,1.7 C2.3,2.1 1.9,2.5 1.5,2.5 C1,2.5 0.7,2.1 0.7,1.7 Z" id="Path" fill="#FFA981"></path>
                            <path d="M1.5,2.8 C0.8,2.8 0.4,2.3 0.4,1.7 C0.4,1 0.9,0.6 1.5,0.6 C2.2,0.6 2.6,1.1 2.6,1.7 C2.7,2.4 2.2,2.8 1.5,2.8 Z M1.5,1.1 C1.3,1.1 1,1.3 1,1.6 C1,1.8 1.2,2.1 1.5,2.1 C1.8,2.1 2,1.9 2,1.6 C2,1.4 1.8,1.1 1.5,1.1 Z" id="Shape" fill="#1A2E35"></path>
                        </g>
                        <g>
                            <g transform="translate(20.000000, 0.000000)">
                                <rect id="Rectangle" fill="#FFA981" x="1" y="1" width="1.5" height="1.5"></rect>
                                <path d="M2.4,2.8 L0.9,2.8 C0.7,2.8 0.6,2.6 0.6,2.5 L0.6,1 C0.6,0.8 0.8,0.7 0.9,0.7 L2.4,0.7 C2.6,0.7 2.7,0.9 2.7,1 L2.7,2.5 C2.7,2.7 2.6,2.8 2.4,2.8 Z M1.2,2.1 L2,2.1 L2,1.3 L1.2,1.3 L1.2,2.1 Z" id="Shape" fill="#1A2E35"></path>
                            </g>
                            <g transform="translate(10.000000, 0.000000)">
                                <rect id="Rectangle" fill="#FFA981" x="0.9" y="1" width="1.5" height="1.5"></rect>
                                <path d="M2.3,2.8 L0.8,2.8 C0.6,2.8 0.5,2.6 0.5,2.5 L0.5,1 C0.5,0.8 0.7,0.7 0.8,0.7 L2.3,0.7 C2.5,0.7 2.6,0.9 2.6,1 L2.6,2.5 C2.7,2.7 2.6,2.8 2.3,2.8 Z M1.2,2.1 L2,2.1 L2,1.3 L1.2,1.3 L1.2,2.1 Z" id="Shape" fill="#1A2E35"></path>
                            </g>
                            <g>
                                <rect id="Rectangle" fill="#FFA981" x="0.8" y="1" width="1.5" height="1.5"></rect>
                                <path d="M2.3,2.8 L0.8,2.8 C0.6,2.8 0.5,2.6 0.5,2.5 L0.5,1 C0.5,0.8 0.7,0.7 0.8,0.7 L2.3,0.7 C2.5,0.7 2.6,0.9 2.6,1 L2.6,2.5 C2.6,2.7 2.4,2.8 2.3,2.8 Z M1.1,2.1 L1.9,2.1 L1.9,1.3 L1.1,1.3 L1.1,2.1 Z" id="Shape" fill="#1A2E35"></path>
                            </g>
                        </g>
                    </g>
                    <g transform="translate(8.000000, 40.000000)" fill-rule="nonzero" id="Shape">
                        <path d="M16.9,9.9 L16.9,7 L14.7,6.8 C14.5,6.3 14.4,5.9 14.1,5.5 L15.6,3.8 L13.5,1.7 L11.8,3.1 C11.4,2.9 10.9,2.7 10.5,2.5 L10.3,0.3 L7.4,0.3 L7.2,2.5 C6.7,2.7 6.3,2.8 5.9,3.1 L4.2,1.7 L2.1,3.8 L3.6,5.5 C3.4,5.9 3.2,6.3 3,6.8 L0.8,7 L0.8,9.9 L3,10.1 C3.2,10.6 3.3,11 3.6,11.4 L2.1,13.1 L4.2,15.2 L5.9,13.8 C6.3,14 6.8,14.2 7.2,14.4 L7.4,16.6 L10.3,16.6 L10.5,14.4 C11,14.2 11.4,14.1 11.8,13.8 L13.5,15.2 L15.6,13.1 L14.1,11.4 C14.3,11 14.5,10.6 14.7,10.1 L16.9,9.9 Z M8.7,11.9 C6.8,11.9 5.3,10.3 5.3,8.5 C5.3,6.7 6.9,5.1 8.7,5.1 C10.5,5.1 12.1,6.7 12.1,8.5 C12.1,10.3 10.5,11.9 8.7,11.9 Z" fill="#FFA981"></path>
                        <path d="M10.1,16.9 L7.2,16.9 C7,16.9 6.9,16.7 6.9,16.6 L6.7,14.6 C6.4,14.5 6,14.4 5.7,14.2 L4.1,15.5 C3.9,15.6 3.8,15.6 3.7,15.5 L1.6,13.4 C1.5,13.3 1.4,13.1 1.6,13 L2.9,11.4 C2.7,11.1 2.6,10.7 2.5,10.4 L0.5,10.2 C0.3,10.2 0.2,10 0.2,9.9 L0.2,7 C0.2,6.8 0.4,6.7 0.5,6.7 L2.5,6.5 C2.6,6.2 2.7,5.8 2.9,5.5 L1.6,3.9 C1.5,3.7 1.5,3.6 1.6,3.5 L3.7,1.4 C3.8,1.3 4,1.2 4.1,1.4 L5.7,2.7 C6,2.5 6.4,2.4 6.7,2.3 L6.9,0.3 C6.9,0.1 7.1,0 7.2,0 L10.1,0 C10.3,0 10.4,0.2 10.4,0.3 L10.6,2.3 C10.9,2.4 11.3,2.5 11.6,2.7 L13.2,1.4 C13.4,1.3 13.5,1.3 13.6,1.4 L15.7,3.5 C15.8,3.6 15.9,3.8 15.7,3.9 L14.4,5.5 C14.6,5.8 14.7,6.2 14.8,6.5 L16.8,6.7 C17,6.7 17.1,6.9 17.1,7 L17.1,9.9 C17.1,10.1 16.9,10.2 16.8,10.2 L14.8,10.4 C14.7,10.7 14.6,11.1 14.4,11.4 L15.7,13 C15.8,13.2 15.8,13.3 15.7,13.4 L13.6,15.5 C13.5,15.6 13.3,15.7 13.2,15.5 L11.6,14.2 C11.3,14.4 10.9,14.5 10.6,14.6 L10.4,16.6 C10.5,16.7 10.3,16.9 10.1,16.9 Z M7.4,16.2 L9.8,16.2 L10,14.3 C10,14.1 10.1,14.1 10.2,14 C10.6,13.8 11.1,13.7 11.4,13.5 C11.5,13.4 11.6,13.4 11.8,13.5 L13.3,14.7 L14.9,13.1 L13.7,11.6 C13.6,11.5 13.6,11.4 13.7,11.2 C13.9,10.8 14.1,10.4 14.2,10 C14.2,9.8 14.4,9.8 14.5,9.8 L16.5,9.6 L16.5,7.2 L14.5,7 C14.3,7 14.3,6.9 14.2,6.8 C14,6.4 13.9,5.9 13.7,5.6 C13.6,5.5 13.6,5.4 13.7,5.2 L14.9,3.7 L13.3,2.1 L11.8,3.3 C11.7,3.4 11.6,3.4 11.4,3.3 C11,3.1 10.6,2.9 10.2,2.8 C10,2.8 10,2.6 10,2.5 L9.8,0.6 L7.4,0.6 L7.2,2.5 C7.2,2.7 7.1,2.7 7,2.8 C6.6,3 6.1,3.1 5.8,3.3 C5.7,3.4 5.6,3.4 5.4,3.3 L3.9,2.1 L2.3,3.7 L3.5,5.2 C3.6,5.3 3.6,5.4 3.5,5.6 C3.3,6 3.1,6.4 3,6.8 C3,7 2.8,7 2.7,7 L0.7,7.2 L0.7,9.6 L2.7,9.8 C2.9,9.8 2.9,9.9 3,10 C3.2,10.4 3.3,10.9 3.5,11.2 C3.6,11.3 3.6,11.4 3.5,11.6 L2.3,13.1 L3.9,14.7 L5.4,13.5 C5.5,13.4 5.6,13.4 5.8,13.5 C6.2,13.7 6.6,13.9 7,14 C7.2,14 7.2,14.2 7.2,14.3 L7.4,16.2 Z M8.7,12.2 C6.6,12.2 4.9,10.5 4.9,8.4 C4.9,6.3 6.6,4.6 8.7,4.6 C10.8,4.6 12.5,6.3 12.5,8.4 C12.5,10.5 10.7,12.2 8.7,12.2 Z M8.7,5.3 C7,5.3 5.6,6.7 5.6,8.4 C5.6,10.1 7,11.5 8.7,11.5 C10.4,11.5 11.8,10.1 11.8,8.4 C11.8,6.7 10.4,5.3 8.7,5.3 Z" fill="#1A2E35"></path>
                    </g>
                    <g transform="translate(23.000000, 49.000000)" fill-rule="nonzero" id="Shape">
                        <path d="M11.9,7.6 L11.9,5.6 L10.3,5.4 C10.2,5.1 10.1,4.7 9.9,4.5 L10.9,3.4 L9.4,2 L8.3,3 C8.1,2.8 7.7,2.8 7.4,2.6 L7.2,1.1 L5.2,1.1 L5,2.6 C4.7,2.7 4.3,2.8 4.1,3 L3,2 L1.5,3.4 L2.5,4.5 C2.3,4.7 2.2,5.1 2.1,5.4 L0.5,5.6 L0.5,7.6 L2.1,7.8 C2.2,8.1 2.3,8.5 2.5,8.7 L1.5,9.8 L3,11.2 L4.1,10.2 C4.3,10.4 4.7,10.4 5,10.6 L5.2,12.1 L7.2,12.1 L7.4,10.6 C7.7,10.5 8.1,10.4 8.3,10.2 L9.4,11.2 L10.9,9.8 L9.9,8.7 C10.1,8.5 10.2,8.1 10.3,7.8 L11.9,7.6 Z M6.4,8.9 C5.1,8.9 4,7.8 4,6.5 C4,5.2 5.1,4.1 6.4,4.1 C7.7,4.1 8.8,5.2 8.8,6.5 C8.7,7.8 7.7,8.9 6.4,8.9 Z" fill="#FFA981"></path>
                        <path d="M7.3,12.4 L5.3,12.4 C5.1,12.4 5,12.2 5,12.1 L4.9,10.8 C4.7,10.7 4.5,10.6 4.3,10.6 L3.3,11.4 C3.1,11.5 3,11.5 2.9,11.4 L1.4,10 C1.3,9.9 1.2,9.7 1.4,9.6 L2.2,8.6 C2.1,8.4 2,8.3 2,8 L0.7,7.9 C0.5,7.9 0.4,7.7 0.4,7.6 L0.4,5.6 C0.4,5.4 0.6,5.3 0.7,5.3 L2,5.2 C2.1,5 2.2,4.8 2.2,4.6 L1.4,3.6 C1.3,3.4 1.3,3.3 1.4,3.2 L2.9,1.8 C3,1.7 3.2,1.6 3.3,1.8 L4.3,2.6 C4.5,2.5 4.7,2.4 4.9,2.4 L5,1.1 C5,0.9 5.2,0.8 5.3,0.8 L7.3,0.8 C7.5,0.8 7.6,1 7.6,1.1 L7.7,2.4 C7.9,2.5 8.1,2.6 8.3,2.6 L9.3,1.8 C9.5,1.7 9.6,1.7 9.7,1.8 L11.2,3.2 C11.3,3.3 11.4,3.5 11.2,3.6 L10.4,4.6 C10.5,4.8 10.6,4.9 10.6,5.2 L11.9,5.3 C12.1,5.3 12.2,5.5 12.2,5.6 L12.2,7.6 C12.2,7.8 12,7.9 11.9,7.9 L10.6,8 C10.5,8.2 10.4,8.4 10.4,8.6 L11.2,9.6 C11.3,9.8 11.3,9.9 11.2,10 L9.7,11.4 C9.6,11.5 9.4,11.6 9.3,11.4 L8.3,10.6 C8.1,10.7 7.9,10.8 7.7,10.8 L7.6,12.1 C7.7,12.2 7.5,12.4 7.3,12.4 Z M5.6,11.7 L7.1,11.7 L7.2,10.5 C7.2,10.3 7.3,10.3 7.4,10.2 C7.7,10.1 8,10 8.2,9.9 C8.3,9.8 8.4,9.8 8.6,9.9 L9.6,10.7 L10.6,9.7 L9.8,8.8 C9.7,8.7 9.7,8.6 9.8,8.4 C10,8.2 10,7.8 10.1,7.6 C10.1,7.4 10.3,7.4 10.4,7.4 L11.6,7.3 L11.6,5.9 L10.4,5.8 C10.2,5.8 10.2,5.7 10.1,5.6 C10,5.3 9.9,5 9.8,4.8 C9.7,4.7 9.7,4.6 9.8,4.4 L10.6,3.5 L9.6,2.5 L8.6,3.3 C8.5,3.4 8.4,3.4 8.2,3.3 C8,3.1 7.6,3.1 7.4,3 C7.2,3 7.2,2.8 7.2,2.7 L7.1,1.5 L5.6,1.5 L5.5,2.7 C5.5,2.9 5.4,2.9 5.3,3 C5,3.1 4.7,3.2 4.5,3.3 C4.4,3.4 4.3,3.4 4.1,3.3 L3.1,2.5 L2.1,3.5 L2.9,4.4 C3,4.5 3,4.6 2.9,4.8 C2.7,5 2.7,5.4 2.6,5.6 C2.6,5.8 2.4,5.8 2.3,5.8 L1.1,5.9 L1.1,7.3 L2.3,7.4 C2.5,7.4 2.5,7.5 2.6,7.6 C2.7,7.9 2.8,8.2 2.9,8.4 C3,8.5 3,8.6 2.9,8.8 L2.1,9.7 L3.1,10.7 L4.1,9.9 C4.2,9.8 4.3,9.8 4.5,9.9 C4.7,10.1 5.1,10.1 5.3,10.2 C5.5,10.2 5.5,10.4 5.5,10.5 L5.6,11.7 Z M6.4,9.2 C4.9,9.2 3.7,8 3.7,6.5 C3.7,5 4.9,3.8 6.4,3.8 C7.9,3.8 9.1,5 9.1,6.5 C9.1,8 7.8,9.2 6.4,9.2 Z M6.4,4.5 C5.3,4.5 4.4,5.4 4.4,6.5 C4.4,7.6 5.3,8.5 6.4,8.5 C7.5,8.5 8.4,7.6 8.4,6.5 C8.4,5.4 7.5,4.5 6.4,4.5 Z" fill="#1A2E35"></path>
                    </g>
                    <g transform="translate(86.000000, 94.000000)" fill="#1A2E35" fill-rule="nonzero" id="Path">
                        <path d="M17.6,2.2 L1.3,2.2 C1,2.2 0.6,1.9 0.6,1.5 C0.6,1.1 0.9,0.8 1.3,0.8 L17.6,0.8 C17.9,0.8 18.3,1.1 18.3,1.5 C18.3,1.9 17.9,2.2 17.6,2.2 Z"></path>
                        <path d="M17.6,4.8 L1.3,4.8 C1,4.8 0.6,4.5 0.6,4.1 C0.6,3.7 0.9,3.4 1.3,3.4 L17.6,3.4 C17.9,3.4 18.3,3.7 18.3,4.1 C18.3,4.5 17.9,4.8 17.6,4.8 Z"></path>
                        <path d="M10.6,7.4 L1.3,7.4 C1,7.4 0.6,7.1 0.6,6.7 C0.6,6.4 0.9,6 1.3,6 L10.6,6 C10.9,6 11.3,6.3 11.3,6.7 C11.2,7.1 11,7.4 10.6,7.4 Z"></path>
                    </g>
                    <g transform="translate(54.000000, 97.000000)" fill-rule="nonzero">
                        <path d="M11.8,4.8 L3.2,4.8 C2.1,4.8 1.1,3.9 1.1,2.7 L1.1,2.7 C1.1,1.6 2.1,0.6 3.2,0.6 L11.8,0.6 C12.9,0.6 13.9,1.5 13.9,2.7 L13.9,2.7 C13.9,3.9 12.9,4.8 11.8,4.8 Z" id="Path" fill="#FFA981"></path>
                        <path d="M11.8,5.2 L3.2,5.2 C1.9,5.2 0.7,4.1 0.7,2.7 C0.7,1.4 1.8,0.2 3.2,0.2 L11.8,0.2 C13.1,0.2 14.3,1.3 14.3,2.7 C14.3,4.1 13.1,5.2 11.8,5.2 Z M3.2,1 C2.2,1 1.4,1.8 1.4,2.8 C1.4,3.8 2.2,4.6 3.2,4.6 L11.8,4.6 C12.8,4.6 13.6,3.8 13.6,2.8 C13.6,1.8 12.8,1 11.8,1 L3.2,1 Z" id="Shape" fill="#1A2E35"></path>
                    </g>
                    <g transform="translate(70.000000, 97.000000)" fill-rule="nonzero">
                        <path d="M11.8,4.8 L3.2,4.8 C2.1,4.8 1.1,3.9 1.1,2.7 L1.1,2.7 C1.1,1.6 2.1,0.6 3.2,0.6 L11.8,0.6 C12.9,0.6 13.9,1.5 13.9,2.7 L13.9,2.7 C13.9,3.9 13,4.8 11.8,4.8 Z" id="Path" fill="#FFA981"></path>
                        <path d="M11.8,5.2 L3.2,5.2 C1.9,5.2 0.7,4.1 0.7,2.7 C0.7,1.4 1.8,0.2 3.2,0.2 L11.8,0.2 C13.1,0.2 14.3,1.3 14.3,2.7 C14.3,4.1 13.1,5.2 11.8,5.2 Z M3.2,1 C2.2,1 1.4,1.8 1.4,2.8 C1.4,3.8 2.2,4.6 3.2,4.6 L11.8,4.6 C12.8,4.6 13.6,3.8 13.6,2.8 C13.6,1.8 12.8,1 11.8,1 L3.2,1 Z" id="Shape" fill="#1A2E35"></path>
                    </g>
                    <g transform="translate(88.000000, 56.000000)">
                        <g fill-rule="nonzero">
                            <rect id="Rectangle" fill="#FFFFFF" x="0.5" y="1" width="18.3" height="18.1"></rect>
                            <path d="M18.7,19.4 L0.4,19.4 C0.2,19.4 0.1,19.2 0.1,19.1 L0.1,1 C0.1,0.8 0.3,0.7 0.4,0.7 L18.7,0.7 C18.9,0.7 19,0.9 19,1 L19,19.1 C19,19.3 18.9,19.4 18.7,19.4 Z M0.8,18.7 L18.4,18.7 L18.4,1.3 L0.8,1.3 L0.8,18.7 L0.8,18.7 Z" id="Shape" fill="#1A2E35"></path>
                        </g>
                        <g id="Path">
                            <line x1="0.5" y1="1" x2="18.7" y2="19.1"></line>
                            <path d="M18.7,19.4 C18.6,19.4 18.5,19.4 18.5,19.3 L0.2,1.2 C0,1 0,0.9 0.2,0.7 C0.4,0.5 0.5,0.5 0.7,0.7 L19,18.8 C19.2,19 19.2,19.1 19,19.3 C18.9,19.4 18.8,19.4 18.7,19.4 Z" fill="#1A2E35" fill-rule="nonzero"></path>
                        </g>
                        <g id="Path">
                            <line x1="18.7" y1="1" x2="0.5" y2="19.1"></line>
                            <path d="M0.5,19.4 C0.4,19.4 0.3,19.4 0.3,19.3 C0.1,19.1 0.1,19 0.3,18.8 L18.6,0.7 C18.8,0.5 18.9,0.5 19.1,0.7 C19.3,0.9 19.3,1 19.1,1.2 L0.8,19.3 C0.6,19.4 0.5,19.4 0.5,19.4 Z" fill="#1A2E35" fill-rule="nonzero"></path>
                        </g>
                    </g>
                    <g transform="translate(103.000000, 45.000000)" fill-rule="nonzero">
                        <g fill="#1A2E35">
                            <rect id="Rectangle" x="0.9" y="1.3" width="22.6" height="14.1"></rect>
                            <path d="M23.5,15.6 L0.9,15.6 C0.7,15.6 0.6,15.4 0.6,15.3 L0.6,1.2 C0.6,1 0.8,0.9 0.9,0.9 L23.5,0.9 C23.7,0.9 23.8,1.1 23.8,1.2 L23.8,15.3 C23.8,15.6 23.6,15.6 23.5,15.6 Z M1.2,15 L23.1,15 L23.1,1.7 L1.2,1.7 L1.2,15 Z" id="Shape"></path>
                        </g>
                        <g transform="translate(0.000000, 1.000000)">
                            <rect id="Rectangle" fill="#FFA981" x="0.9" y="0.3" width="22.6" height="2.1"></rect>
                            <path d="M23.5,2.8 L0.9,2.8 C0.7,2.8 0.6,2.6 0.6,2.5 L0.6,0.4 C0.6,0.2 0.8,0.1 0.9,0.1 L23.5,0.1 C23.7,0.1 23.8,0.3 23.8,0.4 L23.8,2.5 C23.8,2.6 23.6,2.8 23.5,2.8 Z M1.2,2.1 L23.1,2.1 L23.1,0.6 L1.2,0.6 L1.2,2.1 Z" id="Shape" fill="#1A2E35"></path>
                        </g>
                        <g transform="translate(2.000000, 4.000000)" fill="#FFFFFF" id="Path">
                            <path d="M7,1.6 L1.2,1.6 C1,1.6 0.9,1.4 0.9,1.3 C0.9,1.2 1.1,1 1.2,1 L7,1 C7.2,1 7.3,1.2 7.3,1.3 C7.3,1.4 7.1,1.6 7,1.6 Z"></path>
                            <path d="M14.1,3.2 L4.1,3.2 C3.9,3.2 3.8,3 3.8,2.9 C3.8,2.8 4,2.6 4.1,2.6 L14.1,2.6 C14.3,2.6 14.4,2.8 14.4,2.9 C14.4,3.1 14.2,3.2 14.1,3.2 Z"></path>
                            <path d="M5.7,4.7 L2.8,4.7 C2.6,4.7 2.5,4.5 2.5,4.4 C2.5,4.3 2.7,4.1 2.8,4.1 L5.7,4.1 C5.9,4.1 6,4.3 6,4.4 C6,4.5 5.9,4.7 5.7,4.7 Z"></path>
                            <path d="M10.8,6.4 L4.1,6.4 C3.9,6.4 3.8,6.2 3.8,6.1 C3.8,6 4,5.8 4.1,5.8 L10.8,5.8 C11,5.8 11.1,6 11.1,6.1 C11.1,6.2 11,6.4 10.8,6.4 Z"></path>
                            <path d="M7,8 L1.2,8 C1,8 0.9,7.8 0.9,7.7 C0.9,7.6 1.1,7.4 1.2,7.4 L7,7.4 C7.2,7.4 7.3,7.6 7.3,7.7 C7.3,7.8 7.1,8 7,8 Z"></path>
                        </g>
                    </g>
                    <g transform="translate(89.000000, 36.000000)" fill-rule="nonzero">
                        <g>
                            <polygon id="Path" fill="#FFFFFF" points="6.6 0.6 6.6 4.8 4.7 6.6 0.4 6.6 0.4 0.6"></polygon>
                            <path d="M4.7,7 L0.4,7 C0.2,7 0.1,6.8 0.1,6.7 L0.1,0.6 C0.1,0.4 0.3,0.3 0.4,0.3 L6.5,0.3 C6.7,0.3 6.8,0.5 6.8,0.6 L6.8,4.8 C6.8,4.9 6.8,5 6.7,5 L4.8,6.9 C4.9,6.9 4.8,7 4.7,7 Z M0.8,6.3 L4.6,6.3 L6.3,4.7 L6.3,0.9 L0.8,0.9 L0.8,6.3 L0.8,6.3 Z" id="Shape" fill="#1A2E35"></path>
                        </g>
                        <g transform="translate(4.000000, 4.000000)">
                            <polygon id="Path" fill="#FFFFFF" points="2.6 0.8 0.7 2.6 0.7 0.8"></polygon>
                            <path d="M0.7,3 C0.6,3 0.6,3 0.5,3 C0.3,2.9 0.3,2.8 0.3,2.7 L0.3,0.8 C0.3,0.6 0.5,0.5 0.6,0.5 L2.5,0.5 C2.7,0.5 2.7,0.6 2.8,0.7 C2.9,0.9 2.8,0.9 2.7,1 L0.8,2.9 C0.9,2.9 0.8,3 0.7,3 Z M1,1.1 L1,1.8 L1.7,1.1 L1,1.1 Z" id="Shape" fill="#1A2E35"></path>
                        </g>
                    </g>
                    <g transform="translate(23.000000, 68.000000)" fill-rule="nonzero">
                        <g>
                            <polygon id="Path" fill="#FFFFFF" points="7.4 1.2 7.4 5.3 5.5 7.2 1.4 7.2 1.4 1.2"></polygon>
                            <path d="M5.5,7.6 L1.2,7.6 C1,7.6 0.9,7.4 0.9,7.3 L0.9,1.2 C0.9,1 1.1,0.9 1.2,0.9 L7.3,0.9 C7.5,0.9 7.6,1.1 7.6,1.2 L7.6,5.4 C7.6,5.5 7.6,5.6 7.5,5.6 L5.6,7.5 C5.8,7.5 5.7,7.6 5.5,7.6 Z M1.7,6.9 L5.5,6.9 L7.2,5.3 L7.2,1.5 L1.7,1.5 L1.7,6.9 Z" id="Shape" fill="#1A2E35"></path>
                        </g>
                        <g transform="translate(5.000000, 5.000000)">
                            <polygon id="Path" fill="#FFFFFF" points="2.4 0.3 0.5 2.2 0.5 0.3"></polygon>
                            <path d="M0.5,2.6 C0.4,2.6 0.4,2.6 0.3,2.6 C0.1,2.5 0.1,2.4 0.1,2.3 L0.1,0.4 C0.1,0.2 0.3,0.1 0.4,0.1 L2.3,0.1 C2.5,0.1 2.5,0.2 2.6,0.3 C2.7,0.5 2.6,0.5 2.5,0.6 L0.6,2.6 C0.8,2.5 0.7,2.6 0.5,2.6 Z M0.9,0.7 L0.9,1.4 L1.6,0.7 L0.9,0.7 Z" id="Shape" fill="#1A2E35"></path>
                        </g>
                    </g>
                    <g transform="translate(0.000000, 94.000000)" fill-rule="nonzero">
                        <g>
                            <polygon id="Path" fill="#FFFFFF" points="7.3 1.1 7.3 5.3 5.4 7.2 1.2 7.2 1.2 1.1"></polygon>
                            <path d="M5.4,7.5 L1.1,7.5 C0.9,7.5 0.8,7.3 0.8,7.2 L0.8,1.1 C0.8,0.9 1,0.8 1.1,0.8 L7.2,0.8 C7.4,0.8 7.5,1 7.5,1.1 L7.5,5.3 C7.5,5.4 7.5,5.5 7.4,5.5 L5.5,7.4 C5.6,7.4 5.5,7.5 5.4,7.5 Z M1.5,6.8 L5.3,6.8 L7,5.2 L7,1.4 L1.5,1.4 L1.5,6.8 L1.5,6.8 Z" id="Shape" fill="#1A2E35"></path>
                        </g>
                        <g transform="translate(5.000000, 5.000000)">
                            <polygon id="Path" fill="#FFFFFF" points="2.3 0.3 0.4 2.2 0.4 0.3"></polygon>
                            <path d="M0.4,2.5 C0.3,2.5 0.3,2.5 0.2,2.5 C2.84217094e-14,2.4 2.84217094e-14,2.3 2.84217094e-14,2.2 L2.84217094e-14,0.3 C2.84217094e-14,0.1 0.2,-2.84217094e-14 0.3,-2.84217094e-14 L2.2,-2.84217094e-14 C2.4,-2.84217094e-14 2.4,0.1 2.5,0.2 C2.6,0.4 2.5,0.4 2.4,0.5 L0.5,2.4 C0.6,2.4 0.5,2.5 0.4,2.5 Z M0.8,0.6 L0.8,1.3 L1.5,0.6 L0.8,0.6 Z" id="Shape" fill="#1A2E35"></path>
                        </g>
                    </g>
                </g>
                <g transform="translate(40.000000, 34.000000)" fill-rule="nonzero">
                    <g transform="translate(38.000000, 24.000000)">
                        <path d="M9,11.4 C6.8,11.6 3.9,8.9 3.9,8.9 C3.9,8.9 3.5,9.3 3.1,8.8 C2.8,8.3 1.1,7.1 1.1,6 C1,4.9 2.9,3.3 2.9,3.3 C1.5,3.7 1.3,2.9 1.3,2.9 C1.3,2.9 3.7,0.9 4.6,0.9 C4.9,0.9 6.4,1.7 7.7,2.8 C9.2,3.9 11.9,8 11.9,8 C11.9,8 21.1,14.6 23.4,16.4 C26.5,18.6 30.1,22.6 30.1,22.6 C30.1,22.6 42.3,28.1 45.7,31 L41.1,41.7 C41.1,41.7 30,34.3 28.9,32.4 C27.8,30.5 26.7,31.7 25.5,30.4 C24.4,29.2 23.3,27.8 23.3,27.8 C23.3,27.8 20.6,26.7 18,24 C15.4,21.4 13.1,17.3 11.7,14.9 C10.4,12.6 9,11.4 9,11.4 Z" id="Path" fill="#FFFFFF"></path>
                        <path d="M41.1,42 C41,42 40.9,42 40.9,41.9 C40.4,41.6 29.7,34.4 28.5,32.6 C27.9,31.7 27.4,31.6 26.9,31.5 C26.4,31.4 25.8,31.3 25.3,30.7 C24.3,29.6 23.4,28.4 23.2,28.2 C22.7,28 20.3,26.8 17.9,24.4 C15.5,21.9 13.3,18.3 11.9,15.9 L11.5,15.2 C10.4,13.2 9.2,12.1 8.9,11.8 C6.9,11.9 4.6,10 3.9,9.4 C3.8,9.5 3.7,9.5 3.5,9.5 C3.3,9.5 3.1,9.4 2.8,9.1 C2.7,8.9 2.5,8.8 2.3,8.5 C1.6,7.8 0.8,7 0.7,6.1 C0.6,5.4 1.4,4.4 1.9,3.8 C1.7,3.8 1.5,3.7 1.3,3.6 C1,3.4 0.9,3 0.9,2.9 C0.9,2.8 0.9,2.7 1,2.6 C1.4,2.3 3.5,0.6 4.4,0.5 C4.9,0.4 6.5,1.5 7.8,2.5 C9.2,3.6 11.6,7.2 12,7.7 C12.7,8.2 21.3,14.3 23.5,16 C26.4,18.1 29.8,21.7 30.2,22.2 C31.3,22.7 42.6,27.8 45.8,30.7 C45.9,30.8 46,30.9 45.9,31.1 L41.3,41.8 C41.4,41.9 41.3,41.9 41.1,42 C41.2,42 41.1,42 41.1,42 Z M9,11.1 C9.1,11.1 9.2,11.1 9.2,11.2 C9.3,11.3 10.6,12.4 12.1,14.9 L12.5,15.6 C13.9,18 16,21.6 18.4,24 C20.9,26.5 23.6,27.8 23.6,27.8 C23.7,27.8 23.7,27.9 23.8,27.9 C23.8,27.9 24.9,29.3 25.9,30.5 C26.3,31 26.7,31 27.2,31.1 C27.9,31.2 28.6,31.3 29.3,32.5 C30.1,33.9 37.8,39.2 41.1,41.4 L45.4,31.2 C41.9,28.3 30.2,23 30.1,22.9 C30,22.9 30,22.8 30,22.8 C30,22.8 26.3,18.8 23.4,16.7 C21.1,15 11.9,8.3 11.9,8.3 L11.8,8.2 C11.8,8.2 9.1,4.2 7.7,3 C6.2,1.9 5,1.2 4.8,1.2 C4.3,1.2 2.9,2.2 1.9,3 C1.9,3 1.9,3 2,3.1 C2.2,3.2 2.4,3.3 3,3.1 C3.2,3 3.3,3.1 3.4,3.3 C3.5,3.5 3.5,3.6 3.3,3.7 C2.6,4.3 1.6,5.5 1.7,6.2 C1.8,6.9 2.5,7.6 3.1,8.2 C3.3,8.4 3.6,8.7 3.7,8.9 C3.7,9 3.8,9 3.9,9 C4,9 4.1,8.9 4.1,8.9 C4.3,8.8 4.4,8.8 4.6,8.9 C4.2,8.7 6.9,11.2 9,11.1 L9,11.1 Z" id="Shape" fill="#1A2E35"></path>
                    </g>
                    <g transform="translate(40.000000, 27.000000)" id="Path">
                        <path d="M7.7,6.9 C7.7,6.9 4.4,6.1 4.1,4 C4,3.3 3.4,2.4 3.4,2.4 C3.4,2.4 0.3,2.2 0.5,1 L4.6,0.7 C4.6,0.7 6.9,1.4 8.2,3.7" fill="#FFFFFF"></path>
                        <path d="M7.7,7.2 C7.6,7.2 7.6,7.2 7.7,7.2 C7.5,7.1 4.1,6.3 3.8,3.9 C3.7,3.4 3.4,2.9 3.2,2.7 C2.6,2.6 1,2.5 0.3,1.7 C0.1,1.5 0.1,1.2 0.1,0.9 C0.1,0.7 0.3,0.7 0.4,0.7 L4.5,0.4 C4.6,0.4 4.6,0.4 4.7,0.4 C4.8,0.4 7.1,1.2 8.5,3.5 C8.6,3.7 8.5,3.8 8.4,4 C8.2,4.1 8.1,4 7.9,3.9 C6.8,1.9 4.9,1.2 4.5,1 L0.8,1.3 L0.8,1.3 C1.2,1.8 2.5,2 3.3,2 C3.4,2 3.5,2.1 3.5,2.2 C3.5,2.2 4.2,3.1 4.2,3.8 C4.4,5.7 7.6,6.5 7.6,6.5 C7.8,6.6 7.8,6.7 7.8,6.9 C7.8,7.1 7.9,7.2 7.7,7.2 Z" fill="#1A2E35"></path>
                    </g>
                    <path d="M42,33.3 C41.9,33.3 41.8,33.3 41.8,33.2 C41.6,33.1 41.6,32.9 41.7,32.7 C41.7,32.7 41.9,32.5 41.8,32 C41.8,31.8 41.9,31.7 42,31.7 C42.1,31.7 42.6,31.5 42.6,31.1 C42.6,31 42.6,30.9 42.7,30.9 C42.8,30.8 42.9,30.8 42.9,30.7 C42.9,30.7 43.2,30.6 43.3,30.5 C43.4,30.3 43.3,29.9 43.1,29.5 C43,29.3 43.1,29.2 43.3,29.1 C43.5,29 43.6,29.1 43.7,29.3 C44,30 44.1,30.4 43.9,30.9 C43.7,31.2 43.5,31.4 43.2,31.5 C43.1,32 42.8,32.3 42.4,32.5 C42.4,33 42.2,33.3 42.2,33.3 C42.1,33.2 42,33.3 42,33.3 Z" id="Path" fill="#1A2E35"></path>
                    <path d="M42.9,31.4 C42.8,31.4 42.7,31.4 42.7,31.3 C42.4,31.1 40.8,29.9 40.6,29.2 C40.5,29 40.6,28.9 40.8,28.8 C41,28.7 41.1,28.8 41.2,29 C41.3,29.3 42.3,30.1 43.1,30.8 C43.3,30.9 43.3,31.1 43.2,31.3 C43.1,31.4 43,31.4 42.9,31.4 Z" id="Path" fill="#1A2E35"></path>
                    <path d="M42,32.4 C41.9,32.4 41.9,32.4 41.8,32.3 C41.3,32 39.8,31 39.7,30.2 C39.7,30 39.9,29.9 40,29.9 C40.1,29.9 40.3,30.1 40.3,30.2 C40.3,30.5 41.3,31.3 42.1,31.8 C42.3,31.9 42.3,32.1 42.2,32.3 C42.3,32.4 42.2,32.4 42,32.4 Z" id="Path" fill="#1A2E35"></path>
                    <path d="M40.9,27.7 C40.7,27.7 40.6,27.6 40.6,27.5 C40.6,27.4 40.7,27.2 40.8,27.1 C41.7,26.9 42.2,26 42.2,26 C42.3,25.8 42.5,25.8 42.6,25.8 C42.8,25.9 42.8,26.1 42.8,26.2 C42.8,26.2 42.1,27.5 40.9,27.7 L40.9,27.7 Z" id="Path" fill="#1A2E35"></path>
                    <path d="M43.1,27.4 C43,27.4 42.9,27.4 42.9,27.3 C42.5,27 42.1,26.7 42.1,26.7 C41.9,26.6 41.9,26.5 41.9,26.3 C42,26.1 42.1,26.1 42.3,26.1 C42.3,26.1 42.8,26.3 43.3,26.8 C43.5,26.9 43.5,27.1 43.3,27.3 C43.3,27.4 43.2,27.4 43.1,27.4 Z" id="Path" fill="#1A2E35"></path>
                    <path d="M112.9,63.5 C112.9,63.5 105.6,60.4 98.2,58.7 C90.8,57 78.8,55.4 78.8,55.4 C78.8,55.4 82.1,88.7 81.3,90.7 C80.4,92.7 75.2,99.5 75.2,99.5 C75.2,99.5 103.4,110.4 108.3,111.3 C113.2,112.2 110.7,95.3 110.7,95.3 C110.7,95.3 115.7,73.8 112.9,63.5 Z" id="Path" fill="#1A2E35"></path>
                    <g transform="translate(90.000000, 50.000000)">
                        <path d="M12.7,9.9 C12.7,9.9 13.4,11.1 11.6,11.8 C7,13.4 2.2,12 2.7,10.2 C2.9,9.5 4,10.2 3.9,7.7 C3.9,7.4 3.7,7 3.6,6.6 C3.4,5.9 2.9,5.3 2.5,4.6 C1.8,3.5 0.9,2.6 0.9,2.6 C0.9,2.6 8.1,-2 13.5,2.6 C13.5,2.8 11.6,3.7 12.7,9.9 Z" id="Path" fill="#FFFFFF"></path>
                        <path d="M7.5,12.8 C5.5,12.8 3.7,12.3 2.9,11.5 C2.4,11.1 2.2,10.6 2.4,10 C2.5,9.7 2.8,9.5 3,9.4 C3.3,9.2 3.7,9.1 3.7,7.6 C3.7,7.4 3.6,7 3.5,6.6 C3.3,6.1 2.9,5.5 2.4,4.7 C1.7,3.6 0.8,2.8 0.8,2.8 C0.7,2.7 0.7,2.6 0.7,2.6 C0.7,2.6 0.8,2.4 0.9,2.4 C1,2.4 8.4,-2.3 13.9,2.4 C14,2.5 14.1,2.6 14,2.7 C14,2.8 13.9,2.9 13.8,2.9 C13.8,2.9 12.1,4 13.1,9.7 C13.2,9.9 13.3,10.4 13.2,10.9 C13,11.4 12.5,11.8 11.9,12 C10.3,12.7 8.8,12.8 7.5,12.8 Z M1.5,2.8 C1.8,3.1 2.3,3.8 2.8,4.4 C3.4,5.1 3.7,5.8 4,6.4 C4.2,6.9 4.3,7.3 4.3,7.6 C4.4,9.4 3.8,9.8 3.2,10.1 C3,10.2 3,10.2 3,10.3 C2.9,10.5 3,10.8 3.3,11 C4.4,12 7.9,12.7 11.5,11.4 C12,11.2 12.3,11 12.5,10.7 C12.7,10.4 12.5,10 12.5,10 L12.5,9.9 C11.6,5.1 12.6,3.3 13.2,2.7 C8.6,-0.7 2.9,2 1.5,2.8 Z" id="Shape" fill="#1A2E35"></path>
                    </g>
                    <g transform="translate(51.000000, 97.000000)">
                        <path d="M60.7,22.2 C57.8,26.8 43.3,29 35.5,28.7 C27.6,28.5 4.9,17.8 3.3,15.6 C1.9,13.5 -1.6,6.6 3.8,2.4 C4.2,2.1 4.7,1.7 5.3,1.5 C9,-0.5 33.6,5.8 33.6,5.8 C33.6,5.8 35.2,4.8 35.6,4.9 C37.3,5.1 38.5,6.5 42,7.4 C44.5,8.1 51.1,5.4 55.3,7.7 C55.8,7.9 56.2,8.3 56.6,8.6 C60.6,12.5 63.6,17.7 60.7,22.2 Z" id="SVGID_3_" fill="#FFA981"></path>
                        <path d="M36.5,29.1 C36.2,29.1 35.8,29.1 35.5,29.1 C27.6,28.9 4.6,18.1 3.1,15.8 C0.9,12.6 -1.5,6.1 3.7,2.1 C4.2,1.8 4.7,1.4 5.2,1.1 C8.9,-0.9 31.5,4.8 33.6,5.4 C34.1,5.1 35.2,4.5 35.8,4.6 C36.7,4.7 37.4,5.1 38.3,5.6 C39.3,6.1 40.4,6.7 42.2,7.2 C43,7.4 44.5,7.2 46.2,7 C49.1,6.6 52.8,6.1 55.5,7.6 C56,7.8 56.5,8.2 56.9,8.6 C62,13.4 63.4,18.5 61,22.5 L61,22.5 C58.1,27.1 44.3,29.1 36.5,29.1 Z M7.8,1.5 C6.7,1.5 5.8,1.6 5.3,1.8 C4.8,2 4.3,2.4 3.9,2.7 C-2,7.3 3.2,15.1 3.5,15.5 C5.1,17.8 27.7,28.3 35.4,28.5 C43.8,28.7 57.8,26.3 60.4,22.1 C63.7,16.8 58.7,11.2 56.4,9.1 C56.1,8.8 55.7,8.4 55.2,8.2 C52.7,6.8 49.1,7.3 46.3,7.7 C44.5,7.9 43,8.2 42,7.9 C40.1,7.4 38.9,6.8 37.9,6.3 C37.1,5.9 36.3,5.5 35.6,5.4 C35.4,5.4 34.5,5.8 33.7,6.2 C33.6,6.3 33.5,6.3 33.5,6.2 C26.4,4.3 13.5,1.5 7.8,1.5 Z" id="SVGID_4_" fill="#1A2E35"></path>
                        <g opacity="0.3" transform="translate(3.000000, 1.000000)" fill="#000000" id="Path">
                            <g opacity="0.7">
                                <g>
                                    <path d="M52.4,6.8 C48.1,6.5 44.2,7.4 41.5,9 C38.3,10.9 23.2,18.1 23.2,18.1 C23.2,17.4 24.1,15.7 24.1,15.7 C22.7,14.5 18.9,13.5 18.9,13.5 C16,11 4.6,3.8 0.8,1.4 C1.2,1.1 1.7,0.7 2.3,0.5 C6,-1.5 30.6,4.8 30.6,4.8 C30.6,4.8 32.2,3.8 32.6,3.9 C34.3,4.1 35.5,5.5 39,6.4 C41.5,7.2 48.1,4.5 52.4,6.8 Z"></path>
                                </g>
                            </g>
                        </g>
                    </g>
                    <g transform="translate(82.000000, 118.000000)">
                        <g transform="translate(7.000000, 5.000000)">
                            <path d="M18.2,0.4 L18.5,2 C18.5,2 17.5,4.7 13.3,5.2 C9,5.6 6.5,6.6 4.5,6.7 C2.5,6.8 1.2,6.6 1.2,6.6 L0.8,5.9 L18.2,0.4 Z" id="Path" fill="#FFFFFF"></path>
                            <path d="M3.2,7.1 C2.1,7.1 1.4,7 1.3,7 C1.2,7 1.1,6.9 1.1,6.8 L0.7,6.1 C0.6,6 0.6,5.9 0.7,5.8 C0.7,5.7 0.8,5.6 0.9,5.6 L18.3,0 C18.4,0 18.5,0 18.5,0 C18.6,0.1 18.7,0.1 18.7,0.2 L19,1.8 C19,1.9 19,2 19,2 C18.9,2.1 17.9,4.9 13.5,5.4 C11.2,5.6 9.3,6.1 7.9,6.4 C6.7,6.6 5.6,6.9 4.7,7 C4.1,7 3.6,7.1 3.2,7.1 Z M1.5,6.3 C1.9,6.3 3,6.5 4.5,6.3 C5.4,6.2 6.4,6.1 7.6,5.7 C9.1,5.4 11,5 13.3,4.7 C16.9,4.3 18,2.2 18.2,1.8 L18,0.7 L1.4,6 L1.5,6.3 Z" id="Shape" fill="#1A2E35"></path>
                        </g>
                        <g>
                            <path d="M0.5,5.3 L7.9,11 C7.9,11 13.6,10.6 18.5,9.4 L18.5,9.4 C22,8.6 25,7.4 25.2,5.9 C25.4,3.5 22.9,2.9 19.8,3 C19.2,3 18.7,3.1 18.1,3.1 C13.2,3.6 7,0.9 7,0.9 L0.5,5.3 Z" id="SVGID_7_" fill="#1A2E35"></path>
                            <path d="M7.9,11.3 C7.8,11.3 7.7,11.3 7.7,11.2 L0.3,5.5 C0.2,5.4 0.1,5.3 0.1,5.3 C0.1,5.2 0.2,5.1 0.3,5.1 L6.7,0.8 C6.8,0.7 6.9,0.7 7,0.8 C7.1,0.8 13.2,3.4 18,2.9 C18.7,2.8 19.2,2.8 19.8,2.8 C22.3,2.7 24.1,3.1 25,4.1 C25.5,4.7 25.7,5.3 25.7,6.1 C25.5,7.7 23.2,8.9 18.7,9.9 C18.7,9.9 18.7,9.9 18.6,9.9 C13.8,10.8 7.9,11.3 7.9,11.3 C7.9,11.3 7.9,11.3 7.9,11.3 Z M1.1,5.3 L8.1,10.7 C9,10.6 14.1,10.1 18.5,9.1 C18.5,9.1 18.5,9.1 18.6,9.1 C24.1,7.9 25,6.6 25.1,5.8 C25.2,5.1 25,4.7 24.7,4.2 C24,3.5 22.4,3.1 20.1,3.1 C19.6,3.1 19,3.2 18.4,3.2 C13.8,3.7 8.2,1.5 7.3,1.1 L1.1,5.3 Z" id="SVGID_8_" fill="#1A2E35"></path>
                            <g opacity="0.3" fill="#000000" id="Path">
                                <g opacity="0.7">
                                    <g>
                                        <path d="M25.2,5.8 C23.9,6.3 22.3,7 21.1,7.8 C21.1,7.8 14.2,11.3 3.7,7.7 L0.5,5.2 L6.9,0.9 C6.9,0.9 13.1,3.6 18,3 C18.6,2.9 19.1,2.9 19.7,2.9 C22.8,2.8 25.4,3.5 25.2,5.8 Z"></path>
                                    </g>
                                </g>
                            </g>
                        </g>
                        <g transform="translate(6.000000, 7.000000)">
                            <path d="M1.4,0.5 C0.1,0.7 1.6,3.4 3.4,2.6 C5.1,1.8 2.8,0.3 1.4,0.5 Z" id="SVGID_11_" fill="#FFFFFF"></path>
                            <path d="M2.7,3.1 C2.2,3.1 1.8,2.9 1.4,2.6 C0.8,2.1 0.5,1.4 0.7,0.9 C0.8,0.6 1.1,0.3 1.4,0.2 L1.4,0.2 C2.4,1.13603571e-13 4,0.7 4.3,1.7 C4.4,1.9 4.5,2.5 3.5,3 C3.2,3 2.9,3.1 2.7,3.1 Z M1.5,0.8 C1.3,0.8 1.3,0.9 1.3,1 C1.2,1.2 1.4,1.7 1.8,2.1 C2,2.3 2.6,2.7 3.3,2.3 C3.6,2.1 3.8,2 3.7,1.8 C3.5,1.3 2.3,0.7 1.5,0.8 L1.5,0.8 Z" id="SVGID_12_" fill="#1A2E35"></path>
                            <g opacity="0.2" fill="#000000" id="Path">
                                <g opacity="0.7">
                                    <g>
                                        <path d="M3.9,2.2 C3,2.1 2,2 1,1.7 C0.8,1.2 0.8,0.6 1.4,0.6 C2.5,0.3 4.4,1.4 3.9,2.2 Z"></path>
                                    </g>
                                </g>
                            </g>
                        </g>
                        <g transform="translate(17.000000, 2.000000)">
                            <path d="M1.5,7.4 C5,6.6 8,5.4 8.2,3.9 C8.4,1.5 5.9,0.9 2.8,1 C2.7,1 -0.3,3.9 1.5,7.4 Z" id="SVGID_15_" fill="#FFFFFF"></path>
                            <path d="M1.5,7.8 C1.4,7.8 1.3,7.7 1.2,7.6 C-0.7,4 2.3,1.1 2.6,0.7 C2.7,0.6 2.8,0.6 2.8,0.6 C5.3,0.5 7.1,0.9 8,1.9 C8.5,2.5 8.7,3.1 8.7,3.9 C8.4,5.5 6.1,6.7 1.5,7.8 L1.5,7.8 Z M3,1.2 C2.5,1.8 0.4,4.1 1.7,7 C6.9,5.8 7.8,4.5 7.9,3.8 C8,3.1 7.8,2.7 7.5,2.2 C6.7,1.5 5.2,1.2 3,1.2 Z" id="SVGID_16_" fill="#1A2E35"></path>
                            <g opacity="0.3" fill="#000000" id="Path">
                                <g opacity="0.7">
                                    <g>
                                        <path d="M8.2,3.8 C6.9,4.3 5.3,5 4.1,5.8 C4.1,5.8 3.1,6.3 1.2,6.8 C0.1,3.6 2.7,1.1 2.8,0.9 C5.8,0.8 8.4,1.5 8.2,3.8 Z"></path>
                                    </g>
                                </g>
                            </g>
                        </g>
                        <g transform="translate(15.000000, 2.000000)">
                            <path d="M1,4.4 L1,4.4 C1.2,4.4 1.4,4.2 1.4,4.1 C1.5,2.6 2.6,1.4 2.6,1.3 C2.8,1.1 2.8,0.9 2.6,0.8 C2.4,0.6 2.2,0.6 2.1,0.8 C2,0.9 0.7,2.2 0.6,4 C0.6,4.2 0.8,4.4 1,4.4 Z" id="Path" fill="#FFFFFF"></path>
                            <path d="M1,4.7 C1,4.7 1,4.7 1,4.7 L1,4.4 L1,4.7 C0.6,4.6 0.3,4.4 0.3,4 C0.4,2.1 1.7,0.7 1.9,0.6 C2.1,0.4 2.6,0.4 2.9,0.6 C3.1,0.8 3.1,0.9 3.1,1.1 C3.1,1.3 3,1.4 2.9,1.6 C2.9,1.6 1.8,2.7 1.8,4.1 C1.8,4.3 1.7,4.4 1.6,4.6 C1.4,4.6 1.2,4.7 1,4.7 Z M2.1,0.8 L2.3,1 C2.2,1.1 1,2.4 0.9,4 L0.9,4 C1.1,2.4 2.3,1.1 2.3,1.1 L2.1,0.8 Z" id="Shape" fill="#1A2E35"></path>
                        </g>
                        <g transform="translate(13.000000, 2.000000)">
                            <path d="M1.5,4.5 C1.6,4.5 1.6,4.5 1.5,4.5 C1.7,4.5 1.9,4.3 1.9,4.2 C1.9,2.6 3,1.3 3,1.3 C3.2,1.1 3.1,0.9 2.9,0.8 C2.7,0.6 2.5,0.7 2.4,0.9 C2.3,1 1.2,2.5 1.1,4.2 C1.2,4.3 1.3,4.5 1.5,4.5 Z" id="Path" fill="#FFFFFF"></path>
                            <path d="M1.6,4.8 L1.6,4.8 L1.6,4.5 L1.6,4.8 C1.2,4.8 0.9,4.5 0.9,4.1 C0.9,2.2 2.2,0.7 2.3,0.6 C2.5,0.3 3,0.3 3.3,0.5 C3.5,0.6 3.5,0.7 3.5,1 C3.5,1.2 3.5,1.3 3.3,1.5 C3.3,1.5 2.3,2.7 2.2,4.1 C2.2,4.3 2.1,4.4 2,4.6 C1.9,4.7 1.7,4.8 1.6,4.8 Z M2.5,0.8 L2.7,1 C2.7,1 1.6,2.4 1.5,4.1 L1.5,4.1 C1.6,2.5 2.6,1.1 2.7,1 L2.5,0.8 Z" id="Shape" fill="#1A2E35"></path>
                        </g>
                        <g transform="translate(12.000000, 2.000000)">
                            <path d="M0.8,4.3 L0.8,4.3 C1,4.3 1.2,4.1 1.2,4 C1.3,2.8 2.4,1.1 2.4,1.1 C2.5,0.9 2.5,0.7 2.3,0.6 C2.1,0.5 1.9,0.5 1.8,0.7 C1.7,0.8 0.6,2.5 0.5,4 C0.4,4.2 0.6,4.3 0.8,4.3 Z" id="Path" fill="#FFFFFF"></path>
                            <path d="M0.9,4.6 C0.8,4.6 0.8,4.6 0.9,4.6 L0.9,4.3 L0.9,4.6 C0.5,4.5 0.2,4.2 0.2,3.9 C0.4,2.3 1.5,0.5 1.6,0.5 C1.8,0.2 2.3,0.1 2.6,0.3 C2.8,0.4 2.8,0.5 2.9,0.7 C2.9,0.9 2.9,1 2.8,1.2 C2.8,1.2 1.7,2.8 1.7,4 C1.5,4.4 1.2,4.6 0.9,4.6 Z M0.9,4 L1.2,4 L0.9,4 C1.1,2.6 2.1,0.9 2.2,0.9 L2.2,0.9 L2.1,0.9 L2.1,0.9 C2.1,0.9 0.9,2.6 0.9,4 C0.8,4 0.9,4 0.9,4 Z" id="Shape" fill="#1A2E35"></path>
                        </g>
                        <g transform="translate(10.000000, 1.000000)">
                            <path d="M1.1,5.2 L1.1,5.2 C1.3,5.2 1.5,5 1.5,4.8 C1.3,3.2 2.6,1.9 2.7,1.9 C2.9,1.7 2.9,1.6 2.7,1.4 C2.5,1.2 2.4,1.2 2.2,1.4 C2.1,1.5 0.5,3 0.8,4.9 C0.8,5 1,5.2 1.1,5.2 Z" id="Path" fill="#FFFFFF"></path>
                            <path d="M1.1,5.5 L1.1,5.5 C1.1,5.5 1.1,5.5 1.1,5.5 C0.7,5.5 0.4,5.3 0.4,4.9 C0.1,2.8 1.9,1.1 2,1.1 C2.2,0.9 2.7,0.9 3,1.2 C3.2,1.4 3.2,1.5 3.2,1.7 C3.2,1.9 3.1,2 3,2.2 C3,2.2 1.7,3.4 1.9,4.7 C1.9,4.9 1.9,5 1.8,5.2 C1.7,5.4 1.6,5.4 1.3,5.4 C1.2,5.5 1.2,5.5 1.1,5.5 Z M2.2,1.3 L2.4,1.5 C2.3,1.6 0.8,3 1.1,4.7 L1.1,5 L1.1,4.7 L1.1,4.7 C0.9,3 2.3,1.6 2.4,1.5 L2.2,1.3 Z" id="Shape" fill="#1A2E35"></path>
                        </g>
                        <g transform="translate(8.000000, 1.000000)">
                            <path d="M1.3,4.7 L1.3,4.7 C1.5,4.6 1.7,4.5 1.6,4.3 C1.3,2.9 2.7,1.4 2.7,1.4 C2.9,1.2 2.8,1 2.7,0.9 C2.5,0.7 2.3,0.8 2.2,0.9 C2.1,1 0.6,2.7 1,4.5 C1.1,4.6 1.2,4.7 1.3,4.7 Z" id="Path" fill="#FFFFFF"></path>
                            <path d="M1.3,5.1 L1.3,5.1 L1.3,5.1 C1,5.1 0.7,4.9 0.6,4.5 C0.2,2.6 1.8,0.7 1.9,0.7 C2.1,0.5 2.6,0.4 2.9,0.6 C3.1,0.8 3.1,0.9 3.1,1.1 C3.1,1.3 3,1.4 2.9,1.6 C2.9,1.6 1.7,3.1 1.9,4.2 C2,4.4 1.9,4.5 1.8,4.7 C1.7,4.9 1.6,4.9 1.4,5 C1.5,5.1 1.4,5.1 1.3,5.1 Z M2.5,1.1 C2.5,1.1 1,2.8 1.4,4.4 L1.4,4.7 L1.4,4.4 L1.4,4.4 C1.1,2.9 2.4,1.3 2.5,1.1 L2.5,1.1 Z" id="Shape" fill="#1A2E35"></path>
                        </g>
                    </g>
                    <g transform="translate(52.000000, 118.000000)">
                        <g transform="translate(0.000000, 2.000000)">
                            <path d="M1.3,1 L0.8,2.6 C0.8,2.6 1.5,5.4 5.6,6.3 C9.7,7.2 12.2,8.3 14.2,8.7 C16.2,9 17.4,8.9 17.4,8.9 L17.9,8.3 L1.3,1 Z" id="Path" fill="#FFFFFF"></path>
                            <path d="M17.4,9.3 C17,9.3 15.9,9.3 14.3,9 C13.4,8.8 12.3,8.5 11.2,8.1 C9.8,7.6 8,7 5.7,6.5 C1.4,5.6 0.6,2.7 0.5,2.6 C0.5,2.5 0.5,2.4 0.5,2.4 L1,0.8 C1,0.7 1.1,0.6 1.2,0.6 C1.3,0.6 1.4,0.6 1.4,0.6 L18.1,8 C18.2,8.1 18.3,8.2 18.3,8.2 C18.3,8.3 18.3,8.4 18.2,8.5 L17.7,9.1 C17.6,9.3 17.6,9.3 17.4,9.3 C17.6,9.3 17.5,9.3 17.4,9.3 Z M1.2,2.6 C1.4,3.1 2.3,5.2 5.8,6 C8.1,6.5 9.9,7.1 11.4,7.6 C12.6,8 13.5,8.3 14.4,8.4 C16,8.6 17,8.6 17.4,8.6 L17.4,8.6 L17.5,8.5 L1.5,1.5 L1.2,2.6 Z" id="Shape" fill="#1A2E35"></path>
                        </g>
                        <g>
                            <path d="M26,5.4 L18.1,10.3 C18.1,10.3 12.5,9.2 7.7,7.7 L7.7,7.7 C4.3,6.6 1.4,5.1 1.4,3.5 C1.4,1.1 4,0.7 7,1.1 C7.6,1.2 8.1,1.3 8.7,1.4 C13.5,2.5 20,0.4 20,0.4 L26,5.4 Z" id="SVGID_19_" fill="#1A2E35"></path>
                            <path d="M18,10.7 C18,10.7 18,10.7 18,10.7 C17.9,10.7 12.2,9.6 7.5,8 C7.5,8 7.5,8 7.4,8 C3.1,6.5 0.9,5.1 0.9,3.5 C0.9,2.7 1.1,2 1.7,1.5 C2.7,0.7 4.4,0.4 6.9,0.8 C7.4,0.9 8,1 8.6,1.1 C13.3,2.1 19.7,0.1 19.7,0.1 C19.8,0.1 19.9,0.1 20,0.2 L25.9,5.2 C26,5.3 26,5.4 26,5.4 C26,5.5 25.9,5.6 25.8,5.6 L18,10.7 C18.1,10.7 18.1,10.7 18,10.7 Z M7.8,7.5 C12.1,9 17.1,10 18,10.1 L25.5,5.4 L20.1,0.8 C19,1.1 13.2,2.7 8.8,1.8 C8.1,1.6 7.6,1.6 7.1,1.5 C4.8,1.2 3.2,1.4 2.4,2.1 C2,2.4 1.8,2.9 1.8,3.6 C1.7,4.2 2.5,5.6 7.8,7.5 C7.8,7.4 7.8,7.4 7.8,7.5 Z" id="SVGID_20_" fill="#1A2E35"></path>
                            <g opacity="0.3" transform="translate(11.000000, 0.000000)" fill="#000000" id="Path">
                                <g opacity="0.7">
                                    <g>
                                        <path d="M15,5.4 L10.3,8.3 C5.6,6.9 2.5,4 0.8,1.7 C5,1.7 9.2,0.4 9.2,0.4 L15,5.4 Z"></path>
                                    </g>
                                </g>
                            </g>
                        </g>
                        <g transform="translate(1.000000, 0.000000)">
                            <path d="M6.7,7.7 C3.3,6.6 0.4,5.1 0.4,3.5 C0.4,1.1 3,0.7 6,1.1 C6.2,1.2 8.9,4.4 6.7,7.7 Z" id="Path" fill="#FFFFFF"></path>
                            <path d="M6.7,8 L6.7,8 C2.2,6.5 0.1,5.1 0.1,3.5 C0.1,2.7 0.3,2 0.9,1.5 C1.9,0.7 3.6,0.4 6.1,0.8 C6.2,0.8 6.3,0.9 6.3,0.9 C6.4,1.1 9.2,4.4 7,7.9 C6.9,8 6.8,8 6.7,8 Z M4.1,1.3 C2.8,1.3 1.8,1.5 1.3,2 C0.9,2.3 0.7,2.8 0.7,3.5 C0.7,4.2 1.4,5.5 6.5,7.3 C8.1,4.6 6.3,2 5.8,1.4 C5.3,1.3 4.7,1.3 4.1,1.3 Z" id="Shape" fill="#1A2E35"></path>
                        </g>
                        <g transform="translate(8.000000, 0.000000)">
                            <path d="M2.4,5 L2.4,5 C2.2,5 2,4.8 2.1,4.6 C2.2,3.1 1.1,1.7 1.1,1.7 C0.9,1.5 1,1.3 1.2,1.2 C1.4,1.1 1.6,1.1 1.7,1.3 C1.8,1.4 2.9,2.9 2.8,4.7 C2.8,4.8 2.7,5 2.4,5 Z" id="Path" fill="#FFFFFF"></path>
                            <path d="M2.4,5.3 L2.4,5.3 C2.2,5.3 2,5.2 1.9,5.1 C1.8,4.9 1.7,4.8 1.7,4.6 C1.8,3.2 0.8,2 0.8,2 C0.7,1.8 0.6,1.7 0.6,1.5 C0.6,1.3 0.7,1.2 0.8,1 C1.1,0.8 1.5,0.8 1.8,1.1 C2,1.3 3.1,2.8 2.9,4.7 C3.2,5.1 2.8,5.3 2.4,5.3 Z M1.4,1.6 C1.5,1.7 2.5,3.1 2.5,4.7 L2.5,4.7 L2.5,4.7 C2.6,3 1.5,1.6 1.4,1.6 L1.4,1.6 Z" id="Shape" fill="#1A2E35"></path>
                        </g>
                        <g transform="translate(10.000000, 1.000000)">
                            <path d="M1.9,4.3 L1.9,4.3 C1.7,4.3 1.5,4.1 1.6,3.9 C1.8,2.3 0.8,1 0.8,1 C0.7,0.8 0.7,0.6 0.9,0.5 C1.1,0.4 1.3,0.4 1.4,0.6 C1.5,0.7 2.5,2.2 2.3,4 C2.2,4.1 2.1,4.3 1.9,4.3 Z" id="Path" fill="#FFFFFF"></path>
                            <path d="M1.9,4.6 C1.9,4.6 1.8,4.6 1.9,4.6 C1.7,4.6 1.5,4.5 1.3,4.4 C1.2,4.2 1.1,4.1 1.1,3.9 C1.2,2.5 0.4,1.2 0.4,1.1 C0.3,0.9 0.2,0.8 0.3,0.6 C0.3,0.4 0.5,0.3 0.6,0.2 C0.9,1.13867249e-13 1.3,0.1 1.6,0.4 C1.7,0.5 2.7,2.1 2.6,4 C2.6,4.3 2.2,4.6 1.9,4.6 Z M1.1,0.7 L1.1,0.7 C1,0.8 2.1,2.3 1.9,3.9 L1.9,3.9 L1.9,3.9 C2.1,2.2 1.1,0.7 1.1,0.7 Z" id="Shape" fill="#1A2E35"></path>
                        </g>
                        <g transform="translate(12.000000, 1.000000)">
                            <path d="M1.7,4.3 C1.6,4.3 1.6,4.3 1.7,4.3 C1.5,4.3 1.3,4.1 1.4,4 C1.4,2.7 0.5,1 0.5,1 C0.4,0.8 0.5,0.6 0.7,0.5 C0.9,0.4 1.1,0.5 1.2,0.7 C1.3,0.8 2.2,2.6 2.2,4.1 C2,4.1 1.9,4.3 1.7,4.3 Z" id="Path" fill="#FFFFFF"></path>
                            <path d="M1.7,4.6 L1.7,4.6 C1.5,4.6 1.3,4.5 1.2,4.4 C1,4.2 1,4.1 1,3.9 C1,2.8 0.2,1 0.2,1 C0.1,0.8 0.1,0.7 0.1,0.5 C0.1,0.3 0.3,0.2 0.4,0.1 C0.7,-0.1 1.1,1.36779477e-13 1.3,0.4 C1.4,0.5 2.4,2.4 2.3,3.9 C2.4,4.3 2,4.6 1.7,4.6 Z M0.7,0.7 C0.8,0.9 1.7,2.6 1.6,3.9 L1.6,3.9 L1.6,3.9 C1.7,2.5 0.8,0.7 0.7,0.7 L0.7,0.7 Z" id="Shape" fill="#1A2E35"></path>
                        </g>
                        <g transform="translate(13.000000, 0.000000)">
                            <path d="M2.3,5.3 L2.3,5.3 C2.1,5.2 1.9,5.1 2,4.9 C2.4,3.4 1.1,2 1.1,2 C0.9,1.8 1,1.6 1.1,1.5 C1.3,1.3 1.5,1.4 1.6,1.5 C1.7,1.6 3.2,3.3 2.7,5.2 C2.7,5.2 2.5,5.3 2.3,5.3 Z" id="Path" fill="#FFFFFF"></path>
                            <path d="M2.3,5.6 C2.2,5.6 2.1,5.6 2.1,5.6 C1.9,5.5 1.8,5.4 1.7,5.3 C1.6,5.1 1.6,5 1.6,4.8 C2,3.5 0.8,2.2 0.8,2.1 C0.6,1.9 0.6,1.8 0.6,1.6 C0.6,1.4 0.7,1.3 0.8,1.1 C1,0.9 1.5,0.9 1.8,1.2 C1.9,1.3 3.5,3.1 2.9,5.1 C2.9,5.4 2.7,5.6 2.3,5.6 Z M1.4,1.6 C1.5,1.7 2.8,3.2 2.4,4.9 L2.4,4.9 L2.4,4.9 C2.8,3.2 1.4,1.7 1.4,1.6 L1.4,1.6 Z" id="Shape" fill="#1A2E35"></path>
                        </g>
                        <g transform="translate(15.000000, 0.000000)">
                            <path d="M2.1,5 L2.1,5 C1.9,4.9 1.7,4.8 1.8,4.5 C2.3,3.2 1.1,1.5 1.1,1.5 C1,1.3 1,1.1 1.2,1 C1.4,0.9 1.6,0.9 1.7,1.1 C1.8,1.2 3.1,3.1 2.5,4.8 C2.5,4.9 2.3,5 2.1,5 Z" id="Path" fill="#FFFFFF"></path>
                            <path d="M2.1,5.3 C2,5.3 1.9,5.3 1.9,5.3 C1.7,5.2 1.6,5.1 1.5,5 C1.4,4.8 1.4,4.7 1.5,4.5 C1.9,3.4 0.8,1.8 0.8,1.8 C0.7,1.6 0.6,1.5 0.7,1.3 C0.7,1.1 0.9,1 0.9,0.9 C1.2,0.7 1.6,0.7 1.9,1.1 C2,1.2 3.5,3.2 2.8,5.1 C2.7,5.2 2.5,5.3 2.1,5.3 Z M1.4,1.3 L1.4,1.3 C1.3,1.4 2.6,3.2 2.1,4.7 L2.1,4.8 L2.1,4.8 C2.7,3.1 1.4,1.3 1.4,1.3 Z" id="Shape" fill="#1A2E35"></path>
                        </g>
                        <g transform="translate(15.000000, 6.000000)">
                            <path d="M3.9,1 C5.2,1.3 3.5,3.9 1.8,2.9 C0,1.9 2.6,0.6 3.9,1 Z" id="Path" fill="#FFFFFF"></path>
                            <path d="M2.6,3.4 C2.3,3.4 1.9,3.3 1.6,3.2 C0.7,2.7 0.9,2.1 0.9,1.8 C1.3,0.9 2.9,0.4 3.9,0.7 C4.3,0.8 4.6,1 4.6,1.4 C4.7,2 4.4,2.6 3.7,3 C3.4,3.3 3,3.4 2.6,3.4 Z M3.4,1.2 C2.7,1.2 1.8,1.6 1.6,2 C1.5,2.2 1.7,2.3 2,2.6 C2.7,3 3.2,2.7 3.5,2.5 C3.9,2.2 4.2,1.8 4.2,1.5 C4.2,1.4 4.1,1.3 4,1.3 C3.7,1.3 3.5,1.2 3.4,1.2 Z" id="Shape" fill="#1A2E35"></path>
                        </g>
                    </g>
                    <g transform="translate(55.000000, 111.000000)" id="Path">
                        <path d="M0.9,0.6 C2.9,3.3 8.7,6.3 14.4,8.8 C15.1,9.8 16.3,11.7 18,13.5 C21.5,17.1 23,15.1 23,15.1 C23,15.1 25.2,14.9 28.6,14.4 C28.8,14.8 29.3,15.5 30.2,15.3 C30.6,15.2 31.4,14.6 32.4,13.8 C40.8,12.6 52.1,10.4 55.2,8.1" fill="#FFA981"></path>
                        <path d="M21.7,15.9 C20.6,15.9 19.2,15.2 17.8,13.6 C16.1,11.9 14.9,10 14.2,8.9 C6.9,5.8 2.3,3 0.7,0.6 C0.6,0.4 0.6,0.3 0.8,0.1 C1,-2.84217094e-14 1.1,-2.84217094e-14 1.3,0.2 C2.9,2.4 7.5,5.2 14.6,8.2 C14.7,8.2 14.7,8.3 14.8,8.4 C15.4,9.4 16.7,11.3 18.4,13 C20.1,14.8 21.3,15.1 22,15 C22.7,14.9 22.9,14.6 22.9,14.6 C23,14.5 23.1,14.4 23.1,14.4 C23.1,14.4 25.4,14.2 28.7,13.7 C28.9,13.7 28.9,13.8 29,13.9 C29.2,14.3 29.7,14.8 30.3,14.6 C30.5,14.6 31,14.4 32.3,13.2 C32.4,13.2 32.4,13.1 32.5,13.1 C44.8,11.3 52.8,9.3 55.1,7.4 C55.3,7.3 55.4,7.3 55.6,7.5 C55.7,7.7 55.7,7.8 55.5,8 C52.5,10.5 41.4,12.5 32.7,13.8 C31.2,15 30.7,15.3 30.4,15.3 C29.7,15.5 28.9,15.1 28.5,14.4 C25.8,14.7 23.8,15 23.3,15.1 C23.1,15.3 22.7,15.6 22,15.7 C21.8,15.9 21.8,15.9 21.7,15.9 Z" fill="#1A2E35"></path>
                    </g>
                    <g transform="translate(68.000000, 104.000000)" fill="#1A2E35" id="Path">
                        <path d="M1.4,16.1 C1.2,16.1 1.2,16 1.1,15.9 C0.8,15 0.7,14.3 1,13.8 C1.2,13.5 1.6,13.3 1.7,13.3 C3.3,12.6 5.4,13.1 6,13.3 C7,12.9 14.4,9.6 19.4,6.6 C24.9,3.3 32.8,0.8 32.9,0.8 L33,0.8 C36.1,0.6 37.7,0.6 39.2,2.4 C39.4,2.6 39.3,2.7 39.2,2.9 C39,3.1 38.9,3 38.7,2.9 C37.4,1.4 36,1.3 33.1,1.6 C32.5,1.8 25,4.2 19.8,7.3 C14.3,10.6 6.3,14.1 6.2,14.1 C6.1,14.1 6,14.1 6,14.1 C6,14.1 3.6,13.4 2.1,14.1 L2,14.1 C2,14.1 1.8,14.1 1.8,14.3 C1.7,14.5 1.6,14.9 2,15.9 C2.1,16.1 2,16.2 1.8,16.3 C1.5,16.1 1.4,16.1 1.4,16.1 Z"></path>
                        <path d="M39.1,16.2 C39,16.2 38.9,16.1 38.8,16 C38.7,15.8 38.8,15.7 39,15.6 C42.2,14 42.3,11.9 42.3,11.8 C42.3,11.6 42.5,11.5 42.6,11.5 L42.6,11.5 C42.8,11.5 42.9,11.7 42.9,11.8 C42.9,11.9 42.9,14.4 39.3,16.2 C39.2,16.2 39.2,16.2 39.1,16.2 Z"></path>
                        <path d="M13.9,10.2 C13.8,10.2 13.7,10.2 13.7,10.1 C12.7,9.4 10.7,8.5 10.7,8.5 C10.6,8.5 10.5,8.4 10.5,8.3 C9.4,5.8 4.1,2 4,1.9 C3.8,1.8 3.8,1.6 3.9,1.4 C4,1.2 4.2,1.2 4.4,1.3 C4.6,1.5 9.8,5.2 11,7.8 C11.5,8 13.1,8.8 14,9.4 C14.2,9.5 14.2,9.7 14.1,9.9 C14.2,10.1 14.1,10.2 13.9,10.2 Z"></path>
                        <path d="M11.5,8.8 L11.5,8.8 C11.3,8.7 11.2,8.6 11.2,8.4 C11.4,7.4 11.4,6.3 11,5 C10.9,4.8 11,4.7 11.2,4.6 C11.4,4.5 11.5,4.6 11.6,4.8 C12,6.1 12.1,7.4 11.8,8.5 C11.7,8.7 11.5,8.8 11.5,8.8 Z"></path>
                        <path d="M10.7,4.1 C10.6,4.1 10.5,4 10.4,3.9 C10.2,3.4 9.9,3 9.7,2.6 C9.6,2.4 9.6,2.3 9.8,2.1 C10,2 10.1,2 10.3,2.2 C10.6,2.6 10.9,3.1 11.1,3.6 C11.2,3.8 11.1,3.9 10.9,4 C10.9,4.1 10.8,4.1 10.7,4.1 Z"></path>
                        <path d="M20.1,6.8 C19.9,6.8 19.9,6.7 19.8,6.6 C19.4,4.7 17.6,2.3 17.6,2.3 C17.5,2.1 17.5,2 17.7,1.8 C17.9,1.7 18,1.7 18.2,1.9 C18.3,2 20.1,4.4 20.6,6.4 C20.5,6.6 20.3,6.7 20.1,6.8 C20.1,6.8 20.1,6.8 20.1,6.8 Z"></path>
                        <path d="M28,17 C27.8,17 27.7,16.8 27.7,16.7 C27.7,16.5 27.9,16.4 28,16.4 C28.7,16.3 29.4,16.2 30,16.2 C30.2,16.2 30.3,16.3 30.4,16.4 C30.4,16.6 30.3,16.7 30.2,16.8 C29.5,17 28.8,17 28,17 L28,17 Z"></path>
                        <path d="M26.5,17.1 L26.5,17.1 C21.8,17 16.4,16.4 10.7,15.3 C10.5,15.3 10.4,15.1 10.5,14.9 C10.5,14.7 10.7,14.6 10.9,14.7 C16.5,15.8 21.9,16.3 26.6,16.5 C26.8,16.5 26.9,16.7 26.9,16.8 C26.9,17 26.7,17.1 26.5,17.1 Z"></path>
                    </g>
                    <g transform="translate(86.000000, 78.000000)" id="Path">
                        <path d="M29.9,4.2 C29.9,4.2 28.9,21.3 27.8,22.3 C26.7,23.3 24.8,23.6 21.3,23.9 C17.8,24.1 2.4,25.1 2.4,25.1 L0.8,20.2 C0.8,20.2 9,19.4 12.7,18.1 C16.3,16.8 21.1,15.9 21.1,15.9 C21.1,15.9 20.4,11.6 20.4,9.8 C20.4,8 20.4,3.3 20.4,1" fill="#FFFFFF"></path>
                        <path d="M2.3,25.4 C2.1,25.4 2.1,25.3 2,25.2 L0.4,20.3 C0.4,20.2 0.4,20.1 0.4,20.1 C0.5,20 0.6,19.9 0.6,19.9 C0.7,19.9 8.8,19.1 12.4,17.8 C15.5,16.7 19.4,15.8 20.5,15.7 C20.3,14.6 19.8,11.4 19.8,9.8 L19.8,1 C19.8,0.8 20,0.7 20.1,0.7 C20.2,0.7 20.4,0.9 20.4,1 L20.4,9.8 C20.4,11.6 21.1,15.9 21.1,15.9 C21.1,16.1 21,16.2 20.9,16.3 C20.8,16.3 16.2,17.2 12.5,18.5 C9.3,19.6 2.8,20.5 1,20.6 L2.5,24.9 C4.5,24.7 18,23.9 21.2,23.7 C24.7,23.4 26.4,23.1 27.5,22.2 C28.2,21.5 29.1,12.5 29.5,4.4 C29.5,4.2 29.7,4.1 29.8,4.1 C30,4.1 30.1,4.3 30.1,4.4 C29.9,7.3 29,21.7 27.8,22.7 C26.6,23.8 24.8,24.1 21.1,24.3 C17.8,24.5 2.5,25.4 2.3,25.4 L2.3,25.4 Z" fill="#1A2E35"></path>
                    </g>
                    <path d="M112.9,63.5 C116.7,65.8 117.7,71.1 116.5,82.4 C116.5,82.4 117.6,83.7 116,84.4 C116,84.4 109.9,82.1 107,83.7 C104.1,85.3 104.9,81.6 104.9,81.6 C104.9,81.6 103.8,71.2 106.3,69.3" id="Path" fill="#1A2E35"></path>
                    <path d="M105.8,84.4 L105.8,84.4 C105.6,84.4 104.7,84 104.7,83.2 C104.7,82.6 105,81.2 105.1,80.9 C101.9,71.5 105.5,67.7 105.7,67.6 C105.9,67.5 106,67.4 106.2,67.6 C106.4,67.8 106.4,67.9 106.2,68.1 C106.2,68.1 102.8,71.9 105.9,80.9 C105.9,81 105.9,81.1 105.9,81.1 C105.8,81.6 105.5,82.9 105.5,83.4 C105.5,83.7 106,84 106.2,84.1 C106.4,84.2 106.4,84.3 106.4,84.5 C106.2,84.3 106,84.4 105.8,84.4 Z" id="Path" fill="#FFFFFF"></path>
                    <path d="M104.8,80.8 C104.7,80.8 104.6,80.8 104.6,80.7 C101.7,78.7 101.3,74.1 101.3,73.8 C101.3,73.6 101.5,73.5 101.6,73.5 C101.8,73.5 101.9,73.7 101.9,73.8 C101.9,73.9 102.2,78.2 104.9,80.1 C105.1,80.2 105.1,80.4 105,80.6 C105,80.8 104.8,80.8 104.8,80.8 Z" id="Path" fill="#FFFFFF"></path>
                    <path d="M97.4,64.5 C95.8,64.5 94,64.3 92.3,63.4 C89.4,61.8 90.6,59.4 90.6,59.3 C90.7,59.1 90.8,59.1 91,59.1 C91.2,59.1 91.2,59.3 91.2,59.5 C91.2,59.6 90.3,61.5 92.6,62.7 C96.9,65 102.3,62.9 102.4,62.9 C102.6,62.8 102.7,62.9 102.8,63.1 C102.9,63.3 102.8,63.4 102.6,63.5 C102.6,63.7 100.3,64.5 97.4,64.5 Z" id="Path" fill="#FFFFFF"></path>
                    <g transform="translate(52.000000, 80.000000)">
                        <g transform="translate(8.000000, 23.000000)">
                            <path d="M2.3,3.4 L32.8,3.4 C33.5,3.4 34.2,3.3 34.8,3.2 L40.8,1.6 C41,1.5 41.1,1.4 41.1,1.2 L41.1,1.2 C41.1,1 40.9,0.8 40.7,0.8 L1,0.8 C0.8,0.8 0.6,1 0.6,1.2 L0.6,1.8 C0.6,2.7 1.4,3.4 2.3,3.4 Z" id="Path" fill="#757575"></path>
                            <path d="M32.8,3.7 L2.3,3.7 C1.2,3.7 0.3,2.8 0.3,1.7 L0.3,1.1 C0.3,0.7 0.6,0.4 1,0.4 L40.7,0.4 C41.1,0.4 41.4,0.7 41.4,1.1 C41.4,1.4 41.2,1.7 40.8,1.8 L34.8,3.4 C34.2,3.6 33.5,3.7 32.8,3.7 Z M1,1.2 C1,1.2 1,1.2 1,1.2 L0.9,1.9 C0.9,2.6 1.5,3.2 2.2,3.2 L32.7,3.2 C33.4,3.2 34,3.1 34.7,3 L40.7,1.4 C40.7,1.4 40.8,1.4 40.8,1.3 C40.8,1.3 40.8,1.2 40.7,1.2 L1,1.2 L1,1.2 Z" id="Shape" fill="#1A2E35"></path>
                        </g>
                        <g>
                            <path d="M7.2,24.9 L37.7,24.9 C38.3,24.9 38.5,24.5 38.4,23.9 L32.8,2 C32.6,1.4 32.1,1 31.6,1 L1.1,1 C0.5,1 0.3,1.4 0.4,2 L6,23.9 C6.2,24.5 6.8,24.9 7.2,24.9 Z" id="Path" fill="#999999"></path>
                            <path d="M37.9,25.2 L7.4,25.2 C6.7,25.2 6,24.6 5.8,24 L0.2,2.1 C0.1,1.8 0.2,1.4 0.4,1.1 C0.6,0.8 0.9,0.7 1.3,0.7 L31.8,0.7 C32.5,0.7 33.2,1.3 33.4,1.9 L39,23.8 C39.1,24.1 39,24.5 38.8,24.8 C38.5,25.1 38.2,25.2 37.9,25.2 Z M1.1,1.4 C0.9,1.4 0.9,1.5 0.8,1.6 C0.7,1.7 0.7,1.8 0.7,2 L6.3,23.9 C6.4,24.3 6.8,24.6 7.2,24.6 L37.7,24.6 C37.9,24.6 37.9,24.5 38,24.4 C38.1,24.3 38.1,24.2 38.1,24 L32.5,2.1 C32.4,1.7 32,1.4 31.6,1.4 L1.1,1.4 L1.1,1.4 Z" id="Shape" fill="#1A2E35"></path>
                        </g>
                        <path d="M2.2,2.2 L1.6,2.2 C1.4,2.2 1.3,2 1.3,1.9 C1.3,1.8 1.5,1.6 1.6,1.6 L2.2,1.6 C2.4,1.6 2.5,1.8 2.5,1.9 C2.5,2 2.3,2.2 2.2,2.2 Z" id="Path" fill="#1A2E35"></path>
                        <path d="M6.7,2.2 L3.7,2.2 C3.5,2.2 3.4,2 3.4,1.9 C3.4,1.8 3.6,1.6 3.7,1.6 L6.6,1.6 C6.8,1.6 6.9,1.8 6.9,1.9 C7,2.1 6.8,2.2 6.7,2.2 Z" id="Path" fill="#1A2E35"></path>
                        <path d="M37.1,22.5 C36.9,22.5 36.9,22.4 36.8,22.3 L31.8,3 C31.7,2.6 31.3,2.3 30.9,2.3 L7.3,2.3 C7.1,2.3 7,2.1 7,2 C7,1.9 7.2,1.7 7.3,1.7 L30.9,1.7 C31.6,1.7 32.3,2.3 32.5,2.9 L37.5,22.2 C37.5,22.2 37.4,22.4 37.1,22.5 C37.1,22.5 37.1,22.5 37.1,22.5 Z" id="Path" fill="#1A2E35"></path>
                        <path d="M37.5,24.2 C37.3,24.2 37.3,24.1 37.2,24 L37,23.5 C36.9,23.3 37.1,23.2 37.2,23.1 C37.4,23 37.5,23.2 37.6,23.3 L37.8,23.8 C37.9,23.9 37.8,24.1 37.5,24.2 L37.5,24.2 Z" id="Path" fill="#1A2E35"></path>
                        <g transform="translate(16.000000, 10.000000)">
                            <path d="M0.5,3.5 C0.5,3.7 0.6,3.8 0.6,4 C1,5.3 2.2,6.1 3.4,5.8 C4.5,5.5 5.1,4.2 4.8,2.9 C4.4,1.6 3.2,0.8 2,1.1 C1.8,1.1 1.8,1.2 1.6,1.3 C1.6,2.2 1.2,3.1 0.5,3.5 Z" id="Path" fill="#FFFFFF"></path>
                            <path d="M2.8,6.3 C1.7,6.3 0.6,5.5 0.3,4.2 C0.2,4 0.2,3.8 0.2,3.6 C0.2,3.4 0.3,3.4 0.4,3.3 C1.1,3 1.4,2.2 1.3,1.3 C1.3,1.1 1.4,1.1 1.5,1 C1.7,0.9 1.8,0.8 2,0.8 C3.3,0.4 4.8,1.3 5.2,2.8 C5.4,3.5 5.4,4.4 5,5.1 C4.7,5.7 4.2,6.1 3.6,6.2 C3.2,6.2 3,6.3 2.8,6.3 Z M0.8,3.7 C0.8,3.8 0.8,3.9 0.9,3.9 C1.2,5 2.3,5.8 3.3,5.5 C3.7,5.4 4,5.1 4.3,4.7 C4.5,4.2 4.6,3.6 4.5,3 C4.2,1.9 3.1,1.2 2.1,1.4 C2,1.4 2,1.4 1.9,1.5 C1.9,2.4 1.5,3.3 0.8,3.7 Z" id="Shape" fill="#1A2E35"></path>
                        </g>
                    </g>
                    <path d="M81.9,52.6 C79.3,52.4 77.8,49.8 76.3,49.4 C74.7,49 73.7,48.6 73.7,48.6 C73.7,48.6 73.1,46.7 72.3,47.4 C71.5,48.1 70.4,62.2 71.5,61.8 C72.6,61.4 72.6,63 72.6,63 L82.4,71.6 L90.7,57.2 C90.6,57.1 84.6,52.9 81.9,52.6 Z" id="Path" fill="#1A2E35"></path>
                    <g>
                        <g transform="translate(1.000000, 1.000000)" fill="#1A2E35">
                            <path d="M0.9,1.6 C0.7,1.6 0.6,1.4 0.6,1.3 L0.6,1 C0.6,0.8 0.8,0.7 0.9,0.7 L1.2,0.7 C1.4,0.7 1.5,0.9 1.5,1 C1.5,1.1 1.3,1.3 1.2,1.3 C1.3,1.4 1.1,1.6 0.9,1.6 Z" id="Path"></path>
                            <path d="M36.5,1.3 L35.8,1.3 C35.6,1.3 35.5,1.1 35.5,1 C35.5,0.9 35.7,0.7 35.8,0.7 L36.5,0.7 C36.7,0.7 36.8,0.9 36.8,1 C36.8,1.1 36.6,1.3 36.5,1.3 Z M33.8,1.3 L33.1,1.3 C32.9,1.3 32.8,1.1 32.8,1 C32.8,0.9 33,0.7 33.1,0.7 L33.8,0.7 C34,0.7 34.1,0.9 34.1,1 C34.1,1.1 33.9,1.3 33.8,1.3 Z M31.1,1.3 L30.4,1.3 C30.2,1.3 30.1,1.1 30.1,1 C30.1,0.9 30.3,0.7 30.4,0.7 L31.1,0.7 C31.3,0.7 31.4,0.9 31.4,1 C31.4,1.1 31.2,1.3 31.1,1.3 Z M28.4,1.3 L27.7,1.3 C27.5,1.3 27.4,1.1 27.4,1 C27.4,0.9 27.6,0.7 27.7,0.7 L28.4,0.7 C28.6,0.7 28.7,0.9 28.7,1 C28.7,1.1 28.5,1.3 28.4,1.3 Z M25.7,1.3 L25,1.3 C24.8,1.3 24.7,1.1 24.7,1 C24.7,0.9 24.9,0.7 25,0.7 L25.7,0.7 C25.9,0.7 26,0.9 26,1 C26,1.1 25.8,1.3 25.7,1.3 Z M23,1.3 L22.3,1.3 C22.1,1.3 22,1.1 22,1 C22,0.9 22.2,0.7 22.3,0.7 L23,0.7 C23.2,0.7 23.3,0.9 23.3,1 C23.3,1.1 23.1,1.3 23,1.3 Z M20.3,1.3 L19.6,1.3 C19.4,1.3 19.3,1.1 19.3,1 C19.3,0.9 19.5,0.7 19.6,0.7 L20.3,0.7 C20.5,0.7 20.6,0.9 20.6,1 C20.6,1.1 20.4,1.3 20.3,1.3 Z M17.5,1.3 L16.8,1.3 C16.6,1.3 16.5,1.1 16.5,1 C16.5,0.9 16.7,0.7 16.8,0.7 L17.5,0.7 C17.7,0.7 17.8,0.9 17.8,1 C17.8,1.1 17.7,1.3 17.5,1.3 Z M14.8,1.3 L14.1,1.3 C13.9,1.3 13.8,1.1 13.8,1 C13.8,0.9 14,0.7 14.1,0.7 L14.8,0.7 C15,0.7 15.1,0.9 15.1,1 C15.1,1.1 15,1.3 14.8,1.3 Z M12.1,1.3 L11.4,1.3 C11.2,1.3 11.1,1.1 11.1,1 C11.1,0.9 11.3,0.7 11.4,0.7 L12.1,0.7 C12.3,0.7 12.4,0.9 12.4,1 C12.4,1.1 12.2,1.3 12.1,1.3 Z M9.4,1.3 L8.7,1.3 C8.5,1.3 8.4,1.1 8.4,1 C8.4,0.9 8.6,0.7 8.7,0.7 L9.4,0.7 C9.6,0.7 9.7,0.9 9.7,1 C9.7,1.1 9.5,1.3 9.4,1.3 Z M6.7,1.3 L6,1.3 C5.8,1.3 5.7,1.1 5.7,1 C5.7,0.9 5.9,0.7 6,0.7 L6.7,0.7 C6.9,0.7 7,0.9 7,1 C7,1.1 6.8,1.3 6.7,1.3 Z M4,1.3 L3.3,1.3 C3.1,1.3 3,1.1 3,1 C3,0.9 3.2,0.7 3.3,0.7 L4,0.7 C4.2,0.7 4.3,0.9 4.3,1 C4.3,1.1 4.1,1.3 4,1.3 Z" id="Shape"></path>
                            <path d="M38.8,1.6 C38.6,1.6 38.5,1.4 38.5,1.3 C38.3,1.3 38.2,1.1 38.2,1 C38.2,0.9 38.4,0.7 38.5,0.7 L38.8,0.7 C39,0.7 39.1,0.9 39.1,1 L39.1,1.3 C39.2,1.4 39,1.6 38.8,1.6 Z" id="Path"></path>
                            <path d="M38.8,24.1 C38.6,24.1 38.5,23.9 38.5,23.8 L38.5,23.1 C38.5,22.9 38.7,22.8 38.8,22.8 C39,22.8 39.1,23 39.1,23.1 L39.1,23.8 C39.2,23.9 39,24.1 38.8,24.1 Z M38.8,21.6 C38.6,21.6 38.5,21.4 38.5,21.3 L38.5,20.6 C38.5,20.4 38.7,20.3 38.8,20.3 C39,20.3 39.1,20.5 39.1,20.6 L39.1,21.3 C39.2,21.5 39,21.6 38.8,21.6 Z M38.8,19.1 C38.6,19.1 38.5,18.9 38.5,18.8 L38.5,18.1 C38.5,17.9 38.7,17.8 38.8,17.8 C39,17.8 39.1,18 39.1,18.1 L39.1,18.8 C39.2,18.9 39,19.1 38.8,19.1 Z M38.8,16.6 C38.6,16.6 38.5,16.4 38.5,16.3 L38.5,15.6 C38.5,15.4 38.7,15.3 38.8,15.3 C39,15.3 39.1,15.5 39.1,15.6 L39.1,16.3 C39.2,16.5 39,16.6 38.8,16.6 Z M38.8,14.1 C38.6,14.1 38.5,13.9 38.5,13.8 L38.5,13.1 C38.5,12.9 38.7,12.8 38.8,12.8 C39,12.8 39.1,13 39.1,13.1 L39.1,13.8 C39.2,13.9 39,14.1 38.8,14.1 Z M38.8,11.6 C38.6,11.6 38.5,11.4 38.5,11.3 L38.5,10.6 C38.5,10.4 38.7,10.3 38.8,10.3 C39,10.3 39.1,10.5 39.1,10.6 L39.1,11.3 C39.2,11.4 39,11.6 38.8,11.6 Z M38.8,9.1 C38.6,9.1 38.5,8.9 38.5,8.8 L38.5,8.1 C38.5,7.9 38.7,7.8 38.8,7.8 C39,7.8 39.1,8 39.1,8.1 L39.1,8.8 C39.2,8.9 39,9.1 38.8,9.1 Z M38.8,6.6 C38.6,6.6 38.5,6.4 38.5,6.3 L38.5,5.6 C38.5,5.4 38.7,5.3 38.8,5.3 C39,5.3 39.1,5.5 39.1,5.6 L39.1,6.3 C39.2,6.4 39,6.6 38.8,6.6 Z M38.8,4.1 C38.6,4.1 38.5,3.9 38.5,3.8 L38.5,3.1 C38.5,2.9 38.7,2.8 38.8,2.8 C39,2.8 39.1,3 39.1,3.1 L39.1,3.8 C39.2,4 39,4.1 38.8,4.1 Z" id="Shape"></path>
                            <path d="M38.8,26.3 L38.5,26.3 C38.3,26.3 38.2,26.1 38.2,26 C38.2,25.8 38.4,25.7 38.5,25.7 C38.5,25.5 38.7,25.4 38.8,25.4 C39,25.4 39.1,25.6 39.1,25.7 L39.1,26 C39.2,26.1 39,26.3 38.8,26.3 Z" id="Path"></path>
                            <path d="M36.5,26.3 L35.8,26.3 C35.6,26.3 35.5,26.1 35.5,26 C35.5,25.8 35.7,25.7 35.8,25.7 L36.5,25.7 C36.7,25.7 36.8,25.9 36.8,26 C36.8,26.1 36.6,26.3 36.5,26.3 Z M33.8,26.3 L33.1,26.3 C32.9,26.3 32.8,26.1 32.8,26 C32.8,25.8 33,25.7 33.1,25.7 L33.8,25.7 C34,25.7 34.1,25.9 34.1,26 C34.1,26.1 33.9,26.3 33.8,26.3 Z M31.1,26.3 L30.4,26.3 C30.2,26.3 30.1,26.1 30.1,26 C30.1,25.8 30.3,25.7 30.4,25.7 L31.1,25.7 C31.3,25.7 31.4,25.9 31.4,26 C31.4,26.1 31.2,26.3 31.1,26.3 Z M28.4,26.3 L27.7,26.3 C27.5,26.3 27.4,26.1 27.4,26 C27.4,25.8 27.6,25.7 27.7,25.7 L28.4,25.7 C28.6,25.7 28.7,25.9 28.7,26 C28.7,26.1 28.5,26.3 28.4,26.3 Z M25.7,26.3 L25,26.3 C24.8,26.3 24.7,26.1 24.7,26 C24.7,25.8 24.9,25.7 25,25.7 L25.7,25.7 C25.9,25.7 26,25.9 26,26 C26,26.1 25.8,26.3 25.7,26.3 Z M23,26.3 L22.3,26.3 C22.1,26.3 22,26.1 22,26 C22,25.8 22.2,25.7 22.3,25.7 L23,25.7 C23.2,25.7 23.3,25.9 23.3,26 C23.3,26.1 23.1,26.3 23,26.3 Z M20.3,26.3 L19.6,26.3 C19.4,26.3 19.3,26.1 19.3,26 C19.3,25.8 19.5,25.7 19.6,25.7 L20.3,25.7 C20.5,25.7 20.6,25.9 20.6,26 C20.6,26.1 20.4,26.3 20.3,26.3 Z M17.5,26.3 L16.8,26.3 C16.6,26.3 16.5,26.1 16.5,26 C16.5,25.8 16.7,25.7 16.8,25.7 L17.5,25.7 C17.7,25.7 17.8,25.9 17.8,26 C17.8,26.1 17.7,26.3 17.5,26.3 Z M14.8,26.3 L14.1,26.3 C13.9,26.3 13.8,26.1 13.8,26 C13.8,25.8 14,25.7 14.1,25.7 L14.8,25.7 C15,25.7 15.1,25.9 15.1,26 C15.1,26.1 15,26.3 14.8,26.3 Z M12.1,26.3 L11.4,26.3 C11.2,26.3 11.1,26.1 11.1,26 C11.1,25.8 11.3,25.7 11.4,25.7 L12.1,25.7 C12.3,25.7 12.4,25.9 12.4,26 C12.4,26.1 12.2,26.3 12.1,26.3 Z M9.4,26.3 L8.7,26.3 C8.5,26.3 8.4,26.1 8.4,26 C8.4,25.8 8.6,25.7 8.7,25.7 L9.4,25.7 C9.6,25.7 9.7,25.9 9.7,26 C9.7,26.1 9.5,26.3 9.4,26.3 Z M6.7,26.3 L6,26.3 C5.8,26.3 5.7,26.1 5.7,26 C5.7,25.8 5.9,25.7 6,25.7 L6.7,25.7 C6.9,25.7 7,25.9 7,26 C7,26.1 6.8,26.3 6.7,26.3 Z M4,26.3 L3.3,26.3 C3.1,26.3 3,26.1 3,26 C3,25.8 3.2,25.7 3.3,25.7 L4,25.7 C4.2,25.7 4.3,25.9 4.3,26 C4.3,26.1 4.1,26.3 4,26.3 Z" id="Shape"></path>
                            <path d="M1.3,26.3 L1,26.3 C0.8,26.3 0.7,26.1 0.7,26 L0.7,25.7 C0.7,25.5 0.9,25.4 1,25.4 C1.1,25.4 1.3,25.6 1.3,25.7 C1.5,25.7 1.6,25.9 1.6,26 C1.6,26.1 1.4,26.3 1.3,26.3 Z" id="Path"></path>
                            <path d="M0.9,24.1 C0.7,24.1 0.6,23.9 0.6,23.8 L0.6,23.1 C0.6,22.9 0.8,22.8 0.9,22.8 C1,22.8 1.2,23 1.2,23.1 L1.2,23.8 C1.3,23.9 1.1,24.1 0.9,24.1 Z M0.9,21.6 C0.7,21.6 0.6,21.4 0.6,21.3 L0.6,20.6 C0.6,20.4 0.8,20.3 0.9,20.3 C1,20.3 1.2,20.5 1.2,20.6 L1.2,21.3 C1.3,21.5 1.1,21.6 0.9,21.6 Z M0.9,19.1 C0.7,19.1 0.6,18.9 0.6,18.8 L0.6,18.1 C0.6,17.9 0.8,17.8 0.9,17.8 C1,17.8 1.2,18 1.2,18.1 L1.2,18.8 C1.3,18.9 1.1,19.1 0.9,19.1 Z M0.9,16.6 C0.7,16.6 0.6,16.4 0.6,16.3 L0.6,15.6 C0.6,15.4 0.8,15.3 0.9,15.3 C1,15.3 1.2,15.5 1.2,15.6 L1.2,16.3 C1.3,16.5 1.1,16.6 0.9,16.6 Z M0.9,14.1 C0.7,14.1 0.6,13.9 0.6,13.8 L0.6,13.1 C0.6,12.9 0.8,12.8 0.9,12.8 C1,12.8 1.2,13 1.2,13.1 L1.2,13.8 C1.3,13.9 1.1,14.1 0.9,14.1 Z M0.9,11.6 C0.7,11.6 0.6,11.4 0.6,11.3 L0.6,10.6 C0.6,10.4 0.8,10.3 0.9,10.3 C1,10.3 1.2,10.5 1.2,10.6 L1.2,11.3 C1.3,11.4 1.1,11.6 0.9,11.6 Z M0.9,9.1 C0.7,9.1 0.6,8.9 0.6,8.8 L0.6,8.1 C0.6,7.9 0.8,7.8 0.9,7.8 C1,7.8 1.2,8 1.2,8.1 L1.2,8.8 C1.3,8.9 1.1,9.1 0.9,9.1 Z M0.9,6.6 C0.7,6.6 0.6,6.4 0.6,6.3 L0.6,5.6 C0.6,5.4 0.8,5.3 0.9,5.3 C1,5.3 1.2,5.5 1.2,5.6 L1.2,6.3 C1.3,6.4 1.1,6.6 0.9,6.6 Z M0.9,4.1 C0.7,4.1 0.6,3.9 0.6,3.8 L0.6,3.1 C0.6,2.9 0.8,2.8 0.9,2.8 C1,2.8 1.2,3 1.2,3.1 L1.2,3.8 C1.3,4 1.1,4.1 0.9,4.1 Z" id="Shape"></path>
                        </g>
                        <g transform="translate(19.000000, 0.000000)">
                            <circle id="Oval" fill="#FFA981" cx="1.8" cy="1.9" r="1"></circle>
                            <path d="M1.8,2.9 C1.3,2.9 0.8,2.5 0.8,1.9 C0.8,1.4 1.2,0.9 1.8,0.9 C2.4,0.9 2.8,1.3 2.8,1.9 C2.8,2.4 2.4,2.9 1.8,2.9 Z M1.8,1.6 C1.6,1.6 1.5,1.8 1.5,1.9 C1.5,2 1.7,2.2 1.8,2.2 C1.9,2.2 2.1,2 2.1,1.9 C2.1,1.8 2,1.6 1.8,1.6 Z" id="Shape" fill="#1A2E35"></path>
                        </g>
                        <g transform="translate(0.000000, 13.000000)">
                            <circle id="Oval" fill="#FFA981" cx="1.9" cy="1.5" r="1"></circle>
                            <path d="M1.9,2.4 C1.4,2.4 0.9,2 0.9,1.4 C0.9,0.8 1.3,0.4 1.9,0.4 C2.4,0.4 2.9,0.8 2.9,1.4 C2.9,2 2.4,2.4 1.9,2.4 Z M1.9,1.1 C1.7,1.1 1.6,1.3 1.6,1.4 C1.6,1.5 1.8,1.7 1.9,1.7 C2,1.7 2.2,1.5 2.2,1.4 C2.2,1.3 2.1,1.1 1.9,1.1 Z" id="Shape" fill="#1A2E35"></path>
                        </g>
                        <g transform="translate(19.000000, 26.000000)">
                            <circle id="Oval" fill="#FFA981" cx="1.8" cy="1" r="1"></circle>
                            <path d="M1.8,2 C1.3,2 0.8,1.6 0.8,1 C0.8,0.5 1.2,0 1.8,0 C2.4,0 2.8,0.4 2.8,1 C2.8,1.5 2.4,2 1.8,2 Z M1.8,0.6 C1.6,0.6 1.5,0.8 1.5,0.9 C1.5,1 1.7,1.2 1.8,1.2 C1.9,1.2 2.1,1 2.1,0.9 C2.2,0.8 2,0.6 1.8,0.6 Z" id="Shape" fill="#1A2E35"></path>
                        </g>
                        <g transform="translate(38.000000, 13.000000)">
                            <circle id="Oval" fill="#FFA981" cx="1.8" cy="1.5" r="1"></circle>
                            <path d="M1.8,2.4 C1.3,2.4 0.8,2 0.8,1.4 C0.8,0.8 1.2,0.4 1.8,0.4 C2.3,0.4 2.8,0.8 2.8,1.4 C2.8,2 2.3,2.4 1.8,2.4 Z M1.8,1.1 C1.6,1.1 1.5,1.3 1.5,1.4 C1.5,1.5 1.7,1.7 1.8,1.7 C2,1.7 2.1,1.5 2.1,1.4 C2.1,1.3 2,1.1 1.8,1.1 Z" id="Shape" fill="#1A2E35"></path>
                        </g>
                        <g transform="translate(38.000000, 25.000000)">
                            <rect id="Rectangle" fill="#FFA981" x="1.1" y="1.2" width="1.5" height="1.5"></rect>
                            <path d="M2.6,3 L1.1,3 C0.9,3 0.8,2.8 0.8,2.7 L0.8,1.2 C0.8,1 1,0.9 1.1,0.9 L2.6,0.9 C2.8,0.9 2.9,1.1 2.9,1.2 L2.9,2.7 C2.9,2.9 2.7,3 2.6,3 Z M1.4,2.4 L2.2,2.4 L2.2,1.6 L1.4,1.6 L1.4,2.4 Z" id="Shape" fill="#1A2E35"></path>
                        </g>
                        <g transform="translate(38.000000, 0.000000)">
                            <rect id="Rectangle" fill="#FFA981" x="1.1" y="1.2" width="1.5" height="1.5"></rect>
                            <path d="M2.6,3 L1.1,3 C0.9,3 0.8,2.8 0.8,2.7 L0.8,1.2 C0.8,1 1,0.9 1.1,0.9 L2.6,0.9 C2.8,0.9 2.9,1.1 2.9,1.2 L2.9,2.7 C2.9,2.8 2.7,3 2.6,3 Z M1.4,2.3 L2.2,2.3 L2.2,1.5 L1.4,1.5 L1.4,2.3 Z" id="Shape" fill="#1A2E35"></path>
                        </g>
                        <g transform="translate(0.000000, 25.000000)">
                            <rect id="Rectangle" fill="#FFA981" x="1.2" y="1.2" width="1.5" height="1.5"></rect>
                            <path d="M2.7,3 L1.2,3 C1,3 0.9,2.8 0.9,2.7 L0.9,1.2 C0.9,1 1.1,0.9 1.2,0.9 L2.7,0.9 C2.9,0.9 3,1.1 3,1.2 L3,2.7 C3,2.9 2.8,3 2.7,3 Z M1.5,2.4 L2.3,2.4 L2.3,1.6 L1.5,1.6 L1.5,2.4 Z" id="Shape" fill="#1A2E35"></path>
                        </g>
                        <g>
                            <rect id="Rectangle" fill="#FFA981" x="1.2" y="1.2" width="1.5" height="1.5"></rect>
                            <path d="M2.7,3 L1.2,3 C1,3 0.9,2.8 0.9,2.7 L0.9,1.2 C0.9,1 1.1,0.9 1.2,0.9 L2.7,0.9 C2.9,0.9 3,1.1 3,1.2 L3,2.7 C3,2.8 2.8,3 2.7,3 Z M1.5,2.3 L2.3,2.3 L2.3,1.5 L1.5,1.5 L1.5,2.3 Z" id="Shape" fill="#1A2E35"></path>
                        </g>
                    </g>
                    <g transform="translate(4.000000, 3.000000)">
                        <g>
                            <rect id="Rectangle" fill="#FFFFFF" x="0.5" y="1.1" width="33" height="20.8"></rect>
                            <path d="M33.5,22.3 L0.5,22.3 C0.3,22.3 0.2,22.1 0.2,22 L0.2,1.2 C0.2,1 0.4,0.9 0.5,0.9 L33.5,0.9 C33.7,0.9 33.8,1.1 33.8,1.2 L33.8,22 C33.8,22.1 33.6,22.3 33.5,22.3 Z M0.8,21.6 L33.1,21.6 L33.1,1.5 L0.8,1.5 L0.8,21.6 Z" id="Shape" fill="#1A2E35"></path>
                        </g>
                        <g transform="translate(0.000000, 6.000000)">
                            <polygon id="Path" fill="#FFA981" points="33.5 9.8 29.8 13.4 19.9 3.6 15.7 7.7 9 1.1 0.5 9.6 0.5 15.9 33.5 15.9"></polygon>
                            <path d="M33.5,16.3 L0.5,16.3 C0.3,16.3 0.2,16.1 0.2,16 L0.2,9.7 C0.2,9.6 0.2,9.5 0.3,9.5 L8.9,1 C9.1,0.8 9.2,0.8 9.4,1 L15.9,7.4 L19.8,3.5 C20,3.3 20.1,3.3 20.3,3.5 L30,13.1 L33.4,9.7 C33.5,9.6 33.6,9.6 33.7,9.6 C33.9,9.7 33.9,9.8 33.9,9.9 L33.9,16 C33.8,16.1 33.6,16.3 33.5,16.3 Z M0.8,15.6 L33.1,15.6 L33.1,10.6 L30,13.7 C29.8,13.9 29.7,13.9 29.5,13.7 L19.8,4.1 L15.9,8 C15.7,8.2 15.6,8.2 15.4,8 L8.9,1.6 L0.6,9.8 L0.8,15.6 L0.8,15.6 Z" id="Shape" fill="#1A2E35"></path>
                        </g>
                        <g transform="translate(24.000000, 4.000000)">
                            <circle id="Oval" fill="#FFA981" cx="2.6" cy="3" r="2.3"></circle>
                            <path d="M2.6,5.6 C1.1,5.6 0,4.5 0,3 C0,1.5 1.2,0.4 2.6,0.4 C4.1,0.4 5.2,1.5 5.2,3 C5.2,4.5 4.1,5.6 2.6,5.6 Z M2.6,1.1 C1.5,1.1 0.6,2 0.6,3.1 C0.6,4.2 1.5,5.1 2.6,5.1 C3.7,5.1 4.6,4.2 4.6,3.1 C4.6,2 3.7,1.1 2.6,1.1 Z" id="Shape" fill="#1A2E35"></path>
                        </g>
                    </g>
                    <path d="M80.9,68.6 L80.9,68.6 C80.7,68.6 80.6,68.4 80.6,68.3 C80.9,61.2 83.4,56.6 83.5,56.3 C83.6,56.1 83.7,56.1 83.9,56.1 C84.1,56.2 84.1,56.3 84.1,56.5 C84.1,56.6 81.6,61.2 81.3,68.1 C81.2,68.5 81,68.6 80.9,68.6 Z" id="Path" fill="#FFFFFF"></path>
                    <path d="M79.2,66.8 C79.1,66.8 79,66.7 79,66.6 C76.8,63.7 76,59.8 76,59.6 C76,59.4 76.1,59.3 76.2,59.2 C76.4,59.2 76.5,59.3 76.6,59.4 C76.6,59.4 77.3,63.3 79.5,66.1 C79.6,66.3 79.6,66.4 79.4,66.6 C79.4,66.8 79.3,66.8 79.2,66.8 Z" id="Path" fill="#FFFFFF"></path>
                    <path d="M98.7,92.4 C98.6,92.4 98.6,92.4 98.5,92.4 C90.2,88.7 86.5,76.8 86.3,76.2 C86.2,76 86.4,75.9 86.5,75.8 C86.7,75.7 86.8,75.9 86.9,76 C86.9,76.1 90.7,88.3 98.8,91.8 C99,91.9 99,92 99,92.2 C99,92.3 98.9,92.4 98.7,92.4 Z" id="Path" fill="#FFFFFF"></path>
                    <path d="M96.7,53.7 C96.7,53.7 96.4,56.4 93.8,56.6 C93.6,55.9 93.1,55.3 92.7,54.6 C94.3,54.1 96.7,53.7 96.7,53.7 Z" id="Path" fill="#1A2E35"></path>
                    <g transform="translate(87.000000, 32.000000)">
                        <g transform="translate(0.000000, 3.000000)" id="Path">
                            <path d="M15.2,18.9 C15.2,18.9 19.5,19.4 21.4,13.6 C23.2,7.8 21.8,3.4 14.5,1.3 C10.5,0.2 6.5,1.1 5,4.1 C3.8,6.6 4.3,8.8 4.1,9.7 C3.8,10.7 0.8,11.5 0.8,12.2 C0.8,12.8 2.4,13.7 2.4,13.7 L1.9,15.2 L2.4,15.4 C2.4,15.4 1.6,18.7 1.9,19.8 C2.1,20.6 9.6,20.9 10.2,18.9" fill="#FFFFFF"></path>
                            <path d="M5.6,20.7 C4.6,20.7 2,20.6 1.8,19.8 C1.5,18.7 2,16.3 2.2,15.5 L2,15.4 C1.8,15.3 1.8,15.2 1.8,15 L2.2,13.8 C1.6,13.5 0.6,12.7 0.6,12.2 C0.6,11.7 1.3,11.3 2.2,10.9 C2.9,10.6 3.8,10.1 3.9,9.7 C4,9.5 4,9 4,8.6 C4,7.5 4,5.9 4.9,4.1 C6.4,1.1 10.4,-0.2 14.7,1.2 C18.2,2.2 20.4,3.7 21.7,5.9 C22.8,8 22.8,10.6 21.9,13.8 C20,19.8 15.4,19.3 15.4,19.3 C15.2,19.3 15.1,19.1 15.1,19 C15.1,18.9 15.3,18.7 15.4,18.7 C15.6,18.7 19.5,19.1 21.2,13.6 C22.2,10.5 22.2,8 21.1,6.1 C20,4.1 17.9,2.7 14.6,1.7 C10.6,0.6 6.8,1.6 5.5,4.3 C4.7,5.9 4.7,7.4 4.7,8.6 C4.7,9.2 4.7,9.6 4.6,9.9 C4.4,10.6 3.5,11 2.6,11.5 C2.1,11.7 1.5,12.1 1.4,12.3 C1.4,12.5 2.1,13 2.9,13.4 C3.1,13.5 3.1,13.6 3.1,13.8 L2.7,14.9 L2.9,15 C3.1,15.1 3.1,15.2 3.1,15.4 C2.9,16.3 2.4,18.8 2.6,19.6 C2.9,19.9 6.1,20.3 8.5,19.8 C9.5,19.6 10.1,19.2 10.2,18.7 C10.3,18.5 10.4,18.5 10.6,18.5 C10.8,18.6 10.8,18.7 10.8,18.9 C10.4,20.4 7.4,20.6 6.1,20.7 C5.9,20.7 5.8,20.7 5.6,20.7 Z" fill="#1A2E35"></path>
                        </g>
                        <path d="M7,10.6 C6.9,10.6 6.8,10.5 6.7,10.4 C6.5,9.9 5.4,9.5 5.1,9.4 C4.9,9.3 4.9,9.2 4.9,9 C5,8.8 5.1,8.8 5.3,8.8 C5.5,8.8 6.9,9.2 7.3,10.1 C7.3,10.3 7.2,10.5 7,10.6 C7.1,10.6 7,10.6 7,10.6 Z" id="Path" fill="#1A2E35"></path>
                        <path d="M5.4,12.5 C5.3,12.9 5.4,13.3 5.6,13.3 C5.8,13.3 6,13 6,12.6 C6.1,12.2 6,11.8 5.8,11.8 C5.6,11.8 5.5,12.1 5.4,12.5 Z" id="Path" fill="#1A2E35"></path>
                        <path d="M4.9,19.1 C3.8,19.1 2.5,18.6 2.4,18.5 C2.2,18.4 2.2,18.3 2.2,18.1 C2.3,17.9 2.4,17.9 2.6,17.9 C3.4,18.2 5,18.6 5.5,18.3 C5.7,18.2 5.8,18.2 6,18.4 C6.1,18.6 6.1,18.7 5.9,18.9 C5.6,19.1 5.3,19.1 4.9,19.1 Z" id="Path" fill="#1A2E35"></path>
                        <path d="M3.8,14.4 C3.7,14.4 3.7,14.4 3.6,14.4 C3.4,14.4 3.2,14.2 3.1,14.1 C2.9,13.7 2.8,13 2.9,12.2 L2.9,12.2 C3.1,11.1 3.7,10.2 4.4,10.4 C4.6,10.4 4.8,10.6 4.9,10.7 C5.1,11.1 5.2,11.8 5.1,12.6 C5,13.6 4.5,14.4 3.8,14.4 Z M3.7,12.3 C3.6,13 3.7,13.4 3.8,13.7 C3.8,13.8 3.9,13.8 3.9,13.8 C4.1,13.8 4.5,13.4 4.6,12.5 C4.7,11.8 4.6,11.4 4.5,11.1 C4.5,11 4.4,11 4.4,11 C4.3,10.9 3.8,11.4 3.7,12.3 L3.7,12.3 Z" id="Shape" fill="#1A2E35"></path>
                        <path d="M21.6,7.4 C21.6,7.4 21.3,4.9 18.8,3.2 C16.4,1.4 13.5,1.1 13.5,1.1 C13.5,1.1 14.9,1.7 15.5,2.5 C15.5,2.5 11.9,-0.2 7.6,1.6 C3.3,3.4 3.8,8 3.8,8 L4.5,6.8 C4.5,6.8 4.4,8.2 5.2,8.8 C5.2,8.8 5.7,7.4 6.1,6.8 C6.1,6.8 7.2,10.2 10.4,11.3 C10.4,11.3 10.1,10.6 10.3,9.7 C10.3,9.7 12,13.4 11.5,15.3 L12.1,16.3 C12.1,16.3 14.1,14.3 15.7,16 C16.6,17 13.9,20.6 13.6,20.6 L15.2,23 C15.2,23 19.3,23.6 21.7,19.2 C24.1,14.8 23.5,12.9 23.5,12.9 C23.5,12.9 24.2,14 24.4,14.6 C24.2,14.2 24.9,9.6 21.6,7.4 Z" id="Path" fill="#1A2E35"></path>
                        <g transform="translate(11.000000, 12.000000)" id="Path">
                            <path d="M1,4.4 C1,4.4 2.2,0.2 4.9,1.7 C7.6,3.2 5.6,5.5 4.7,6.3 C3.7,7.1 3,8.8 2.4,8.8 C1.7,8.8 1.7,8.1 1.7,8.1" fill="#FFFFFF"></path>
                            <path d="M2.4,9.1 C1.7,9.1 1.3,8.4 1.3,8 C1.3,7.8 1.4,7.7 1.5,7.6 C1.7,7.6 1.8,7.7 1.9,7.8 C1.9,7.8 2,8.3 2.3,8.3 C2.5,8.3 3,7.7 3.3,7.3 C3.6,6.9 4,6.3 4.4,6 C4.8,5.7 6,4.5 5.9,3.4 C5.8,2.8 5.4,2.3 4.7,1.9 C4.1,1.6 3.6,1.6 3.1,1.7 C1.8,2.2 1.1,4.4 1.1,4.4 C1,4.6 0.9,4.6 0.7,4.6 C0.5,4.5 0.5,4.4 0.5,4.2 C0.5,4.1 1.2,1.7 2.9,1.1 C3.6,0.9 4.3,0.9 5,1.3 C5.9,1.8 6.5,2.4 6.6,3.3 C6.8,4.7 5.5,6 5,6.5 C4.6,6.8 4.3,7.3 3.9,7.7 C3.3,8.5 2.9,9.1 2.4,9.1 Z" fill="#1A2E35"></path>
                        </g>
                        <path d="M12.4,14.3 C12.4,14.3 12.4,14.3 12.4,14.3 L4.9,12.7 C4.7,12.7 4.6,12.5 4.7,12.3 C4.7,12.1 4.9,12 5.1,12.1 L12.6,13.7 C12.8,13.7 12.9,13.9 12.8,14.1 C12.7,14.2 12.5,14.3 12.4,14.3 Z" id="Path" fill="#1A2E35"></path>
                    </g>
                </g>
            </g>
        </g>
    </g>
</svg>