<?xml version="1.0" encoding="UTF-8"?>
<svg width="250px" height="250px" viewBox="0 0 250 250" version="1.1" xmlns="http://www.w3.org/2000/svg" xmlns:xlink="http://www.w3.org/1999/xlink">
    <title>feature-4</title>
    <g id="share" stroke="none" stroke-width="1" fill="none" fill-rule="evenodd">
        <g id="feature-4">
            <circle id="Oval" fill="#1AD8B4" cx="125" cy="125" r="125"></circle>
            <g id="Group" transform="translate(41.000000, 43.000000)">
                <g transform="translate(29.000000, 15.000000)" stroke="#1A2E35" stroke-linejoin="round">
                    <g transform="translate(0.000000, 0.708874)" id="Path">
                        <line x1="98.9373239" y1="0.5" x2="96.4478873" y2="0.5"></line>
                        <line x1="91.5401408" y1="0.5" x2="5.33450704" y2="0.5" stroke-dasharray="6.9269,6.9269"></line>
                        <line x1="2.84507042" y1="0.5" x2="0.355633803" y2="0.5"></line>
                    </g>
                    <g transform="translate(99.577465, 1.417749)" id="Path">
                        <line x1="0.5" y1="117.38961" x2="0.5" y2="114.90855"></line>
                        <line x1="0.5" y1="110.088203" x2="0.5" y2="5.52922078" stroke-dasharray="6.858,6.858"></line>
                        <line x1="0.5" y1="3.11904762" x2="0.5" y2="0.637987013"></line>
                    </g>
                    <rect id="Rectangle" x="98.9373239" y="0.0708874459" width="1.9915493" height="1.98484848"></rect>
                </g>
                <polygon id="Path" stroke="#1A2E35" stroke-linecap="round" stroke-linejoin="round" points="146 21.3349515 131 15 137.262136 30 139.009709 24.9029126 142.359223 28.2524272 144.252427 26.3592233 140.902913 23.0097087"></polygon>
                <g transform="translate(45.000000, 133.000000)" id="Path" stroke="#1A2E35" stroke-linecap="round" stroke-linejoin="round">
                    <g transform="translate(53.773585, 0.000000)">
                        <path d="M18.8207547,16.9291667 L4.45754717,16.9291667 C3.46698113,16.9291667 2.47641509,16.0791667 2.33490566,15.0875 L0.70754717,5.1 C0.566037736,4.10833333 1.20283019,3.25833333 2.26415094,3.25833333 L16.6273585,3.25833333 C17.6179245,3.25833333 18.6084906,4.10833333 18.75,5.1 L20.3773585,15.0875 C20.5188679,16.0791667 19.8113208,16.9291667 18.8207547,16.9291667 Z"></path>
                        <path d="M18.8207547,16.9291667 C19.8113208,16.9291667 20.6603774,16.0791667 20.6603774,15.0875 L20.6603774,3.75416667 C20.6603774,2.7625 19.8820755,1.98333333 18.9622642,1.9125 L18.5377358,0.779166667 C18.4669811,0.566666667 18.254717,0.425 18.0424528,0.425 L13.3726415,0.425 C13.1603774,0.425 12.9481132,0.566666667 12.8773585,0.779166667 L12.4528302,1.9125 L4.5990566,1.9125 C3.82075472,1.9125 3.11320755,2.40833333 2.83018868,3.1875"></path>
                    </g>
                    <g>
                        <path d="M18.6792453,16.9291667 L4.31603774,16.9291667 C3.3254717,16.9291667 2.33490566,16.0791667 2.19339623,15.0875 L0.566037736,5.1 C0.424528302,4.10833333 1.06132075,3.25833333 2.12264151,3.25833333 L16.4858491,3.25833333 C17.4764151,3.25833333 18.4669811,4.10833333 18.6084906,5.1 L20.2358491,15.0875 C20.3773585,16.0791667 19.6698113,16.9291667 18.6792453,16.9291667 Z"></path>
                        <path d="M18.6792453,16.9291667 C19.6698113,16.9291667 20.5188679,16.0791667 20.5188679,15.0875 L20.5188679,3.75416667 C20.5188679,2.7625 19.740566,1.98333333 18.8207547,1.9125 L18.3962264,0.779166667 C18.3254717,0.566666667 18.1132075,0.425 17.9009434,0.425 L13.2311321,0.425 C13.0188679,0.425 12.8066038,0.566666667 12.7358491,0.779166667 L12.3113208,1.9125 L4.45754717,1.9125 C3.67924528,1.9125 2.97169811,2.40833333 2.68867925,3.1875"></path>
                    </g>
                    <g transform="translate(26.886792, 0.000000)">
                        <path d="M18.75,16.9291667 L4.38679245,16.9291667 C3.39622642,16.9291667 2.40566038,16.0791667 2.26415094,15.0875 L0.636792453,5.1 C0.495283019,4.10833333 1.13207547,3.25833333 2.19339623,3.25833333 L16.5566038,3.25833333 C17.5471698,3.25833333 18.5377358,4.10833333 18.6792453,5.1 L20.3066038,15.0875 C20.4481132,16.0791667 19.740566,16.9291667 18.75,16.9291667 Z"></path>
                        <path d="M18.75,16.9291667 C19.740566,16.9291667 20.5896226,16.0791667 20.5896226,15.0875 L20.5896226,3.75416667 C20.5896226,2.7625 19.8113208,1.98333333 18.8915094,1.9125 L18.4669811,0.779166667 C18.3962264,0.566666667 18.1839623,0.425 17.9716981,0.425 L13.3018868,0.425 C13.0896226,0.425 12.8773585,0.566666667 12.8066038,0.779166667 L12.3820755,1.9125 L4.52830189,1.9125 C3.75,1.9125 3.04245283,2.40833333 2.75943396,3.1875"></path>
                    </g>
                </g>
                <g transform="translate(18.000000, 0.000000)">
                    <path d="M80.7969466,37.6502732 L84.7435115,32.8196721 C85.6763359,31.7540984 85.9633588,30.2622951 85.6763359,28.9125683 L81.9450382,11.7213115 C81.6580153,10.3715847 80.5099237,9.44808743 79.1465649,9.44808743 L71.8992366,9.44808743 C71.3969466,9.44808743 70.8946565,9.51912568 70.3923664,9.66120219 L0.287022901,38.0765027 L18.0824427,129.360656 C20.5938931,133.054645 90.6274809,109.114754 90.6274809,109.114754 C92.9236641,108.333333 94.2870229,105.989071 93.7129771,103.644809 L79.3618321,43.9016393 C78.859542,41.7704918 79.3618321,39.4262295 80.7969466,37.6502732 Z" id="Path" stroke="#1A2E35" fill="#5AE4A7" fill-rule="nonzero" stroke-linecap="round" stroke-linejoin="round"></path>
                    <path d="M70.5358779,11.5081967 L92.7083969,105.63388 C92.7083969,105.63388 17.7236641,133.26776 21.2396947,124.743169 C21.2396947,124.743169 3.37251908,40.6338798 4.87938931,40.3497268 C6.45801527,40.0655738 70.5358779,11.5081967 70.5358779,11.5081967 Z" id="Path" fill-opacity="0.7" fill="#000000" fill-rule="nonzero" opacity="0.3"></path>
                    <g transform="translate(7.175573, 9.945355)">
                        <g id="XMLID_548_-link" fill="#FFFFFF" fill-rule="nonzero">
                            <path d="M81.8732824,94.0546448 L17.221374,114.371585 L1.36335878,32.6775956 L0.430534351,28.0601093 L58.0503817,0.426229508 C59.1984733,-0.142076503 60.6335878,0.568306011 60.9923664,1.84699454 L62.2122137,6.46448087 L83.810687,90.3606557 C84.3129771,91.9945355 83.4519084,93.557377 81.8732824,94.0546448 Z" id="XMLID_548_"></path>
                        </g>
                        <path d="M62.2839695,6.46448087 L1.86564885,33.8142077 L0.502290076,27.989071 L58.1221374,0.355191257 C59.270229,-0.213114754 60.7053435,0.49726776 61.0641221,1.77595628 L62.2839695,6.46448087 Z" id="Path" fill="#1A2E35" fill-rule="nonzero"></path>
                        <path d="M59.1984733,4.40437158 C59.1984733,5.2568306 58.6244275,5.89617486 57.8351145,5.82513661 C57.1175573,5.75409836 56.4717557,5.04371585 56.4717557,4.19125683 C56.4717557,3.33879781 57.0458015,2.69945355 57.8351145,2.7704918 C58.6244275,2.84153005 59.1984733,3.62295082 59.1984733,4.40437158 Z" id="Path" stroke="#1A2E35" fill="#5AE4A7" fill-rule="nonzero" stroke-linecap="round" stroke-linejoin="round"></path>
                        <path d="M55.7541985,6.10928962 C55.7541985,6.89071038 55.1801527,7.45901639 54.5343511,7.45901639 C53.8167939,7.38797814 53.3145038,6.74863388 53.3145038,5.96721311 C53.3145038,5.18579235 53.8885496,4.61748634 54.5343511,4.61748634 C55.2519084,4.68852459 55.7541985,5.32786885 55.7541985,6.10928962 Z" id="Path" stroke="#1A2E35" fill="#5AE4A7" fill-rule="nonzero" stroke-linecap="round" stroke-linejoin="round"></path>
                        <path d="M52.5251908,7.6010929 C52.5251908,8.31147541 52.0229008,8.87978142 51.3770992,8.80874317 C50.7312977,8.73770492 50.2290076,8.16939891 50.2290076,7.38797814 C50.2290076,6.67759563 50.7312977,6.10928962 51.3770992,6.18032787 C52.0229008,6.25136612 52.5251908,6.89071038 52.5251908,7.6010929 Z" id="Path" stroke="#1A2E35" fill="#5AE4A7" fill-rule="nonzero" stroke-linecap="round" stroke-linejoin="round"></path>
                        <path d="M81.8732824,94.0546448 L17.221374,114.371585 L1.36335878,32.6775956 L0.430534351,28.0601093 L58.0503817,0.426229508 C59.1984733,-0.142076503 60.6335878,0.568306011 60.9923664,1.84699454 L62.2122137,6.46448087 L83.810687,90.3606557 C84.3129771,91.9945355 83.4519084,93.557377 81.8732824,94.0546448 Z" id="Path" fill-opacity="0.7" fill="#000000" fill-rule="nonzero" opacity="0.3"></path>
                        <g id="XMLID_548_-link" stroke-linecap="round" stroke-linejoin="round" stroke="#1A2E35">
                            <path d="M81.8732824,94.0546448 L17.221374,114.371585 L1.36335878,32.6775956 L0.430534351,28.0601093 L58.0503817,0.426229508 C59.1984733,-0.142076503 60.6335878,0.568306011 60.9923664,1.84699454 L62.2122137,6.46448087 L83.810687,90.3606557 C84.3129771,91.9945355 83.4519084,93.557377 81.8732824,94.0546448 Z" id="XMLID_548_"></path>
                        </g>
                    </g>
                    <g transform="translate(4.305344, 7.103825)" id="Path">
                        <path d="M80.940458,92.8469945 L17.1496183,117.639344 L1.50687023,37.010929 L0.645801527,32.3934426 L57.4763359,0.781420765 C58.6244275,0.142076503 60.059542,0.781420765 60.3465649,1.98907104 L61.4946565,6.53551913 L82.8061069,88.9398907 C83.3083969,90.6448087 82.4473282,92.2786885 80.940458,92.8469945 Z" stroke="#1A2E35" fill="#FFFFFF" fill-rule="nonzero" stroke-linecap="round" stroke-linejoin="round"></path>
                        <path d="M61.5664122,6.60655738 L2.00916031,38.147541 L0.645801527,32.4644809 L57.4763359,0.852459016 C58.6244275,0.213114754 60.059542,0.852459016 60.3465649,2.06010929 L61.5664122,6.60655738 Z" fill="#1A2E35" fill-rule="nonzero"></path>
                        <path d="M58.5526718,4.83060109 C58.5526718,5.68306011 57.978626,6.32240437 57.2610687,6.32240437 C56.5435115,6.32240437 55.9694656,5.61202186 55.9694656,4.83060109 C55.9694656,4.04918033 56.5435115,3.33879781 57.2610687,3.33879781 C57.978626,3.33879781 58.5526718,3.97814208 58.5526718,4.83060109 Z" stroke="#1A2E35" fill="#5AE4A7" fill-rule="nonzero" stroke-linecap="round" stroke-linejoin="round"></path>
                        <path d="M55.1801527,6.74863388 C55.1801527,7.53005464 54.6061069,8.16939891 53.9603053,8.16939891 C53.3145038,8.16939891 52.740458,7.53005464 52.740458,6.74863388 C52.740458,5.96721311 53.3145038,5.32786885 53.9603053,5.32786885 C54.6061069,5.32786885 55.1801527,5.96721311 55.1801527,6.74863388 Z" stroke="#1A2E35" fill="#5AE4A7" fill-rule="nonzero" stroke-linecap="round" stroke-linejoin="round"></path>
                        <path d="M51.951145,8.45355191 C51.951145,9.16393443 51.448855,9.73224044 50.8030534,9.73224044 C50.1572519,9.73224044 49.6549618,9.16393443 49.6549618,8.45355191 C49.6549618,7.7431694 50.1572519,7.17486339 50.8030534,7.17486339 C51.448855,7.10382514 51.951145,7.7431694 51.951145,8.45355191 Z" stroke="#1A2E35" fill="#5AE4A7" fill-rule="nonzero" stroke-linecap="round" stroke-linejoin="round"></path>
                        <path d="M60.9206107,8.66666667 L79.648855,81.4808743 C79.7206107,81.7650273 79.5770992,82.1202186 79.2900763,82.1912568 L77.5679389,82.9726776 C77.2091603,83.1147541 76.778626,82.9016393 76.7068702,82.5464481 L58.4091603,10.1584699 C58.3374046,9.80327869 58.480916,9.37704918 58.8396947,9.23497268 L60.2748092,8.45355191 C60.4900763,8.31147541 60.848855,8.38251366 60.9206107,8.66666667 Z" fill-opacity="0.7" fill="#000000" fill-rule="nonzero" opacity="0.3"></path>
                        <path d="M59.270229,10.7978142 L60.2748092,10.2295082 C60.7053435,10.0163934 61.2076336,10.2295082 61.351145,10.726776 L63.2885496,18.3278689 C63.3603053,18.6830601 63.2167939,19.1092896 62.8580153,19.3224044 L61.5664122,19.9617486 C61.2793893,20.1038251 60.848855,19.9617486 60.7770992,19.6065574 L58.7679389,11.7213115 C58.7679389,11.3661202 58.9114504,10.9398907 59.270229,10.7978142 Z" stroke="#1A2E35" fill="#BFBFBF" fill-rule="nonzero" stroke-linecap="round" stroke-linejoin="round"></path>
                        <line x1="68.670229" y1="92.3497268" x2="27.5541985" y2="109.114754" stroke="#000000" stroke-width="2" opacity="0.4" stroke-linecap="round" stroke-linejoin="round"></line>
                        <line x1="74.1954198" y1="87.2349727" x2="22.0290076" y2="109.114754" stroke="#000000" stroke-width="2" opacity="0.4" stroke-linecap="round" stroke-linejoin="round"></line>
                        <g transform="translate(44.488550, 11.366120)" fill="#000000" fill-opacity="0.7" fill-rule="nonzero" opacity="0.3">
                            <polygon points="24.6122137 53.8469945 20.378626 36.1584699 8.96946565 41.557377 13.1312977 59.1748634"></polygon>
                            <polygon points="4.30534351 21.8087432 8.2519084 38.6448087 19.6610687 33.1748634 15.5709924 15.9125683"></polygon>
                            <polygon points="15.2122137 14.420765 11.9114504 0.355191257 0.645801527 6.18032787 3.94656489 20.3169399"></polygon>
                            <polygon points="13.5618321 60.9508197 17.3648855 77.2185792 28.9175573 72.2459016 25.0427481 55.8360656"></polygon>
                        </g>
                    </g>
                    <g fill-rule="nonzero" id="Path">
                        <path d="M0.287022901,38.147541 L18.0824427,129.431694 C23.751145,123.038251 64.3648855,93.557377 64.3648855,93.557377 C67.5221374,91.284153 69.0290076,87.3770492 68.1679389,83.6120219 L49.3679389,3.83606557 C48.6503817,0.781420765 44.919084,-0.426229508 42.551145,1.70491803 C42.551145,1.70491803 4.80763359,25.147541 0.287022901,38.147541 Z" stroke="#1A2E35" fill="#5AE4A7" stroke-linecap="round" stroke-linejoin="round"></path>
                        <g transform="translate(5.022901, 1.420765)" fill="#FFFFFF" opacity="0.7">
                            <g transform="translate(57.404580, 78.142077)">
                                <path d="M2.51145038,6.96174863 C2.00916031,6.96174863 1.50687023,6.60655738 1.36335878,6.03825137 C1.07633588,4.75956284 0.717557252,3.40983607 0.430534351,2.13114754 C0.287022901,1.49180328 0.645801527,0.852459016 1.29160305,0.710382514 C1.93740458,0.568306011 2.58320611,0.923497268 2.72671756,1.56284153 C3.01374046,2.84153005 3.37251908,4.19125683 3.65954198,5.46994536 C3.80305344,6.10928962 3.44427481,6.74863388 2.79847328,6.89071038 C2.65496183,6.89071038 2.58320611,6.96174863 2.51145038,6.96174863 Z"></path>
                            </g>
                            <g>
                                <path d="M57.4763359,74.5901639 C56.9022901,74.5901639 56.4717557,74.2349727 56.3282443,73.6666667 L40.0396947,2.84153005 C40.0396947,2.84153005 40.0396947,2.7704918 39.9679389,2.7704918 C39.8961832,2.7704918 39.8244275,2.7704918 39.8244275,2.7704918 C35.6625954,5.54098361 21.4549618,14.9180328 14.9251908,20.1038251 C10.7633588,23.5846995 6.88854962,27.4918033 2.51145038,32.8907104 C2.08091603,33.3879781 1.36335878,33.4590164 0.861068702,33.1038251 C0.358778626,32.6775956 0.287022901,31.9672131 0.645801527,31.4699454 C5.16641221,25.9289617 9.04122137,21.8797814 13.4183206,18.3278689 C19.8763359,13.2131148 33.0793893,4.40437158 38.5328244,0.852459016 C39.2503817,0.426229508 40.1114504,0.284153005 40.9007634,0.639344262 C41.6900763,0.923497268 42.2641221,1.63387978 42.4076336,2.41530055 L58.6961832,73.2404372 C58.8396947,73.8797814 58.4091603,74.5191257 57.8351145,74.6612022 C57.6198473,74.5901639 57.5480916,74.5901639 57.4763359,74.5901639 Z"></path>
                            </g>
                        </g>
                    </g>
                </g>
                <g transform="translate(0.000000, 49.000000)" id="Path">
                    <path d="M33.321047,114.785714 C32.7526709,109.785714 32.0422009,102.785714 31.3317308,96.0714286 C30.4081197,86.3571429 29.6266026,77.3571429 30.0528846,76.2142857 C30.9764957,73.6428571 30.7633547,71.7857143 30.7633547,71.7857143 C32.7526709,71.5714286 33.605235,68.8571429 33.605235,68.8571429 L32.5395299,59.3571429 C32.5395299,59.3571429 33.178953,41.1428571 32.3974359,36 C31.6159188,30.8571429 28.2767094,27.3571429 28.2056624,26 C28.1346154,24.6428571 30.7633547,18.5714286 31.6159188,16.8571429 C32.4684829,15.1428571 31.9711538,5.35714286 30.5502137,2.35714286 C30.1239316,1.5 29.5555556,1 28.9871795,0.714285714 C27.4951923,0.0714285714 25.8611111,0.785714286 25.8611111,0.785714286 C25.5058761,6.5 23.8007479,10.2857143 22.2377137,13 L22.2377137,13 C20.8878205,15.3571429 19.6089744,16.9285714 19.3958333,18.1428571 C18.8985043,20.8571429 13.0016026,27.7857143 11.9358974,31.3571429 C10.7991453,34.9285714 10.4439103,47.1428571 8.73878205,51.9285714 C7.88621795,54.2142857 4.9732906,61.3571429 4.1917735,83.3571429 C3.76549145,96 1.77617521,107.428571 0.213141026,114.857143 L33.321047,114.857143 L33.321047,114.785714 Z" fill="#FFFFFF" fill-rule="nonzero"></path>
                    <path d="M31.7580128,16.7857143 C30.9054487,18.5 28.2767094,24.5714286 28.3477564,25.9285714 C28.4188034,27.2857143 31.6869658,30.7857143 32.5395299,35.9285714 C33.321047,41.0714286 32.6816239,59.2857143 32.6816239,59.2857143 L33.7473291,68.7857143 C33.7473291,68.7857143 32.894765,71.5 30.9054487,71.7142857 C30.9054487,71.7142857 31.1185897,73.5714286 30.1949786,76.1428571 C29.7686966,77.2857143 30.5502137,86.2857143 31.4738248,96 C30.4791667,91.7857143 29.6976496,88.5714286 29.6976496,88.5714286 C29.6976496,88.5714286 29.2713675,93.7142857 28.7029915,97.7857143 C28.1346154,101.857143 26.7847222,107.642857 26.7847222,107.642857 C26.7847222,107.642857 23.8007479,79.5714286 24.5112179,74.8571429 C25.221688,70.1428571 26.9268162,70.9285714 25.5769231,68.7142857 C24.2980769,66.5 16.269765,64.5 17.0512821,62.8571429 C17.8327991,61.2142857 24.0849359,64.1428571 24.2980769,64.2857143 C24.0849359,64.1428571 20.6036325,61.3571429 20.6746795,60.0714286 C20.6746795,58.7142857 26.2163462,62.1428571 26.2163462,62.1428571 C26.2163462,62.1428571 28.4898504,60.7857143 30.1949786,58.7857143 C31.9001068,56.8571429 29.3424145,38.2142857 28.9161325,36.8571429 C28.4898504,35.5 25.5058761,35.7142857 24.582265,34.5714286 C23.7297009,33.4285714 26.0742521,32.9285714 25.6479701,31.2142857 C25.221688,29.5 24.0138889,29.6428571 24.0138889,29.6428571 C24.0138889,29.6428571 25.9321581,26.7857143 25.7900641,24.2857143 C25.6479701,21.7857143 28.8450855,18.7857143 28.6319444,17 C27.7083333,10 23.5876068,14.7857143 22.4508547,12.8571429 L22.4508547,12.8571429 C24.0138889,10.1428571 25.6479701,6.35714286 26.0742521,0.642857143 C26.0742521,0.642857143 27.7793803,-0.0714285714 29.2003205,0.571428571 C29.8397436,0.857142857 30.3370726,1.35714286 30.7633547,2.21428571 C32.1132479,5.35714286 32.6105769,15.0714286 31.7580128,16.7857143 Z" fill="#5AE4A7" fill-rule="nonzero" opacity="0.4"></path>
                    <g transform="translate(1.420940, 0.000000)" stroke="#1A2E35" stroke-linecap="round" stroke-linejoin="round">
                        <path d="M0.213141026,107.785714 C1.42094017,100.928571 2.4866453,92.4285714 2.84188034,83.2857143 C3.62339744,61.3571429 6.60737179,54.1428571 7.38888889,51.8571429 C9.1650641,47.0714286 9.52029915,34.8571429 10.5860043,31.2857143 C11.7227564,27.7142857 17.6196581,20.7857143 18.0459402,18.0714286 C18.5432692,15.3571429 23.8007479,11.3571429 24.5112179,0.642857143 C24.5112179,0.642857143 27.8504274,-0.857142857 29.2713675,2.21428571 C30.6923077,5.28571429 31.1896368,15 30.3370726,16.7142857 C29.4845085,18.4285714 26.8557692,24.5 26.9268162,25.8571429 C26.9978632,27.2142857 30.2660256,30.7142857 31.1185897,35.8571429 C31.9001068,41 31.2606838,59.2142857 31.2606838,59.2142857 L32.3263889,68.7142857 C32.3263889,68.7142857 31.4738248,71.4285714 29.4845085,71.6428571 C29.4845085,71.6428571 29.6976496,73.5 28.7740385,76.0714286 C28.1346154,77.8571429 30.2660256,98.5 31.6869658,111.428571"></path>
                        <path d="M26.8557692,25.9285714 C26.8557692,25.9285714 25.7900641,28.8571429 23.8007479,28.8571429"></path>
                        <path d="M26.2163462,27.2857143 C26.2163462,27.2857143 26.8557692,30.8571429 24.653312,33.0714286"></path>
                        <path d="M18.8274573,16.3571429 C18.8274573,16.3571429 21.2430556,15.8571429 22.8060897,16.7857143"></path>
                        <path d="M17.1223291,63.5714286 C17.1223291,63.5714286 25.079594,66.0714286 26.2873932,67.3571429 C27.4951923,68.6428571 29.3424145,71.7857143 29.3424145,71.7857143"></path>
                        <path d="M23.3034188,62.3571429 C24.4401709,63.6428571 27.0689103,65.2142857 28.3477564,66.3571429 C29.5555556,67.5 30.1949786,70.1428571 30.1949786,70.1428571"></path>
                        <path d="M28.5608974,61.7142857 C28.5608974,61.7142857 30.4081197,60.7857143 31.3317308,57.9285714"></path>
                        <path d="M26.4294872,72.3571429 C24.724359,73.2142857 24.653312,83.2857143 25.5769231,94.6428571"></path>
                        <path d="M27.3530983,74.4285714 C27.3530983,75.5714286 28.8450855,84 29.5555556,91.1428571"></path>
                    </g>
                </g>
                <g transform="translate(88.000000, 31.000000)">
                    <g transform="translate(7.857143, 24.163522)">
                        <g>
                            <g id="XMLID_542_-link" fill="#FFFFFF" fill-rule="nonzero">
                                <path d="M3.21428571,0.426415094 C3.21428571,0.426415094 -0.0714285714,6.32515723 0,7.6754717 C0.0714285714,9.02578616 6.21428571,18.3358491 6.42857143,19.4018868 C6.57142857,20.4679245 11.0714286,22.5289308 12.7142857,23.5949686 C14.3571429,24.6610063 16.4285714,16.8433962 16.1428571,11.1578616 C15.8571429,5.54339623 3.21428571,0.426415094 3.21428571,0.426415094 Z" id="XMLID_542_"></path>
                            </g>
                            <path d="M3.21428571,0.426415094 C3.21428571,0.426415094 -0.0714285714,6.32515723 0,7.6754717 C0.0714285714,9.02578616 6.21428571,18.3358491 6.42857143,19.4018868 C6.57142857,20.4679245 11.0714286,22.5289308 12.7142857,23.5949686 C14.3571429,24.6610063 16.4285714,16.8433962 16.1428571,11.1578616 C15.8571429,5.54339623 3.21428571,0.426415094 3.21428571,0.426415094 Z" id="Path" fill="#5AE4A7" fill-rule="nonzero" opacity="0.5"></path>
                            <g id="XMLID_542_-link" stroke-linecap="round" stroke-linejoin="round" stroke="#1A2E35">
                                <path d="M3.21428571,0.426415094 C3.21428571,0.426415094 -0.0714285714,6.32515723 0,7.6754717 C0.0714285714,9.02578616 6.21428571,18.3358491 6.42857143,19.4018868 C6.57142857,20.4679245 11.0714286,22.5289308 12.7142857,23.5949686 C14.3571429,24.6610063 16.4285714,16.8433962 16.1428571,11.1578616 C15.8571429,5.54339623 3.21428571,0.426415094 3.21428571,0.426415094 Z" id="XMLID_542_"></path>
                            </g>
                        </g>
                        <path d="M5.42857143,11.4421384 C5.42857143,11.4421384 8.64285714,10.0207547 12.1428571,13.8584906" id="Path" stroke="#1A2E35" stroke-linecap="round" stroke-linejoin="round"></path>
                    </g>
                    <g id="Path">
                        <path d="M79.5,90.8264151 L59.9285714,112.857862 C59.9285714,112.857862 56.7142857,108.877987 52.7142857,103.974214 C47,97.0805031 39.6428571,88.3389937 37.5714286,86.7754717 C35,84.8566038 18.5,73.627673 13.9285714,68.0132075 C13.2857143,67.2314465 12.7142857,66.5207547 12.2142857,65.8811321 L12.2142857,65.8811321 C9.21428571,62.0433962 8.57142857,60.3377358 7.07142857,55.0075472 C5.35714286,48.6823899 3.42857143,45.2 2.92857143,42.9257862 C2.92857143,42.854717 2.92857143,42.7836478 2.85714286,42.7125786 C2.35714286,40.1540881 1.5,32.336478 0.357142857,30.3465409 C-0.857142857,28.2855346 3.85714286,27.290566 5.64285714,28.427673 C7.42857143,29.5647799 11.9285714,35.0371069 11.6428571,39.7987421 C11.6428571,39.7987421 15.1428571,48.3981132 16.9285714,48.1849057 C16.9285714,48.1849057 16.7142857,39.5855346 15.5,37.4534591 C14.7857143,36.1742138 14.6428571,35.0371069 14.5714286,34.3264151 C14.5714286,33.8289308 14.5714286,33.5446541 14.5714286,33.5446541 C14.5714286,33.5446541 9.07142857,27.6459119 7.42857143,23.5949686 C5.78571429,19.6150943 2.64285714,13.4320755 2,7.46226415 C2,7.46226415 1.28571429,3.19811321 3.92857143,1.2081761 C4.92857143,0.497484277 5.85714286,0.28427673 6.78571429,1.56352201 C7.14285714,2.06100629 7.57142857,2.91383648 7.92857143,3.97987421 C11.8571429,14.9955975 16.7142857,19.1886792 16.7142857,19.1886792 C16.7142857,19.1886792 19.9285714,20.0415094 22.2857143,21.1075472 C22.6428571,21.2496855 23,21.4628931 23.4285714,21.7471698 C23.4285714,21.7471698 23.4285714,21.7471698 23.4285714,21.7471698 C23.4285714,21.7471698 23.4285714,21.7471698 23.4285714,21.7471698 C24.4285714,22.4578616 25.7142857,23.4528302 27,24.3767296 C28.8571429,25.7981132 30.7857143,27.1484277 32.2857143,27.4327044 C37.3571429,28.4987421 39.7857143,31.0572327 39.7857143,31.0572327 C39.7857143,31.0572327 43.1428571,30.3465409 44.9285714,33.4735849 C46.6428571,36.4584906 47.5714286,37.0981132 47.5714286,37.0981132 C47.5714286,37.0981132 48.8571429,37.0981132 49.8571429,39.3012579 C51.6428571,43.2100629 57.0714286,64.0333333 57.3571429,64.8861635 C59.5,71.7798742 66,79.1710692 73.4285714,85.6383648 C73.4285714,85.6383648 73.4285714,85.6383648 73.4285714,85.6383648 C75.2857143,87.5572327 77.4285714,89.1918239 79.5,90.8264151 Z" fill="#FFFFFF" fill-rule="nonzero"></path>
                        <g transform="translate(0.000000, 1.421384)" fill="#5AE4A7" fill-rule="nonzero" opacity="0.4">
                            <path d="M28.7857143,28.7830189 C28.7857143,28.7830189 22.9285714,27.7169811 21.7857143,25.0874214 C20.6428571,22.4578616 15.7142857,16.772327 14.5714286,16.4169811 C13.4285714,16.0616352 12.6428571,16.8433962 12.6428571,16.8433962 C12.6428571,16.8433962 10.6428571,13.645283 9.07142857,10.8735849 C7.64285714,8.24402516 0.428571429,0.426415094 6.71428571,0.0710691824 C7.07142857,0.568553459 7.5,1.42138365 7.85714286,2.48742138 C11.7857143,13.5031447 16.6428571,17.6962264 16.6428571,17.6962264 C16.6428571,17.6962264 19.8571429,18.5490566 22.2142857,19.6150943 C22.5714286,19.7572327 22.9285714,19.9704403 23.3571429,20.254717 C23.2142857,20.1836478 20.8571429,19.6150943 21.3571429,20.8232704 C21.8571429,22.0314465 25.6428571,25.5138365 27.6428571,27.0062893 C29.6428571,28.5698113 28.7857143,28.7830189 28.7857143,28.7830189 Z"></path>
                            <path d="M73.2857143,84.3591195 C70,82.5823899 65,79.5974843 63.2857143,77.2522013 C60.7142857,73.627673 58.7857143,71.8509434 57.0714286,69.7188679 C55.3571429,67.6578616 52.0714286,65.9522013 52.8571429,66.236478 C53.6428571,66.5207547 57.0714286,67.7289308 57.0714286,67.7289308 C57.0714286,67.7289308 54.5,64.5308176 52.5,59.2716981 C50.5,53.9415094 46.8571429,35.2503145 44.1428571,33.1893082 C41.4285714,31.1283019 44.1428571,51.5251572 44.1428571,51.5251572 C44.1428571,51.5251572 41.5,45.7685535 40.2857143,39.0880503 C39.0714286,32.4075472 37.9285714,29.0672956 36.4285714,28.1433962 C34.9285714,27.2194969 32.1428571,29.1383648 31.3571429,28.1433962 C30.5714286,27.1484277 31.4285714,26.7930818 26.8571429,23.0974843 C28.7142857,24.5188679 30.6428571,25.8691824 32.1428571,26.1534591 C37.2142857,27.2194969 39.6428571,29.7779874 39.6428571,29.7779874 C39.6428571,29.7779874 43,29.0672956 44.7857143,32.1943396 C46.5,35.1792453 47.4285714,35.8188679 47.4285714,35.8188679 C47.4285714,35.8188679 48.7142857,35.8188679 49.7142857,38.0220126 C51.5,41.9308176 56.9285714,62.7540881 57.2142857,63.6069182 C59.4285714,70.4295597 65.9285714,77.8207547 73.2857143,84.3591195 Z"></path>
                            <path d="M18.7857143,50.672327 C18.5714286,51.9515723 17,48.2559748 16.8571429,48.8245283 C16.7142857,49.3930818 16.2857143,51.2408805 16.2857143,50.672327 C16.2857143,50.1037736 12.9285714,48.2559748 12.3571429,45.4842767 C11.7857143,42.7125786 11.4285714,41.5754717 11.1428571,40.8647799 C10.8571429,40.1540881 10.3571429,41.291195 10.2857143,39.6566038 C10.2857143,38.1641509 5.42857143,36.6006289 2.85714286,41.1490566 C2.35714286,38.590566 1.5,30.772956 0.357142857,28.7830189 C-0.857142857,26.7220126 3.85714286,25.727044 5.64285714,26.8641509 C7.42857143,28.0012579 11.9285714,33.4735849 11.6428571,38.2352201 C11.6428571,38.2352201 15.1428571,46.8345912 16.9285714,46.6213836 C16.9285714,46.6213836 16.7142857,38.0220126 15.5,35.8899371 C14.7857143,34.6106918 14.6428571,33.4735849 14.5714286,32.7628931 L16.2857143,32.9761006 C16.7857143,33.9710692 15.8571429,35.463522 16.2857143,36.245283 C16.7142857,36.9559748 19.5714286,42.3572327 18.6428571,45.2 C17.7142857,48.0427673 19,49.3930818 18.7857143,50.672327 Z"></path>
                            <path d="M52.6428571,102.55283 C46.9285714,95.6591195 39.5714286,86.9176101 37.5,85.3540881 C34.9285714,83.4352201 18.4285714,72.2062893 13.8571429,66.5918239 C13.2142857,65.8100629 12.6428571,65.0993711 12.1428571,64.4597484 C14.5714286,67.4446541 17.5714286,68.9371069 18.8571429,69.6477987 C21.1428571,70.8559748 27.7857143,71.9220126 32.4285714,76.9679245 C34.6428571,79.3842767 35.9285714,81.1610063 38.7142857,84.2169811 C41.5,87.272956 45.5,87.4150943 47.8571429,91.6081761 C49.0714286,93.6691824 51,98.3597484 52.6428571,102.55283 Z"></path>
                        </g>
                        <g stroke="#1A2E35" stroke-linecap="round" stroke-linejoin="round">
                            <path d="M59.9285714,112.857862 C59.9285714,112.857862 41.0714286,89.4761006 37.5,86.7754717 C34.9285714,84.8566038 18.4285714,73.627673 13.8571429,68.0132075 C9.28571429,62.4698113 8.78571429,61.2616352 7,54.936478 C5.28571429,48.6113208 3.35714286,45.1289308 2.85714286,42.854717 C2.35714286,40.509434 1.42857143,32.336478 0.285714286,30.2754717 C-0.928571429,28.2144654 3.78571429,27.2194969 5.57142857,28.3566038 C7.35714286,29.4937107 11.8571429,35.0371069 11.5714286,39.727673 C11.5714286,39.727673 15.0714286,48.327044 16.8571429,48.1138365 C16.8571429,48.1138365 16.6428571,39.5144654 15.4285714,37.3823899 C14.2142857,35.2503145 14.5714286,33.4025157 14.5714286,33.4025157 C14.5714286,33.4025157 9.07142857,27.5037736 7.42857143,23.4528302 C5.78571429,19.472956 2.64285714,13.2899371 2,7.32012579 C2,7.32012579 1.28571429,3.05597484 3.92857143,1.06603774 C5.35714286,4.03010958e-14 6.57142857,4.03010958e-14 7.92857143,3.83773585 C11.8571429,14.8534591 16.7142857,19.0465409 16.7142857,19.0465409 C16.7142857,19.0465409 19.9285714,19.8283019 22.2857143,20.9654088 C24.6428571,22.1025157 29.3571429,26.7220126 32.2142857,27.3616352 C37.2857143,28.427673 39.7142857,30.9861635 39.7142857,30.9861635 C39.7142857,30.9861635 43.0714286,30.2754717 44.8571429,33.4025157 C46.5714286,36.3874214 47.5,37.027044 47.5,37.027044 C47.5,37.027044 48.7857143,37.027044 49.7857143,39.2301887 C51.5714286,43.1389937 57,63.9622642 57.2857143,64.8150943 C60.0714286,73.5566038 69.7857143,83.1509434 79.5,90.6842767"></path>
                            <path d="M16.6428571,19.1886792 C16.6428571,19.1886792 21.4285714,25.7981132 24.7857143,27.0773585"></path>
                            <path d="M24.5714286,28.4987421 C27.7857143,29.4937107 29.8571429,30.1333333 30.5,32.5496855 C31.0714286,34.9660377 32.8571429,40.4383648 33.6428571,42.6415094 C34.5,44.7735849 36.5,50.2459119 36.5,50.2459119"></path>
                            <path d="M16.8571429,48.1138365 C16.8571429,48.1138365 19.0714286,50.9566038 18.5,53.7283019"></path>
                            <path d="M15.9285714,47.6874214 C15.9285714,47.6874214 15.8571429,50.8144654 16.6428571,52.8754717"></path>
                            <path d="M14.5714286,33.4735849 C14.5714286,33.4735849 16.3571429,34.3974843 16.7857143,35.5345912"></path>
                            <path d="M15.8571429,38.4484277 C15.8571429,38.4484277 16.6428571,40.1540881 17.5,41.0779874 C18.3571429,42.0018868 18.7857143,45.0578616 18.7857143,45.0578616"></path>
                            <path d="M2.85714286,42.7836478 C2.85714286,42.7836478 4.78571429,40.6515723 6.71428571,40.3672956"></path>
                            <path d="M11.8571429,18.7622642 C11.8571429,18.7622642 14.0714286,17.127673 15.7857143,18.2647799"></path>
                            <path d="M48.7142857,42.4993711 C49.1428571,43.7075472 51.4285714,54.5811321 52,56.1446541"></path>
                            <path d="M33.2142857,30.0622642 C33.2142857,30.0622642 35.2857143,28.5698113 37.9285714,30.4176101 C40.5714286,32.2654088 40.5714286,33.118239 42.1428571,32.6918239 C43.7142857,32.2654088 44.7857143,33.5446541 44.7857143,33.5446541"></path>
                            <path d="M41.6428571,37.7377358 C42.0714286,40.1540881 43.8571429,52.1647799 44.7142857,55.1496855"></path>
                        </g>
                    </g>
                </g>
            </g>
        </g>
    </g>
</svg>