<?xml version="1.0" encoding="UTF-8"?>
<svg width="250px" height="250px" viewBox="0 0 250 250" version="1.1" xmlns="http://www.w3.org/2000/svg" xmlns:xlink="http://www.w3.org/1999/xlink">
    <title>feature-4</title>
    <g id="share" stroke="none" stroke-width="1" fill="none" fill-rule="evenodd">
        <g id="feature-4">
            <circle id="Oval" fill="#FFE8C2" cx="125" cy="125" r="125"></circle>
            <g id="OBJECTS" transform="translate(24.000000, 82.000000)">
                <g id="Group" transform="translate(3.770942, 0.000000)" fill-rule="nonzero">
                    <g transform="translate(0.786344, 0.000000)">
                        <g>
                            <path d="M44.480891,14.7493114 C43.444934,8.85841829 39.3011061,2.93585374 29.8205301,2.23908144 L29.8205301,2.20740997 C29.8205301,2.20740997 29.6635669,2.20740997 29.569389,2.20740997 C29.2554626,2.20740997 28.9101436,2.20740997 28.5962173,2.20740997 C28.2822909,2.20740997 27.9997572,2.20740997 27.6858308,2.20740997 C27.5916529,2.20740997 27.5288677,2.20740997 27.5288677,2.20740997 L27.5288677,2.23908144 C16.8867641,2.96752521 13.1196478,8.03496012 12.2720467,14.6859684 C11.3302676,22.1604349 11.2674823,50.981471 11.3302676,54.1802893 C12.3034393,59.1843812 14.5637091,59.7861391 17.6401874,62.889943 C20.685273,65.9620754 24.5465673,67.7990206 28.7531804,67.7990206 C32.8342231,67.7990206 35.690953,61.876456 38.704646,58.9310095 C41.5927685,56.1122488 44.7320321,56.4289635 45.862167,51.8999436 C45.9249522,47.8459956 45.8935596,22.7938643 44.480891,14.7493114 Z" id="Hair" fill="#EC008C"></path>
                            <path d="M50.2792321,60.8614464 L9.42735602,60.1665308 L9.42735602,55.7759276 C9.42735602,48.6056619 18.1612054,41.9407895 26.70723,41.9407895 L33.1558787,41.9407895 C40.7627798,41.9407895 50.247928,48.6688361 50.247928,55.0178378 L50.247928,60.8614464 L50.2792321,60.8614464 Z" id="Path" fill="#5D4495"></path>
                            <g transform="translate(25.139616, 33.426494)" id="Path">
                                <path d="M0,5.99154135 C0,5.99154135 0.326815009,7.88360704 4.08518761,7.88360704 C7.84356021,7.88360704 8.17037522,5.99154135 8.17037522,5.99154135 L0,5.99154135 Z" fill="#F9AC7F"></path>
                                <path d="M6.43825567,0.315344282 L1.73211955,0.315344282 C0.784356021,0.315344282 0,1.10214388 0,2.05286005 L0,9.46188956 C0,11.7239384 1.83016405,13.5598041 4.08518761,13.5598041 C6.34021117,13.5598041 8.17037522,11.7239384 8.17037522,9.46188956 L8.17037522,2.05286005 C8.17037522,1.10214388 7.3860192,0.315344282 6.43825567,0.315344282 Z" fill="#FBC39D"></path>
                            </g>
                            <g>
                                <g id="Girl_2_">
                                    <g id="Group" transform="translate(9.427356, 4.414820)" fill="#FCCFB2">
                                        <path d="M33.9366167,19.7853265 C34.0631236,27.6922833 27.7377782,34.21316 19.767843,34.3706691 L19.767843,34.3706691 C11.8295345,34.4966764 5.28280198,28.1963124 5.12466834,20.2578538 L5.02978816,14.9025445 C4.90328125,6.99558768 11.2286267,0.474710966 19.1985619,0.317201867 L19.1985619,0.317201867 C27.1368704,0.191194588 33.6836029,6.49155856 33.8417365,14.4300172 L33.9366167,19.7853265 Z" id="Path"></path>
                                        <ellipse id="Oval" transform="translate(4.713678, 19.866690) rotate(-0.942613) translate(-4.713678, -19.866690) " cx="4.71367801" cy="19.8666898" rx="4.08519148" ry="3.78412781"></ellipse>
                                    </g>
                                    <g id="Group">
                                        <path d="M0,12.5966596 C0,13.7944789 0.729518765,14.7869578 1.64934677,14.7869578 L15.3198941,14.8211812 C16.2397221,14.8211812 16.9692408,13.8629258 16.9692408,12.630883 L16.9692408,12.630883 C16.9692408,11.4330636 16.2397221,10.4405847 15.3198941,10.4405847 L1.64934677,10.4063613 C0.729518765,10.4063613 0,11.3646168 0,12.5966596 L0,12.5966596 Z" id="Path" fill="#463272"></path>
                                        <path d="M44.6228185,14.8211812 C44.6545551,6.81912489 38.1565021,0.347342266 30.1613486,0.315344282 L26.3389645,0.315344282 C18.343811,0.283580861 11.9731708,6.75536349 11.9413176,14.7574198 L44.6228185,14.8211812 Z" id="Path" fill="#5D4298"></path>
                                        <path d="M27.6535777,12.298427 L35.8235221,12.2676617 L35.8235221,12.2676617 C35.8538936,10.1756216 34.2745735,8.51429561 32.3004234,8.51429561 L31.3285341,8.51429561 C29.3240124,8.51429561 27.6839492,10.2063869 27.6535777,12.298427 L27.6535777,12.298427 Z" id="Path" fill="#FCCFB2"></path>
                                    </g>
                                    <path d="M20.1116928,14.8211812 C20.1116928,14.8211812 17.2836943,25.9897651 16.3615209,38.1566581 L14.1790438,37.8134893 C14.1790438,37.8134893 13.164653,22.5892745 14.5786523,14.8211812 L20.1116928,14.8211812 Z" id="Path" fill="#EC008C"></path>
                                </g>
                                <g transform="translate(20.740183, 22.704788)">
                                    <g fill="#000000" id="Oval">
                                        <ellipse transform="translate(15.712260, 2.838099) rotate(164.592122) translate(-15.712260, -2.838099) " cx="15.71226" cy="2.83809854" rx="1.88593702" ry="1.89160049"></ellipse>
                                        <ellipse transform="translate(2.199716, 2.838099) rotate(164.590600) translate(-2.199716, -2.838099) " cx="2.1997164" cy="2.83809854" rx="1.57161437" ry="1.8916003"></ellipse>
                                    </g>
                                    <path d="M4.39943281,7.65372299 L13.8267888,7.25291848 C13.8267888,7.25291848 12.4843821,10.4927549 10.1351705,10.9603602 C6.9622092,11.561567 4.55197902,8.45533201 4.39943281,7.65372299 Z" id="Path" fill="#FFFFFF"></path>
                                </g>
                            </g>
                        </g>
                        <path d="M53.6846644,83.5662347 L4.73364436,83.5662347 C3.16871406,83.5662347 1.8854712,82.2733231 1.8854712,80.6966017 L1.8854712,52.3786852 C1.8854712,50.8019638 3.16871406,49.5090522 4.73364436,49.5090522 L53.715963,49.5090522 C55.2808933,49.5090522 56.5641361,50.8019638 56.5641361,52.3786852 L56.5641361,80.6966017 C56.5328375,82.3048575 55.2495947,83.5662347 53.6846644,83.5662347 Z" id="Path" fill="#E0E1E2"></path>
                        <path d="M28.9105585,70.3217748 C26.8396311,70.3217748 25.1396161,68.4736506 25.1396161,66.2222992 C25.1396161,63.9709478 26.8396311,62.1228235 28.9105585,62.1228235 C30.9814859,62.1228235 32.6815009,63.9709478 32.6815009,66.2222992 C32.6815009,68.4736506 30.9814859,70.3217748 28.9105585,70.3217748 Z" id="Path" fill="#FFFFFF"></path>
                        <path d="M116.899215,60.8614464 L76.0473386,60.1665308 L76.0473386,55.7759276 C76.0473386,48.6056619 84.7811879,41.9407895 93.3272126,41.9407895 L99.7758612,41.9407895 C107.382762,41.9407895 116.867911,48.6688361 116.867911,55.0178378 L116.867911,60.8614464 L116.899215,60.8614464 Z" id="Path" fill="#5D4495"></path>
                        <path d="M98.1978543,33.7418381 L93.4917182,33.7418381 C92.5439546,33.7418381 91.7595986,34.5286377 91.7595986,35.4793539 L91.7595986,42.8883834 C91.7595986,45.1504323 93.5897627,46.986298 95.8447862,46.986298 C98.0998098,46.986298 99.9299738,45.1504323 99.9299738,42.8883834 L99.9299738,35.4793539 C99.9299738,34.5286377 99.1456178,33.7418381 98.1978543,33.7418381 Z" id="Path" fill="#FBC39D"></path>
                        <path d="M91.7595986,39.4180352 C91.7595986,39.4180352 92.0864136,41.3101009 95.8447862,41.3101009 C99.6031588,41.3101009 99.9299738,39.4180352 99.9299738,39.4180352 L91.7595986,39.4180352 Z" id="Path" fill="#F9AC7F"></path>
                        <path d="M120.304647,83.5662347 L71.3536269,83.5662347 C69.7886966,83.5662347 68.5054538,82.2733231 68.5054538,80.6966017 L68.5054538,52.3786852 C68.5054538,50.8019638 69.7886966,49.5090522 71.3536269,49.5090522 L120.335946,49.5090522 C121.900876,49.5090522 123.184119,50.8019638 123.184119,52.3786852 L123.184119,80.6966017 C123.15282,82.3048575 121.869577,83.5662347 120.304647,83.5662347 Z" id="Path" fill="#E0E1E2"></path>
                        <path d="M95.530541,70.3217748 C93.4596136,70.3217748 91.7595986,68.4736506 91.7595986,66.2222992 C91.7595986,63.9709478 93.4596136,62.1228235 95.530541,62.1228235 C97.6014684,62.1228235 99.3014834,63.9709478 99.3014834,66.2222992 C99.3014834,68.4736506 97.6014684,70.3217748 95.530541,70.3217748 Z" id="Path" fill="#FFFFFF"></path>
                        <g transform="translate(73.533377, 2.522754)">
                            <path d="M37.0809337,18.3015405 C37.0809337,26.1505858 30.1923481,32.480461 21.6829188,32.480461 C13.1734896,32.480461 6.28490401,26.1189364 6.28490401,18.3015405 C6.28490401,10.5474433 12.9552991,3.64787927 21.4335583,4.12261991 C21.5270685,4.12261991 21.6205787,4.12261991 21.7140889,4.12261991 C21.7764291,4.12261991 21.8699393,4.12261991 21.9322794,4.12261991 C30.3170284,3.67952864 37.0809337,10.5474433 37.0809337,18.3015405 Z" id="Path" fill="#9E9CCC"></path>
                            <path d="M8.74394673,28.2495302 C8.74394673,28.2495302 5.85804008,32.1691727 9.02936607,38.1566581 C8.68052021,34.8542821 7.72912242,32.1691727 10.3930362,28.2495302 C13.0252368,24.3298876 9.21964563,26.9224071 8.74394673,28.2495302 Z" id="Path" fill="#32F98C"></path>
                            <g transform="translate(5.027923, 6.937574)">
                                <g id="Group" fill="#FBC39D">
                                    <path d="M29.5369997,17.6274457 C29.6609727,24.6586547 24.1441759,30.4601904 17.2016901,30.5863107 L17.2016901,30.5863107 C10.2901976,30.712431 4.58744139,25.1000759 4.46346843,18.0373368 L4.40148195,13.2762939 C4.27750899,6.24508493 9.79430574,0.443549255 16.7367915,0.317428914 L16.7367915,0.317428914 C23.6482841,0.191308573 29.3510403,5.80366374 29.4750132,12.8664028 L29.5369997,17.6274457 Z" id="Path"></path>
                                    <ellipse id="Oval" transform="translate(4.085188, 17.974624) rotate(-0.942001) translate(-4.085188, -17.974624) " cx="4.08518761" cy="17.9746241" rx="3.45670048" ry="3.15343985"></ellipse>
                                </g>
                                <g transform="translate(9.427356, 15.767214)">
                                    <path d="M13.8267888,6.83412771 L3.14245201,6.62222992 C3.14245201,6.62222992 4.96883437,10.406119 8.40852115,10.406119 C11.8177682,10.4363901 13.6745903,7.62117664 13.8267888,6.83412771 Z" id="Path" fill="#FFFFFF"></path>
                                    <ellipse id="Oval" fill="#000000" transform="translate(14.141034, 2.207410) rotate(164.592122) translate(-14.141034, -2.207410) " cx="14.141034" cy="2.20740997" rx="1.57161384" ry="1.26106662"></ellipse>
                                    <ellipse id="Oval" fill="#000000" transform="translate(2.199716, 2.207410) rotate(164.590600) translate(-2.199716, -2.207410) " cx="2.1997164" cy="2.20740997" rx="1.57161392" ry="1.26106656"></ellipse>
                                </g>
                            </g>
                            <g id="Path">
                                <path d="M11.9142199,1.81724055 C13.6757862,3.74915956 13.6150426,6.84022997 11.7927326,8.70775168 L7.78365069,12.8291789 C5.96134073,14.6967006 3.04564479,14.6323033 1.28407849,12.7003843 L1.28407849,12.7003843 C-0.477487804,10.7684653 -0.416744138,7.67739488 1.40556582,5.80987317 C2.4078363,4.77951636 4.41237726,2.71880275 5.41464774,1.68844595 C7.2369577,-0.179075763 10.1526536,-0.146877113 11.9142199,1.81724055 L11.9142199,1.81724055 Z" fill="#9E9CCC"></path>
                                <path d="M31.5725266,1.76386879 C33.4511163,-0.162113553 36.5078046,-0.162113553 38.3863943,1.73176909 C39.4371309,2.75895967 41.5067637,4.84544055 42.5575003,5.87263113 C44.4679305,7.76651377 44.4679305,10.8480855 42.5893408,12.7419682 L42.5893408,12.7419682 C40.7107511,14.6679505 37.6540627,14.6679505 35.775473,12.7740679 L31.6043671,8.63320583 C29.6939369,6.73932319 29.6939369,3.65775143 31.5725266,1.76386879 L31.5725266,1.76386879 Z" fill="#9E9CCC"></path>
                                <path d="M33.3099913,20.4973783 C33.3099913,20.4973783 36.1125491,30.8579384 33.3099913,39.4180352 C35.5585551,37.1121789 37.6115916,26.8779671 33.3099913,20.4973783 Z" fill="#32F98C"></path>
                                <path d="M22.473485,11.2616652 L9.03433731,25.5428868 C9.03433731,25.5428868 8.87843073,23.8479726 8.81606809,21.5566997 C8.72252414,17.2252523 8.94079336,10.7908557 11.2482108,9.50397642 C14.7405184,7.5265765 22.3487598,5.36085279 22.3487598,5.36085279 C22.3487598,5.36085279 31.4848857,7.5579638 33.3245834,12.0149604 C35.1954625,16.4719571 35.1954625,24.4757186 35.1954625,24.4757186 C35.1954625,24.4757186 27.0571387,14.0551349 22.473485,11.2616652 Z" fill="#9E9CCC"></path>
                                <path d="M37.7094241,1.57672141 C37.7094241,1.57672141 31.2965872,4.3803858 32.1272656,9.5255721 L35.1509348,12.298427 C35.1509348,12.2676175 34.0876665,3.73338632 37.7094241,1.57672141 Z" fill="#EC008C"></path>
                                <path d="M39.9559693,3.4687871 L42.7372538,6.28414921 C42.7372538,6.28414921 42.831005,11.7883403 37.0809337,13.5598041 C38.8622058,12.0097733 41.2684856,8.0872463 39.9559693,3.4687871 Z" fill="#8486C1"></path>
                                <path d="M12.5696669,7.88360704 C12.5696669,7.88360704 12.6945307,2.69157493 5.51486371,1.57672141 L3.14245201,3.90198732 C3.14245201,3.90198732 10.9776538,3.51975183 12.5696669,7.88360704 Z" fill="#8486C1"></path>
                                <path d="M10.6843368,10.091017 L7.00939118,13.5598041 C7.00939118,13.5598041 0.293111199,11.8097854 0.641597425,6.62222992 C2.06722289,8.65350164 5.99561307,10.9035257 10.6843368,10.091017 Z" fill="#32F98C"></path>
                                <path d="M22.6256545,6.0409173 C22.6256545,6.0409173 27.5461035,5.53924993 30.7960297,7.73404469 C28.7002829,7.70269048 22.9901322,9.14498417 22.9901322,9.14498417 C22.9901322,9.14498417 22.8990127,7.2010231 22.6256545,6.0409173 Z" fill="#8486C1"></path>
                                <path d="M23.8826353,10.4063613 C23.8826353,10.4063613 34.0280562,12.9306767 37.0809337,20.8642392 C36.7417251,22.8312382 36.310005,23.6508211 36.310005,23.6508211 C36.310005,23.6508211 30.7901559,12.9962433 23.8826353,10.4063613 Z" fill="#32F98C"></path>
                                <path d="M21.997164,9.14498417 C21.997164,9.14498417 9.3434556,12.1957953 8.79886562,21.1280669 L21.997164,9.14498417 Z" fill="#EC008C"></path>
                                <path d="M21.3982265,4.73016423 C21.3982265,4.73016423 21.997164,5.77007819 21.997164,7.44549514 L11.9413176,8.51429561 C11.9413176,8.51429561 15.2197127,5.4523267 21.3982265,4.73016423 Z" fill="#8486C1"></path>
                                <path d="M21.997164,4.24069477 C21.997164,4.24069477 23.4647741,1.98607499 27.6535777,3.19390702 C25.8802156,3.22074773 24.4431807,3.8380841 24.1374287,4.42857975 C23.8011014,4.99223469 22.3946418,4.67014615 21.997164,4.24069477 Z" fill="#9E9CCC"></path>
                                <path d="M21.997164,4.21971231 C21.997164,4.21971231 19.8375192,2.03206122 16.9692408,3.16234762 C18.6227189,3.30819102 20.0737303,4.51139912 20.1074748,4.73016423 C19.8375192,4.47493827 21.997164,4.21971231 21.997164,4.21971231 Z" fill="#9E9CCC"></path>
                            </g>
                        </g>
                        <path d="M183.519197,60.8614464 L142.667321,60.1665308 L142.667321,55.7759276 C142.667321,48.6056619 151.40117,41.9407895 159.947195,41.9407895 L166.395844,41.9407895 C174.002745,41.9407895 183.487893,48.6688361 183.487893,55.0178378 L183.487893,60.8614464 L183.519197,60.8614464 Z" id="Path" fill="#5D4495"></path>
                        <path d="M164.951077,33.7418381 L160.606951,33.7418381 C159.732092,33.7418381 159.008072,34.5286377 159.008072,35.4793539 L159.008072,42.8883834 C159.008072,45.1504323 160.697454,46.986298 162.779014,46.986298 C164.860574,46.986298 166.549956,45.1504323 166.549956,42.8883834 L166.549956,35.4793539 C166.549956,34.5286377 165.825935,33.7418381 164.951077,33.7418381 Z" id="Path" fill="#FBC39D"></path>
                        <path d="M159.008072,39.4180352 C159.008072,39.4180352 159.309747,41.3101009 162.779014,41.3101009 C166.248281,41.3101009 166.549956,39.4180352 166.549956,39.4180352 L159.008072,39.4180352 Z" id="Path" fill="#F9AC7F"></path>
                        <path d="M187.520022,83.5662347 L138.006347,83.5662347 C136.423429,83.5662347 135.125436,82.2733231 135.125436,80.6966017 L135.125436,52.3786852 C135.125436,50.8019638 136.423429,49.5090522 138.006347,49.5090522 L187.551681,49.5090522 C189.134599,49.5090522 190.432592,50.8019638 190.432592,52.3786852 L190.432592,80.6966017 C190.400933,82.3048575 189.10294,83.5662347 187.520022,83.5662347 Z" id="Path" fill="#E0E1E2"></path>
                        <path d="M162.150524,70.3217748 C160.079596,70.3217748 158.379581,68.4736506 158.379581,66.2222992 C158.379581,63.9709478 160.079596,62.1228235 162.150524,62.1228235 C164.221451,62.1228235 165.921466,63.9709478 165.921466,66.2222992 C165.921466,68.4736506 164.221451,70.3217748 162.150524,70.3217748 Z" id="Path" fill="#FFFFFF"></path>
                        <g transform="translate(143.295812, 0.630689)">
                            <g id="Nerd_1_">
                                <g id="Head_8_">
                                    <g id="Group">
                                        <ellipse id="Oval" fill="#EFC3AB" transform="translate(4.713678, 24.596854) rotate(177.559678) translate(-4.713678, -24.596854) " cx="4.71367801" cy="24.596854" rx="4.08521351" ry="4.09944976"></ellipse>
                                        <path d="M4.63254368,25.4330432 C4.97752869,33.4971091 11.8145042,39.748323 19.9059707,39.4045062 L19.9059707,39.4045062 C27.9974371,39.0606895 34.2698917,32.2468663 33.9249067,24.1828004 L33.7053708,18.7442444 C33.5799217,15.4936131 33.7367331,10.8989709 31.8236344,8.55476573 C29.0010298,5.08534203 23.2617339,4.55398885 18.4319438,4.77278134 L18.4319438,4.77278134 C10.3404774,5.1165981 4.06802277,11.9304212 4.41300777,19.9944871 L4.63254368,25.4330432 Z" id="Path" fill="#FCCFB2"></path>
                                        <ellipse id="Oval" fill="#FCCFB2" transform="translate(33.938482, 23.966165) rotate(177.561295) translate(-33.938482, -23.966165) " cx="33.9384817" cy="23.9661654" rx="3.77096629" ry="4.09944979"></ellipse>
                                        <path d="M32.5662805,22.389444 C32.5662805,22.389444 33.0009108,22.0942281 33.342406,21.7334086 C33.342406,21.7334086 35.2051071,17.0099538 34.3358466,13.6969752 C34.0253964,12.2208955 33.0940458,10.3511947 31.9143352,8.51429561 L28.2820681,11.9584814 C29.7722289,14.1890017 31.8212001,17.0099538 32.5662805,22.389444 Z" id="Path" fill="#373737"></path>
                                        <path d="M8.17037522,10.8540052 L5.46729607,9.77567273 C5.46729607,9.77567273 2.8523608,13.6576696 4.11575649,20.3741403 L4.43895074,20.4973783 C4.43895074,20.4973783 4.58585721,13.7809076 8.17037522,10.8540052 Z" id="Path" fill="#373737"></path>
                                        <path d="M32.0530105,8.63508205 L28.3604007,11.910728 C28.3604007,11.910728 13.9665,13.345773 7.36408031,10.6940595 C4.17238929,9.41499776 3.32752991,8.6974753 2.51396161,1.4910541 C6.92600508,8.10473936 32.1466224,-9.11579961 32.0530105,8.63508205 Z" id="Path" fill="#373737"></path>
                                    </g>
                                    <g id="Group" transform="translate(11.312827, 26.370499)" fill="#9B4B10">
                                        <circle id="Oval" transform="translate(4.713678, 2.010487) rotate(8.847224) translate(-4.713678, -2.010487) " cx="4.71367801" cy="2.01048674" r="1"></circle>
                                        <path d="M6.91339442,0.810589706 C6.87411377,0.974536611 6.71699116,1.09749679 6.55986856,1.05651006 C6.40274596,1.01552334 6.28490401,0.851576432 6.28490401,0.687629527 C6.32418466,0.523682621 6.48130726,0.400722442 6.63842986,0.441709168 C6.79555247,0.482695895 6.91339442,0.6466428 6.91339442,0.810589706 Z" id="Path"></path>
                                        <circle id="Oval" transform="translate(7.856130, 2.641175) rotate(8.876413) translate(-7.856130, -2.641175) " cx="7.85613002" cy="2.64117531" r="1"></circle>
                                        <circle id="Oval" transform="translate(9.113111, 0.749110) rotate(8.847224) translate(-9.113111, -0.749110) " cx="9.11311082" cy="0.749109616" r="1"></circle>
                                        <circle id="Oval" transform="translate(10.370092, 2.010487) rotate(8.870752) translate(-10.370092, -2.010487) " cx="10.3700916" cy="2.01048674" r="1"></circle>
                                        <circle id="Oval" transform="translate(12.098440, 3.114192) rotate(8.852886) translate(-12.098440, -3.114192) " cx="12.0984402" cy="3.11419173" r="1"></circle>
                                        <circle id="Oval" transform="translate(2.828207, 3.114192) rotate(8.870752) translate(-2.828207, -3.114192) " cx="2.82820681" cy="3.11419173" r="1"></circle>
                                        <circle id="Oval" transform="translate(3.456697, 1.379798) rotate(8.858547) translate(-3.456697, -1.379798) " cx="3.45669721" cy="1.37979818" r="1"></circle>
                                        <circle id="Oval" transform="translate(0.942736, 2.641175) rotate(8.899056) translate(-0.942736, -2.641175) " cx="0.942735602" cy="2.64117531" r="1"></circle>
                                    </g>
                                </g>
                                <path d="M3.14545941,23.5346417 L3.14545941,23.6010299 L3.14545941,23.6674182 C3.17729592,23.8001947 3.87769914,27.4847437 4.25973726,28.5137619 C4.57810236,29.3436153 5.50136115,30.9037396 6.74298504,30.9037396 L13.3331426,30.8705455 C15.6253713,30.8705455 16.3576111,24.9951836 16.4849571,23.7670006 C16.6759762,23.3022827 17.0898508,23.0035355 17.5673984,23.0035355 C18.0767826,23.0035355 18.5224937,23.3354769 18.7453493,23.8333889 C19.0000414,25.1943484 20.2098288,30.8373513 22.470221,30.8373513 L29.0603785,30.8041572 C30.3020024,30.8041572 31.0979152,29.2440329 31.3526073,28.4141795 C31.6709724,27.3851613 32.0530105,23.7006123 32.0530105,23.5678358 L32.0530105,23.5014475 L32.0530105,23.4350593 C31.9893375,22.0077115 30.9705691,20.8127226 29.7289452,20.8127226 L20.8783955,20.8127226 L20.8147224,20.8127226 L14.1927284,20.8791109 L5.27850558,20.912305 C4.03688169,20.912305 3.08178639,22.1072939 3.14545941,23.5346417 Z M19.6863562,23.2880636 C19.9351676,22.9316176 20.3394863,22.7047883 20.7438049,22.7047883 L29.141192,22.7047883 C29.8565249,22.7047883 30.1053364,23.352872 30.1675393,24.1629766 C30.1053364,24.584231 29.9187278,27.1765658 29.6699163,28.0190746 C29.4522063,28.7319667 29.2344963,29.7040922 28.3325547,29.6392838 L22.2055723,29.6392838 C20.9304135,29.6392838 19.8418633,25.9452068 19.4997476,24.1305724 C19.4375447,23.7417222 19.5619504,23.4500845 19.6863562,23.2880636 Z M4.39943281,24.1960426 C4.39943281,23.3855783 4.75661444,22.7047883 5.50344874,22.7047883 L14.2706341,22.7047883 C14.6927578,22.7047883 15.1473526,22.9317183 15.4395921,23.2883226 C15.5694764,23.482834 15.7643027,23.7746011 15.6993606,24.1312054 C15.5045343,25.979064 14.7252289,29.6423625 13.3939156,29.6423625 L6.99711736,29.6423625 C5.95804354,29.6099439 5.63333297,28.5401311 5.37356452,27.8269225 C5.01638289,26.9516211 4.46437492,24.617484 4.39943281,24.1960426 Z" id="Shape" fill="#000000"></path>
                            </g>
                            <path d="M22.6256545,31.644101 L12.569808,31.2190839 C12.569808,31.2190839 14.0063575,34.4557527 16.5283,34.9134634 C19.8802488,35.5673359 22.4341145,32.4614416 22.6256545,31.644101 Z" id="Path" fill="#FFFFFF"></path>
                            <path d="M27.0250873,26.8049989 C27.0250873,27.1577729 26.6898924,27.4349525 26.2632807,27.4349525 L22.7589706,27.4349525 C22.3323589,27.4349525 21.997164,27.1577729 21.997164,26.8049989 L21.997164,26.8049989 C21.997164,26.4522249 22.3323589,26.1750453 22.7589706,26.1750453 L26.2632807,26.1750453 C26.6898924,26.1498471 27.0250873,26.4522249 27.0250873,26.8049989 L27.0250873,26.8049989 Z" id="Path" fill="#000000"></path>
                            <path d="M13.1982984,26.8049989 C13.1982984,27.1577729 12.8212042,27.4349525 12.3412661,27.4349525 L8.39891718,27.4349525 C7.91897906,27.4349525 7.54188482,27.1577729 7.54188482,26.8049989 L7.54188482,26.8049989 C7.54188482,26.4522249 7.91897906,26.1750453 8.39891718,26.1750453 L12.3412661,26.1750453 C12.8212042,26.1498471 13.1982984,26.4522249 13.1982984,26.8049989 L13.1982984,26.8049989 Z" id="Path" fill="#000000"></path>
                        </g>
                    </g>
                </g>
                <line x1="0" y1="82.7631579" x2="201" y2="83.2508904" id="Path" stroke="#E2E0E1" stroke-width="2"></line>
            </g>
        </g>
    </g>
</svg>