<?xml version="1.0" encoding="UTF-8"?>
<svg width="512px" height="512px" viewBox="0 0 512 512" version="1.1" xmlns="http://www.w3.org/2000/svg" xmlns:xlink="http://www.w3.org/1999/xlink">
    <title>Logo</title>
    <g id="Logo" stroke="none" stroke-width="1" fill="none" fill-rule="evenodd">
        <g id="drop" transform="translate(116.000000, 14.000000)" fill-rule="nonzero">
            <path d="M141.425242,483 C218.298455,482.771707 281.579933,418.430826 280.995991,341.431005 C280.181297,233.897472 181.357495,119.799101 147.897586,5.19697631 C146.884163,1.72541388 143.941846,0 141.000471,0 C138.058154,0 135.115837,1.72541388 134.102414,5.19697631 C100.643447,119.799101 1.81870326,233.897472 1.0040092,341.431005 C0.420066639,418.430826 63.7015453,482.771707 140.574758,483" id="Path" fill="#C583F7"></path>
            <path d="M187.666969,444 C183.459469,444 179.400623,441.70713 177.321335,437.707126 C174.347294,431.977314 176.563006,424.907869 182.268347,421.92062 C205.36444,409.829913 222.034498,388.359886 227.998574,363.019283 C229.482302,356.726409 235.734279,352.825602 242.02389,354.318282 C248.287158,355.804349 252.164419,362.112338 250.685396,368.397654 C243.158561,400.366511 222.148342,427.443535 193.043011,442.673593 C191.320307,443.57298 189.479996,444 187.666969,444 Z" id="Path" fill="#8E3BCB"></path>
            <path d="M187.270262,467.42042 L186.418964,467.42042 C109.472231,467.177034 46.1302312,398.684428 46.7147322,316.717821 C47.3209164,231.639072 102.111289,142.698209 143.960621,52.5470162 C150.820023,37.7711788 151.687347,21.0642847 147.105613,5.4309336 C147.082987,5.35263478 147.060362,5.27527931 147.037736,5.19698048 C146.023344,1.72541808 143.078213,0 140.134024,0 C137.188893,-0.00564632085 134.244705,1.72541808 133.22937,5.19698048 C97.5653795,127.234663 -12.2925328,248.702556 1.13025067,362.279248 C9.3292918,431.659554 69.891141,483 139.708847,483 L140.559202,483 C164.536,482.928305 187.1873,476.623834 207,465.659168 C200.532779,466.68177 193.978825,467.398723 187.270262,467.42042 Z" id="Path" fill="#A744EF"></path>
        </g>
    </g>
</svg>