<?xml version="1.0" encoding="UTF-8"?>
<svg width="1024px" height="1024px" viewBox="0 0 1024 1024" version="1.1" xmlns="http://www.w3.org/2000/svg" xmlns:xlink="http://www.w3.org/1999/xlink">
    <title>Logo</title>
    <g id="Logo" stroke="none" stroke-width="1" fill="none" fill-rule="evenodd">
        <g id="logo-f2a9ba69f168b806d264ee39c851c4e3" transform="translate(214.000000, 0.000000)" fill-rule="nonzero">
            <path d="M299.833225,1024 C462.810803,1023.516 596.972777,887.108004 595.734772,723.862006 C594.007553,495.882011 384.492909,253.984015 313.555131,11.0180202 C311.40659,3.65802032 305.168634,0 298.932676,0 C292.69472,0 286.456764,3.65802032 284.308223,11.0180202 C213.372443,253.984015 3.85580153,495.882011 2.12858265,723.862006 C0.890576063,887.108004 135.052552,1023.516 298.030129,1024" id="Path" fill="#00A8E8"></path>
            <path d="M397.869516,941.31677 C388.949268,941.31677 380.344178,936.455696 375.935915,927.975356 C369.630702,915.82768 374.328195,900.839871 386.42399,894.506656 C435.38962,868.873356 470.731524,823.355121 483.375859,769.630944 C486.521485,756.28953 499.776194,748.019496 513.11069,751.184101 C526.389337,754.334686 534.609451,767.708145 531.4738,781.033536 C515.516287,848.81016 470.972882,906.215693 409.26717,938.504677 C405.614895,940.411452 401.713283,941.31677 397.869516,941.31677 Z" id="Path" fill="#2DC3FF"></path>
            <path d="M397.028464,990.97 L395.223642,990.97 C232.090196,990.454002 97.7999105,845.244005 99.039101,671.46801 C100.324262,491.094016 216.484389,302.532021 305.208439,111.404026 C319.750939,80.0780271 321.589738,44.658028 311.876082,11.514029 C311.828113,11.348029 311.780146,11.184029 311.732177,11.018029 C309.581582,3.65802922 303.337661,-2.91888643e-05 297.095736,-2.91888643e-05 C290.851815,-0.0119706678 284.609892,3.65802922 282.457298,11.018029 C206.846684,269.748023 -26.0611876,527.270015 2.39622502,768.062008 C19.7788712,915.154003 148.175007,1024 296.194326,1024 L297.997149,1024 C348.829946,1023.848 396.852578,1010.482 438.857143,987.236 C425.146099,989.404001 411.251173,990.924001 397.028464,990.97 Z" id="Path" fill="#0AB9FF"></path>
        </g>
    </g>
</svg>