<?xml version="1.0" encoding="UTF-8"?>
<svg width="194px" height="272px" viewBox="0 0 194 272" version="1.1" xmlns="http://www.w3.org/2000/svg" xmlns:xlink="http://www.w3.org/1999/xlink">
    <title>Logo18SB</title>
    <g id="Page-1" stroke="none" stroke-width="1" fill="none" fill-rule="evenodd">
        <g id="favicon2" transform="translate(-152.000000, -113.000000)" fill="#D8D8D8" fill-rule="nonzero">
            <g id="Logo18SB" transform="translate(152.000000, 113.000000)">
                <path d="M1.15,153.62 L1.15,118.91 L5.39,118.91 C50.8366667,118.91 96.28,118.91 141.72,118.91 C144.061483,118.984347 146.399277,118.673542 148.64,117.99 C153.655881,116.06041 156.777186,111.031185 156.28,105.68 C155.71762,100.098136 151.415297,95.6223993 145.86,94.84 C144.410975,94.7029806 142.95483,94.6562237 141.5,94.7 C110.28,94.7 79.05,94.7 47.82,94.7 C25,94.65 6.05,78.61 1.75,55.92 C-3.57,27.85 18.26,0.65 46.58,0.48 C80.94,0.28 115.31,0.43 149.67,0.42 L193,0.42 L193,35.3 L50.33,35.3 C48.7633388,35.253033 47.1953852,35.326583 45.64,35.52 C39.4518948,36.4191997 34.991511,41.9196144 35.39,48.16 C35.7698135,54.1232575 40.4391179,58.9199066 46.39,59.46 C47.73,59.59 49.08,59.54 50.39,59.54 C81.51,59.54 112.62,59.48 143.74,59.54 C166.02,59.6 184.52,74.63 189.58,96.54 C196.07,124.7 174.35,153.54 145.85,153.69 C98.17,154.01 50.49,153.79 2.85,153.79 C2.42,153.78 2,153.7 1.15,153.62 Z" id="Path"></path>
                <path d="M1,153.13 L1,118.26 L4.43,118.26 C49.0966667,118.26 93.7633333,118.26 138.43,118.26 C165.77,118.26 186.6,139.99 185.77,167.57 C185.569907,174.59081 183.657821,181.456467 180.2,187.57 C178.84,190 179.5,191.24 181.09,193.05 C204.09,219.05 192.58,260.05 159.47,269.75 C155.611264,270.889386 151.613222,271.488419 147.59,271.53 C99.59,271.663333 51.59,271.693333 3.59,271.62 C2.83,271.62 2.06,271.55 1.1,271.51 L1.1,177.38 L138,177.38 C144.8,177.38 149.5,174.06 151,168.38 C151.851325,165.180557 151.342981,161.771545 149.595261,158.959666 C147.847541,156.147787 145.015751,154.18291 141.77,153.53 C140.004395,153.251314 138.216692,153.13749 136.43,153.19 C92.89,153.19 49.35,153.19 5.81,153.19 L1,153.13 Z M35.36,236.52 C35.9566627,236.650124 36.5613369,236.740324 37.17,236.79 C73.63,236.79 110.09,236.84 146.54,236.69 C149.095094,236.56804 151.56794,235.748369 153.69,234.32 C158.037915,231.344717 159.853161,225.825221 158.12,220.85 C156.44,215.75 151.87,212.57 145.92,212.57 C110.02,212.57 74.12,212.57 38.22,212.57 C37.22,212.57 36.3,212.72 35.36,212.81 L35.36,236.52 Z" id="Shape"></path>
            </g>
        </g>
    </g>
</svg>